G75*
G70*
%OFA0B0*%
%FSLAX24Y24*%
%IPPOS*%
%LPD*%
%AMOC8*
5,1,8,0,0,1.08239X$1,22.5*
%
%ADD10C,0.0110*%
%ADD11O,0.0885X0.1770*%
%ADD12O,0.0591X0.1181*%
%ADD13OC8,0.0400*%
%ADD14O,0.0480X0.0960*%
%ADD15O,0.1200X0.0600*%
%ADD16O,0.0768X0.1535*%
%ADD17O,0.1535X0.0768*%
%ADD18OC8,0.0630*%
%ADD19O,0.1200X0.2400*%
%ADD20O,0.1530X0.0765*%
%ADD21OC8,0.0765*%
%ADD22C,0.0400*%
%ADD23C,0.0100*%
%ADD24C,0.0240*%
%ADD25C,0.0200*%
%ADD26C,0.0320*%
D10*
X040171Y054985D02*
X040171Y055575D01*
X040368Y055378D01*
X040565Y055575D01*
X040565Y054985D01*
X040816Y055083D02*
X040816Y055477D01*
X040914Y055575D01*
X041111Y055575D01*
X041209Y055477D01*
X041209Y055083D01*
X041111Y054985D01*
X040914Y054985D01*
X040816Y055083D01*
X041460Y055083D02*
X041559Y054985D01*
X041755Y054985D01*
X041854Y055083D01*
X041854Y055477D01*
X041755Y055575D01*
X041559Y055575D01*
X041460Y055477D01*
X042078Y055083D02*
X042078Y054985D01*
X042176Y054985D01*
X042176Y055083D01*
X042078Y055083D01*
X042427Y054985D02*
X042427Y055575D01*
X042427Y055280D02*
X042821Y055280D01*
X042821Y054985D02*
X042821Y055575D01*
X043071Y055575D02*
X043465Y055575D01*
X043268Y055575D02*
X043268Y054985D01*
X043716Y054985D02*
X043716Y055575D01*
X044110Y055575D02*
X043716Y054985D01*
X044110Y054985D02*
X044110Y055575D01*
X044361Y055575D02*
X044361Y055477D01*
X044557Y055280D01*
X044557Y054985D01*
X044557Y055280D02*
X044754Y055477D01*
X044754Y055575D01*
X045005Y055477D02*
X045104Y055575D01*
X045300Y055575D01*
X045399Y055477D01*
X045399Y055378D01*
X045300Y055280D01*
X045104Y055280D01*
X045005Y055181D01*
X045005Y055083D01*
X045104Y054985D01*
X045300Y054985D01*
X045399Y055083D01*
X045650Y054985D02*
X045650Y055575D01*
X045650Y055280D02*
X046043Y055280D01*
X046043Y054985D02*
X046043Y055575D01*
X046294Y055575D02*
X046688Y055575D01*
X046491Y055575D02*
X046491Y054985D01*
X046939Y054985D02*
X046939Y055575D01*
X047332Y055575D02*
X046939Y054985D01*
X047332Y054985D02*
X047332Y055575D01*
X048228Y055280D02*
X048621Y055280D01*
X049517Y055477D02*
X049615Y055575D01*
X049910Y055575D01*
X049910Y054985D01*
X049615Y054985D01*
X049517Y055083D01*
X049517Y055477D01*
X050161Y055575D02*
X050161Y054985D01*
X050555Y055575D01*
X050555Y054985D01*
X050806Y054985D02*
X050806Y055378D01*
X051003Y055575D01*
X051199Y055378D01*
X051199Y054985D01*
X051450Y054985D02*
X051844Y054985D01*
X051844Y055575D01*
X052095Y054985D02*
X052489Y054985D01*
X052489Y055575D01*
X052739Y055477D02*
X052838Y055575D01*
X053035Y055575D01*
X053133Y055477D01*
X053133Y055083D01*
X053035Y054985D01*
X052838Y054985D01*
X052739Y055083D01*
X052739Y055477D01*
X053384Y055575D02*
X053384Y054985D01*
X053384Y055280D02*
X053778Y055280D01*
X053778Y054985D02*
X053778Y055575D01*
X054673Y055575D02*
X054673Y054985D01*
X055067Y055575D01*
X055067Y054985D01*
X055300Y054985D02*
X055496Y054985D01*
X055398Y054985D02*
X055398Y055575D01*
X055496Y055575D02*
X055300Y055575D01*
X055747Y055575D02*
X055747Y055181D01*
X055944Y054985D01*
X056141Y055181D01*
X056141Y055575D01*
X056392Y055575D02*
X056785Y055575D01*
X056785Y054985D01*
X056392Y054985D01*
X056589Y055280D02*
X056785Y055280D01*
X057036Y055575D02*
X057430Y055181D01*
X057332Y055280D02*
X057036Y054985D01*
X057430Y054985D02*
X057430Y055575D01*
X058325Y055477D02*
X058325Y055083D01*
X058424Y054985D01*
X058719Y054985D01*
X058719Y055575D01*
X058424Y055575D01*
X058325Y055477D01*
X058970Y055575D02*
X058970Y054985D01*
X059364Y055575D01*
X059364Y054985D01*
X059614Y054985D02*
X059614Y055378D01*
X059811Y055575D01*
X060008Y055378D01*
X060008Y054985D01*
X060008Y055280D02*
X059614Y055280D01*
X060903Y055280D02*
X061297Y055280D01*
X061297Y054985D02*
X061297Y055575D01*
X061548Y055477D02*
X061646Y055575D01*
X061843Y055575D01*
X061942Y055477D01*
X061942Y055083D01*
X061843Y054985D01*
X061646Y054985D01*
X061548Y055083D01*
X062174Y054985D02*
X062371Y054985D01*
X062273Y054985D02*
X062273Y055575D01*
X062371Y055575D02*
X062174Y055575D01*
X062622Y055575D02*
X062622Y055181D01*
X062819Y054985D01*
X063016Y055181D01*
X063016Y055575D01*
X063267Y055575D02*
X063660Y055575D01*
X063660Y054985D01*
X063267Y054985D01*
X063464Y055280D02*
X063660Y055280D01*
X063911Y055575D02*
X064305Y055181D01*
X064206Y055280D02*
X063911Y054985D01*
X064305Y054985D02*
X064305Y055575D01*
X064556Y055477D02*
X064654Y055575D01*
X064851Y055575D01*
X064949Y055477D01*
X064949Y055378D01*
X064851Y055280D01*
X064654Y055280D01*
X064556Y055181D01*
X064556Y055083D01*
X064654Y054985D01*
X064851Y054985D01*
X064949Y055083D01*
X065200Y054985D02*
X065200Y055378D01*
X065397Y055575D01*
X065594Y055378D01*
X065594Y054985D01*
X065594Y055280D02*
X065200Y055280D01*
X065845Y055575D02*
X066238Y055575D01*
X066042Y055575D02*
X066042Y054985D01*
X066489Y055083D02*
X066588Y054985D01*
X066785Y054985D01*
X066883Y055083D01*
X066785Y055280D02*
X066588Y055280D01*
X066489Y055181D01*
X066489Y055083D01*
X066785Y055280D02*
X066883Y055378D01*
X066883Y055477D01*
X066785Y055575D01*
X066588Y055575D01*
X066489Y055477D01*
X067778Y055575D02*
X067778Y054985D01*
X068172Y055575D01*
X068172Y054985D01*
X068423Y054985D02*
X068423Y055575D01*
X068423Y055280D02*
X068817Y055280D01*
X068817Y054985D02*
X068817Y055575D01*
X069067Y055477D02*
X069067Y055083D01*
X069166Y054985D01*
X069363Y054985D01*
X069461Y055083D01*
X069461Y055477D01*
X069363Y055575D01*
X069166Y055575D01*
X069067Y055477D01*
X069712Y055575D02*
X069909Y055575D01*
X069810Y055575D02*
X069810Y055083D01*
X069909Y054985D01*
X070007Y054985D01*
X070106Y055083D01*
X071001Y055477D02*
X071001Y055575D01*
X071001Y055477D02*
X071198Y055280D01*
X071198Y054985D01*
X071198Y055280D02*
X071395Y055477D01*
X071395Y055575D01*
X071646Y055477D02*
X071646Y055378D01*
X071744Y055280D01*
X072039Y055280D01*
X071744Y055280D02*
X071646Y055181D01*
X071646Y055083D01*
X071744Y054985D01*
X072039Y054985D01*
X072039Y055575D01*
X071744Y055575D01*
X071646Y055477D01*
X072935Y055477D02*
X072935Y055083D01*
X073033Y054985D01*
X073328Y054985D01*
X073328Y055575D01*
X073033Y055575D01*
X072935Y055477D01*
X073579Y055575D02*
X073973Y055575D01*
X073973Y054985D01*
X073579Y054985D01*
X073776Y055280D02*
X073973Y055280D01*
X074224Y054985D02*
X074224Y055575D01*
X074617Y055575D02*
X074224Y054985D01*
X074617Y054985D02*
X074617Y055575D01*
X074868Y055477D02*
X074967Y055575D01*
X075163Y055575D01*
X075262Y055477D01*
X075262Y055083D01*
X075163Y054985D01*
X074967Y054985D01*
X074868Y055083D01*
X074868Y055280D01*
X075065Y055280D01*
X075495Y055575D02*
X075692Y055575D01*
X075593Y055575D02*
X075593Y054985D01*
X075495Y054985D02*
X075692Y054985D01*
X075942Y055083D02*
X076041Y054985D01*
X076238Y054985D01*
X076336Y055083D01*
X076238Y055280D02*
X076041Y055280D01*
X075942Y055181D01*
X075942Y055083D01*
X076238Y055280D02*
X076336Y055378D01*
X076336Y055477D01*
X076238Y055575D01*
X076041Y055575D01*
X075942Y055477D01*
X076587Y055575D02*
X076981Y055575D01*
X076981Y054985D01*
X076587Y054985D01*
X076784Y055280D02*
X076981Y055280D01*
X077231Y055477D02*
X077330Y055575D01*
X077625Y055575D01*
X077625Y054985D01*
X077330Y054985D01*
X077231Y055083D01*
X077231Y055477D01*
X078521Y055280D02*
X078914Y055280D01*
X079810Y055477D02*
X079908Y055575D01*
X080105Y055575D01*
X080203Y055477D01*
X080203Y055083D01*
X080105Y054985D01*
X079908Y054985D01*
X079810Y055083D01*
X080454Y054985D02*
X080848Y054985D01*
X080848Y055575D01*
X081099Y054985D02*
X081492Y054985D01*
X081492Y055575D01*
X082388Y055575D02*
X082388Y054985D01*
X082388Y055280D02*
X082781Y055280D01*
X082781Y054985D02*
X082781Y055575D01*
X083032Y055575D02*
X083426Y055575D01*
X083229Y055575D02*
X083229Y054985D01*
X083677Y054985D02*
X083677Y055575D01*
X084070Y055575D02*
X083677Y054985D01*
X084070Y054985D02*
X084070Y055575D01*
X084321Y055575D02*
X084321Y055477D01*
X084518Y055280D01*
X084518Y054985D01*
X084518Y055280D02*
X084715Y055477D01*
X084715Y055575D01*
X084966Y055477D02*
X085064Y055575D01*
X085261Y055575D01*
X085359Y055477D01*
X085359Y055378D01*
X085261Y055280D01*
X085064Y055280D01*
X084966Y055181D01*
X084966Y055083D01*
X085064Y054985D01*
X085261Y054985D01*
X085359Y055083D01*
X085610Y054985D02*
X085610Y055575D01*
X085610Y055280D02*
X086004Y055280D01*
X086004Y054985D02*
X086004Y055575D01*
X086255Y055575D02*
X086649Y055575D01*
X086452Y055575D02*
X086452Y054985D01*
X086899Y054985D02*
X086899Y055575D01*
X087293Y055575D02*
X086899Y054985D01*
X087293Y054985D02*
X087293Y055575D01*
X088188Y055477D02*
X088287Y055575D01*
X088484Y055575D01*
X088582Y055477D01*
X088188Y055477D02*
X088188Y055378D01*
X088582Y054985D01*
X088188Y054985D01*
X088833Y054985D02*
X089227Y054985D01*
X089030Y054985D02*
X089030Y055575D01*
X089227Y055378D01*
X089477Y055477D02*
X089871Y055083D01*
X089773Y054985D01*
X089576Y054985D01*
X089477Y055083D01*
X089477Y055477D01*
X089576Y055575D01*
X089773Y055575D01*
X089871Y055477D01*
X089871Y055083D01*
X090122Y054985D02*
X090516Y054985D01*
X090122Y055378D01*
X090122Y055477D01*
X090220Y055575D01*
X090417Y055575D01*
X090516Y055477D01*
X091393Y055378D02*
X091393Y055181D01*
X091590Y054985D01*
X091841Y055083D02*
X091939Y054985D01*
X092136Y054985D01*
X092234Y055083D01*
X092234Y055477D01*
X092136Y055575D01*
X091939Y055575D01*
X091841Y055477D01*
X091590Y055575D02*
X091393Y055378D01*
X092467Y055575D02*
X092664Y055378D01*
X092664Y055181D01*
X092467Y054985D01*
X093559Y055280D02*
X093953Y055280D01*
X094849Y055477D02*
X094947Y055575D01*
X095242Y055575D01*
X095242Y054985D01*
X094947Y054985D01*
X094849Y055083D01*
X094849Y055477D01*
X096138Y055575D02*
X096138Y055181D01*
X096334Y054985D01*
X096531Y055181D01*
X096531Y055575D01*
X096782Y055575D02*
X097176Y055575D01*
X097176Y054985D01*
X096782Y054985D01*
X096979Y055280D02*
X097176Y055280D01*
X097427Y055280D02*
X097525Y055181D01*
X097820Y055181D01*
X097820Y054985D02*
X097820Y055575D01*
X097525Y055575D01*
X097427Y055477D01*
X097427Y055280D01*
X097624Y055181D02*
X097427Y054985D01*
X098716Y054985D02*
X098716Y055575D01*
X098716Y055280D02*
X099109Y055280D01*
X099109Y054985D02*
X099109Y055575D01*
X099360Y055575D02*
X099754Y055575D01*
X099557Y055575D02*
X099557Y054985D01*
X100005Y054985D02*
X100005Y055575D01*
X100398Y055575D02*
X100005Y054985D01*
X100398Y054985D02*
X100398Y055575D01*
X060903Y055575D02*
X060903Y054985D01*
X051199Y055280D02*
X050806Y055280D01*
D11*
X060145Y042875D03*
X061621Y042875D03*
X065205Y042875D03*
X066681Y042875D03*
X070265Y042875D03*
X071741Y042875D03*
X075325Y042875D03*
X076801Y042875D03*
X080385Y042875D03*
X081861Y042875D03*
X085445Y042875D03*
X086921Y042875D03*
X090505Y042875D03*
X091981Y042875D03*
X095565Y042875D03*
X097041Y042875D03*
X095565Y017284D03*
X090505Y017284D03*
X085445Y017284D03*
X080385Y017284D03*
X075325Y017284D03*
X070265Y017284D03*
X065205Y017284D03*
X060145Y017284D03*
D12*
X050193Y009600D03*
X049193Y009600D03*
X048193Y009600D03*
X043293Y009600D03*
X042293Y009600D03*
X041293Y009600D03*
X036393Y009600D03*
X035393Y009600D03*
X034393Y009600D03*
X029623Y034820D03*
X028623Y034820D03*
X027623Y034820D03*
X043553Y034820D03*
X044553Y034820D03*
X045553Y034820D03*
X045253Y044370D03*
X046253Y044370D03*
X047253Y044370D03*
D13*
X028263Y046540D03*
X027263Y046540D03*
X026263Y046540D03*
X026263Y047540D03*
X028263Y047540D03*
X026543Y012860D03*
X026543Y011860D03*
X025543Y011860D03*
X024543Y011860D03*
X024543Y012860D03*
D14*
X024823Y029500D03*
X025823Y029500D03*
X031833Y029500D03*
X032833Y029500D03*
X038843Y029500D03*
X039843Y029500D03*
X045853Y029500D03*
X046853Y029500D03*
X037333Y047040D03*
X036333Y047040D03*
X060383Y047790D03*
X061383Y047790D03*
X065443Y047790D03*
X066443Y047790D03*
X070503Y047790D03*
X071503Y047790D03*
X075563Y047790D03*
X076563Y047790D03*
X080623Y047790D03*
X081623Y047790D03*
X085683Y047790D03*
X086683Y047790D03*
X090743Y047790D03*
X091743Y047790D03*
X095803Y047790D03*
X096803Y047790D03*
D15*
X022273Y016230D03*
X022273Y011230D03*
X005373Y019730D03*
X005373Y020730D03*
X005373Y021730D03*
X005373Y022730D03*
X005373Y023730D03*
X005373Y024730D03*
D16*
X002854Y010230D03*
D17*
X004823Y012198D03*
X004823Y008261D03*
D18*
X009673Y008230D03*
X010673Y008230D03*
X011673Y008230D03*
X012673Y008230D03*
X013673Y008230D03*
X014673Y008230D03*
X015673Y008230D03*
X016673Y008230D03*
X017673Y008230D03*
X018673Y008230D03*
X019673Y008230D03*
X020673Y008230D03*
X020673Y009230D03*
X019673Y009230D03*
X018673Y009230D03*
X017673Y009230D03*
X016673Y009230D03*
X015673Y009230D03*
X014673Y009230D03*
X013673Y009230D03*
X012673Y009230D03*
X011673Y009230D03*
X010673Y009230D03*
X009673Y009230D03*
X009673Y010230D03*
X009673Y011230D03*
X010673Y011230D03*
X011673Y011230D03*
X012673Y011230D03*
X013673Y011230D03*
X014673Y011230D03*
X015673Y011230D03*
X016673Y011230D03*
X017673Y011230D03*
X018673Y011230D03*
X019673Y011230D03*
X020673Y011230D03*
X020673Y010230D03*
X019673Y010230D03*
X018673Y010230D03*
X017673Y010230D03*
X016673Y010230D03*
X015673Y010230D03*
X014673Y010230D03*
X013673Y010230D03*
X012673Y010230D03*
X011673Y010230D03*
X010673Y010230D03*
X010673Y012230D03*
X009673Y012230D03*
X009673Y013230D03*
X010673Y013230D03*
X011673Y013230D03*
X012673Y013230D03*
X013673Y013230D03*
X014673Y013230D03*
X015673Y013230D03*
X016673Y013230D03*
X017673Y013230D03*
X018673Y013230D03*
X019673Y013230D03*
X020673Y013230D03*
X020673Y014230D03*
X020673Y015230D03*
X019673Y015230D03*
X018673Y015230D03*
X017673Y015230D03*
X016673Y015230D03*
X015673Y015230D03*
X014673Y015230D03*
X013673Y015230D03*
X012673Y015230D03*
X011673Y015230D03*
X010673Y015230D03*
X009673Y015230D03*
X009673Y014230D03*
X010673Y014230D03*
X011673Y014230D03*
X012673Y014230D03*
X013673Y014230D03*
X014673Y014230D03*
X015673Y014230D03*
X016673Y014230D03*
X017673Y014230D03*
X018673Y014230D03*
X019673Y014230D03*
X019673Y016230D03*
X018673Y016230D03*
X017673Y016230D03*
X016673Y016230D03*
X015673Y016230D03*
X014673Y016230D03*
X013673Y016230D03*
X012673Y016230D03*
X011673Y016230D03*
X010673Y016230D03*
X009673Y016230D03*
X009673Y017230D03*
X010673Y017230D03*
X011673Y017230D03*
X012673Y017230D03*
X013673Y017230D03*
X014673Y017230D03*
X015673Y017230D03*
X016673Y017230D03*
X017673Y017230D03*
X018673Y017230D03*
X019673Y017230D03*
X020673Y017230D03*
X020673Y018230D03*
X019673Y018230D03*
X018673Y018230D03*
X017673Y018230D03*
X016673Y018230D03*
X015673Y018230D03*
X014673Y018230D03*
X013673Y018230D03*
X012673Y018230D03*
X011673Y018230D03*
X010673Y018230D03*
X009673Y018230D03*
X009673Y019230D03*
X010673Y019230D03*
X011673Y019230D03*
X012673Y019230D03*
X013673Y019230D03*
X014673Y019230D03*
X015673Y019230D03*
X016673Y019230D03*
X017673Y019230D03*
X018673Y019230D03*
X019673Y019230D03*
X020673Y019230D03*
X020673Y016230D03*
X020673Y012230D03*
X019673Y012230D03*
X018673Y012230D03*
X017673Y012230D03*
X016673Y012230D03*
X015673Y012230D03*
X014673Y012230D03*
X013673Y012230D03*
X012673Y012230D03*
X011673Y012230D03*
D19*
X014173Y048230D03*
X019173Y048230D03*
D20*
X006623Y045130D03*
X006623Y037230D03*
D21*
X007623Y035230D03*
X006623Y034230D03*
X002623Y035230D03*
X002623Y036230D03*
X002623Y038230D03*
X002623Y039230D03*
X006623Y040230D03*
X007623Y039230D03*
X006623Y042130D03*
X007623Y043130D03*
X002623Y043130D03*
X002623Y044130D03*
X002623Y046130D03*
X002623Y047130D03*
X006623Y048130D03*
X007623Y047130D03*
D22*
X025973Y043530D03*
X028273Y042630D03*
X033173Y041730D03*
X034173Y041730D03*
X035173Y041730D03*
X035173Y042730D03*
X035173Y043730D03*
X035173Y044730D03*
X035173Y045730D03*
X035173Y046730D03*
X035173Y047730D03*
X035173Y048730D03*
X035173Y049730D03*
X035173Y050730D03*
X034173Y050730D03*
X033173Y050730D03*
X032173Y050730D03*
X031173Y050730D03*
X031173Y049730D03*
X031173Y048730D03*
X031173Y047730D03*
X031173Y046730D03*
X031173Y045730D03*
X036173Y050730D03*
X037173Y050730D03*
X052773Y042830D03*
X053273Y043330D03*
X053773Y043830D03*
X054273Y044330D03*
X055973Y046330D03*
X055573Y046830D03*
X055973Y041630D03*
X055573Y041130D03*
X054273Y041630D03*
X053773Y041230D03*
X053273Y040830D03*
X052773Y040430D03*
X057973Y039530D03*
X052173Y036230D03*
X052673Y036030D03*
X053173Y035830D03*
X053673Y035630D03*
X051473Y035930D03*
X050973Y035530D03*
X050473Y035130D03*
X049973Y034730D03*
X049473Y034330D03*
X048973Y033930D03*
X048473Y033530D03*
X047973Y033130D03*
X047173Y032430D03*
X048873Y030730D03*
X048473Y030330D03*
X050773Y026330D03*
X052873Y026330D03*
X055773Y027130D03*
X056173Y026730D03*
X056173Y029130D03*
X055773Y032630D03*
X057573Y032530D03*
X055773Y033730D03*
X056173Y034230D03*
X056973Y035530D03*
X041373Y032630D03*
X040973Y033030D03*
X040573Y033430D03*
X040173Y033830D03*
X038773Y032430D03*
X039173Y032030D03*
X039573Y031630D03*
X039973Y031230D03*
X035073Y023130D03*
X035073Y022130D03*
X037173Y020830D03*
X036873Y020430D03*
X036573Y020030D03*
X036273Y019630D03*
X035973Y018430D03*
X035573Y018030D03*
X035173Y017630D03*
X034773Y017230D03*
X034373Y016830D03*
X033973Y016430D03*
X033573Y016030D03*
X033173Y015630D03*
X036773Y017430D03*
X038773Y015430D03*
X038073Y014130D03*
X039073Y012830D03*
X041173Y015530D03*
X041373Y016730D03*
X045673Y014430D03*
X045673Y007930D03*
X044473Y007930D03*
X044573Y006530D03*
X044373Y005030D03*
X042073Y006330D03*
X041273Y007030D03*
X041173Y005730D03*
X036973Y007330D03*
X035473Y007330D03*
X033673Y007330D03*
X032373Y006630D03*
X035873Y004930D03*
X032773Y004330D03*
X032473Y009230D03*
X031673Y010830D03*
X027573Y014630D03*
X026473Y014630D03*
X024573Y014030D03*
X028173Y015730D03*
X027673Y016830D03*
X028073Y017430D03*
X028173Y019330D03*
X025573Y021030D03*
X025573Y021630D03*
X024773Y022330D03*
X025273Y022730D03*
X029673Y023130D03*
X029673Y022130D03*
X033273Y019830D03*
X022973Y026330D03*
X021373Y026330D03*
X018223Y023080D03*
X020873Y021430D03*
X009973Y021430D03*
X009073Y026330D03*
X007223Y026880D03*
X007223Y030580D03*
X006573Y031530D03*
X006173Y031930D03*
X009573Y031830D03*
X009673Y032530D03*
X050773Y022730D03*
X051173Y023130D03*
X051973Y022330D03*
X052373Y022730D03*
X052773Y023130D03*
X051173Y021930D03*
X059173Y008230D03*
X059173Y006630D03*
X064273Y006830D03*
X064273Y008230D03*
X069373Y008230D03*
X069373Y007030D03*
X079473Y006630D03*
X079473Y008230D03*
X084573Y008230D03*
X084573Y006830D03*
X089573Y007030D03*
X089573Y008230D03*
X047473Y007330D03*
X070173Y046130D03*
X075173Y045830D03*
X065073Y046430D03*
D23*
X065773Y046430D01*
X066443Y047100D01*
X066443Y047790D01*
X070173Y046130D02*
X070473Y046130D01*
X071503Y047160D01*
X071503Y047790D01*
X075173Y045830D02*
X076563Y047220D01*
X076563Y047790D01*
X055973Y046330D02*
X055973Y041630D01*
X055573Y041130D02*
X055573Y046830D01*
X054273Y044330D02*
X054273Y041630D01*
X053773Y041230D02*
X053773Y043830D01*
X053273Y043330D02*
X053273Y040830D01*
X052773Y040430D02*
X052773Y042830D01*
X047773Y040330D02*
X047773Y034930D01*
X046373Y033530D01*
X046373Y032030D01*
X047673Y030730D01*
X048873Y030730D01*
X048473Y030330D02*
X047773Y030330D01*
X044553Y033550D01*
X044553Y034820D01*
X047973Y033130D02*
X049673Y033130D01*
X049873Y032930D01*
X049873Y029330D01*
X042373Y021830D01*
X036373Y021830D01*
X033173Y018630D01*
X033173Y015630D01*
X033573Y016030D02*
X033573Y018630D01*
X036573Y021630D01*
X042473Y021630D01*
X050073Y029230D01*
X050073Y033330D01*
X049873Y033530D01*
X048473Y033530D01*
X048973Y033930D02*
X050073Y033930D01*
X050273Y033730D01*
X050273Y029130D01*
X042573Y021430D01*
X036773Y021430D01*
X033973Y018630D01*
X033973Y016430D01*
X034373Y016830D02*
X034373Y018630D01*
X036973Y021230D01*
X042673Y021230D01*
X050473Y029030D01*
X050473Y034130D01*
X050273Y034330D01*
X049473Y034330D01*
X049973Y034730D02*
X050473Y034730D01*
X050673Y034530D01*
X050673Y028930D01*
X042573Y020830D01*
X037173Y020830D01*
X036873Y020430D02*
X042473Y020430D01*
X050873Y028830D01*
X050873Y034930D01*
X050673Y035130D01*
X050473Y035130D01*
X050973Y035530D02*
X051073Y035430D01*
X051073Y028730D01*
X042373Y020030D01*
X036573Y020030D01*
X036273Y019630D02*
X042273Y019630D01*
X051273Y028630D01*
X051273Y035330D01*
X051473Y035530D01*
X051473Y035930D01*
X052173Y035930D02*
X052173Y036230D01*
X052173Y035930D02*
X051473Y035230D01*
X051473Y028530D01*
X042173Y019230D01*
X035373Y019230D01*
X034773Y018630D01*
X034773Y017230D01*
X035173Y017630D02*
X035173Y018630D01*
X035573Y019030D01*
X042273Y019030D01*
X051673Y028430D01*
X051673Y035030D01*
X052673Y036030D01*
X053173Y035830D02*
X051873Y034530D01*
X051873Y028330D01*
X042373Y018830D01*
X035773Y018830D01*
X035573Y018630D01*
X035573Y018030D01*
X035973Y018430D02*
X036173Y018630D01*
X042473Y018630D01*
X052073Y028230D01*
X052073Y034030D01*
X053673Y035630D01*
X056173Y034230D02*
X056173Y029130D01*
X056173Y026730D01*
X055773Y027130D02*
X055773Y032630D01*
X055773Y033730D01*
X047773Y040330D02*
X046253Y041850D01*
X046253Y044370D01*
X036333Y047040D02*
X035483Y047040D01*
X035173Y046730D01*
X028273Y046530D02*
X028273Y042630D01*
X028273Y046530D02*
X028263Y046540D01*
X040173Y033830D02*
X038773Y032430D01*
X039173Y032030D02*
X040573Y033430D01*
X040973Y033030D02*
X039573Y031630D01*
X039973Y031230D02*
X041373Y032630D01*
X050773Y026330D02*
X052873Y026330D01*
X052773Y023130D02*
X051173Y023130D01*
X050773Y022730D02*
X052373Y022730D01*
X051973Y022330D02*
X051573Y022330D01*
X051173Y021930D01*
X035073Y022130D02*
X035073Y023130D01*
X029673Y023130D02*
X029673Y022130D01*
X025573Y021630D02*
X021073Y021630D01*
X020873Y021430D01*
X020573Y021030D02*
X025573Y021030D01*
X025073Y021930D02*
X025273Y022130D01*
X025273Y022730D01*
X024773Y022330D02*
X006873Y022330D01*
X006273Y021730D01*
X005373Y021730D01*
X005373Y020730D02*
X006473Y020730D01*
X007673Y021930D01*
X025073Y021930D01*
X020573Y021030D02*
X020173Y021430D01*
X009973Y021430D01*
X006673Y024730D02*
X005373Y024730D01*
X006673Y024730D02*
X008273Y026330D01*
X009073Y026330D01*
X007223Y026880D02*
X007223Y030580D01*
X006573Y031530D02*
X009273Y031530D01*
X009573Y031830D01*
X009073Y031930D02*
X009673Y032530D01*
X009073Y031930D02*
X006173Y031930D01*
X021373Y026330D02*
X022973Y026330D01*
X020673Y017230D02*
X020673Y016230D01*
X020673Y015230D01*
X019673Y015230D02*
X019673Y016230D01*
X019673Y017230D01*
X018673Y017230D02*
X018673Y016230D01*
X018673Y015230D01*
X017673Y015230D02*
X017673Y016230D01*
X017673Y017230D01*
X016673Y017230D02*
X016673Y016230D01*
X016673Y015230D01*
X015673Y015230D02*
X015673Y016230D01*
X015673Y017230D01*
X014673Y017230D02*
X014673Y016230D01*
X014673Y015230D01*
X013673Y015230D02*
X013673Y016230D01*
X013673Y017230D01*
X012673Y017230D02*
X012673Y016230D01*
X012673Y015230D01*
X011673Y015230D02*
X011673Y016230D01*
X011673Y017230D01*
X010673Y017230D02*
X010673Y016230D01*
X010673Y015230D01*
X009673Y015230D02*
X009673Y016230D01*
X009673Y017230D01*
X009673Y012230D02*
X009673Y011230D01*
X009673Y010230D01*
X010673Y010230D02*
X010673Y011230D01*
X010673Y012230D01*
X011673Y012230D02*
X011673Y011230D01*
X011673Y010230D01*
X012673Y010230D02*
X012673Y011230D01*
X012673Y012230D01*
X013673Y012230D02*
X013673Y011230D01*
X013673Y010230D01*
X014673Y010230D02*
X014673Y011230D01*
X014673Y012230D01*
X015673Y012230D02*
X015673Y011230D01*
X015673Y010230D01*
X016673Y010230D02*
X016673Y011230D01*
X016673Y012230D01*
X017673Y012230D02*
X017673Y011230D01*
X017673Y010230D01*
X018673Y010230D02*
X018673Y011230D01*
X018673Y012230D01*
X019673Y012230D02*
X019673Y011230D01*
X019673Y010230D01*
X020673Y010230D02*
X020673Y011230D01*
X020673Y012230D01*
X059173Y008230D02*
X059173Y006630D01*
X064273Y006830D02*
X064273Y008230D01*
X069373Y008230D02*
X069373Y007030D01*
X079473Y006630D02*
X079473Y008230D01*
X084573Y008230D02*
X084573Y006830D01*
X089573Y007030D02*
X089573Y008230D01*
D24*
X001993Y001550D02*
X001993Y034810D01*
X002316Y034487D01*
X002931Y034487D01*
X003366Y034922D01*
X003366Y035537D01*
X003173Y035730D01*
X003366Y035922D01*
X003366Y036537D01*
X002931Y036972D01*
X002316Y036972D01*
X001993Y036650D01*
X001993Y037810D01*
X002316Y037487D01*
X002931Y037487D01*
X003366Y037922D01*
X003366Y038537D01*
X003173Y038730D01*
X003366Y038922D01*
X003366Y039537D01*
X002931Y039972D01*
X002316Y039972D01*
X001993Y039650D01*
X001993Y042710D01*
X002316Y042387D01*
X002931Y042387D01*
X003366Y042822D01*
X003366Y043437D01*
X003173Y043630D01*
X003366Y043822D01*
X003366Y044437D01*
X002931Y044872D01*
X002316Y044872D01*
X001993Y044550D01*
X001993Y045710D01*
X002316Y045387D01*
X002931Y045387D01*
X003366Y045822D01*
X003366Y046437D01*
X003173Y046630D01*
X003366Y046822D01*
X003366Y047437D01*
X002931Y047872D01*
X002316Y047872D01*
X001993Y047550D01*
X001993Y054230D01*
X101353Y054230D01*
X101353Y001550D01*
X001993Y001550D01*
X001993Y001707D02*
X101353Y001707D01*
X101353Y001945D02*
X001993Y001945D01*
X001993Y002184D02*
X101353Y002184D01*
X101353Y002422D02*
X001993Y002422D01*
X001993Y002661D02*
X101353Y002661D01*
X101353Y002899D02*
X001993Y002899D01*
X001993Y003138D02*
X101353Y003138D01*
X101353Y003376D02*
X001993Y003376D01*
X001993Y003615D02*
X101353Y003615D01*
X101353Y003854D02*
X001993Y003854D01*
X001993Y004092D02*
X101353Y004092D01*
X101353Y004331D02*
X098168Y004331D01*
X098251Y004365D02*
X098538Y004652D01*
X098693Y005027D01*
X098693Y005432D01*
X098538Y005807D01*
X098251Y006094D01*
X097876Y006250D01*
X097470Y006250D01*
X097095Y006094D01*
X096808Y005807D01*
X096653Y005432D01*
X096653Y005027D01*
X096808Y004652D01*
X097095Y004365D01*
X097470Y004210D01*
X097876Y004210D01*
X098251Y004365D01*
X098455Y004569D02*
X101353Y004569D01*
X101353Y004808D02*
X098602Y004808D01*
X098693Y005046D02*
X101353Y005046D01*
X101353Y005285D02*
X098693Y005285D01*
X098655Y005523D02*
X101353Y005523D01*
X101353Y005762D02*
X098557Y005762D01*
X098345Y006000D02*
X101353Y006000D01*
X101353Y006239D02*
X097901Y006239D01*
X097445Y006239D02*
X079874Y006239D01*
X079948Y006312D02*
X080033Y006518D01*
X080033Y006741D01*
X079948Y006947D01*
X079883Y007012D01*
X079883Y007848D01*
X079948Y007912D01*
X080033Y008118D01*
X080033Y008341D01*
X079948Y008547D01*
X079790Y008704D01*
X079584Y008790D01*
X079362Y008790D01*
X079156Y008704D01*
X078998Y008547D01*
X078913Y008341D01*
X078913Y008118D01*
X078998Y007912D01*
X079063Y007848D01*
X079063Y007012D01*
X078998Y006947D01*
X078913Y006741D01*
X078913Y006518D01*
X078998Y006312D01*
X079156Y006155D01*
X079362Y006070D01*
X079584Y006070D01*
X079790Y006155D01*
X079948Y006312D01*
X080016Y006478D02*
X084133Y006478D01*
X084098Y006512D02*
X084256Y006355D01*
X084462Y006270D01*
X084684Y006270D01*
X084890Y006355D01*
X085048Y006512D01*
X085133Y006718D01*
X085133Y006941D01*
X085048Y007147D01*
X084983Y007212D01*
X084983Y007848D01*
X085048Y007912D01*
X085133Y008118D01*
X085133Y008341D01*
X085048Y008547D01*
X084890Y008704D01*
X084684Y008790D01*
X084462Y008790D01*
X084256Y008704D01*
X084098Y008547D01*
X084013Y008341D01*
X084013Y008118D01*
X084098Y007912D01*
X084163Y007848D01*
X084163Y007212D01*
X084098Y007147D01*
X084013Y006941D01*
X084013Y006718D01*
X084098Y006512D01*
X084014Y006716D02*
X080033Y006716D01*
X079940Y006955D02*
X084019Y006955D01*
X084145Y007193D02*
X079883Y007193D01*
X079883Y007432D02*
X084163Y007432D01*
X084163Y007670D02*
X079883Y007670D01*
X079944Y007909D02*
X084102Y007909D01*
X084013Y008147D02*
X080033Y008147D01*
X080014Y008386D02*
X084032Y008386D01*
X084176Y008624D02*
X079870Y008624D01*
X079076Y008624D02*
X069770Y008624D01*
X069848Y008547D02*
X069690Y008704D01*
X069484Y008790D01*
X069262Y008790D01*
X069056Y008704D01*
X068898Y008547D01*
X068813Y008341D01*
X068813Y008118D01*
X068898Y007912D01*
X068963Y007848D01*
X068963Y007412D01*
X068898Y007347D01*
X068813Y007141D01*
X068813Y006918D01*
X068898Y006712D01*
X069056Y006555D01*
X069262Y006470D01*
X069484Y006470D01*
X069690Y006555D01*
X069848Y006712D01*
X069933Y006918D01*
X069933Y007141D01*
X069848Y007347D01*
X069783Y007412D01*
X069783Y007848D01*
X069848Y007912D01*
X069933Y008118D01*
X069933Y008341D01*
X069848Y008547D01*
X069914Y008386D02*
X078932Y008386D01*
X078913Y008147D02*
X069933Y008147D01*
X069844Y007909D02*
X079002Y007909D01*
X079063Y007670D02*
X069783Y007670D01*
X069783Y007432D02*
X079063Y007432D01*
X079063Y007193D02*
X069911Y007193D01*
X069933Y006955D02*
X079006Y006955D01*
X078913Y006716D02*
X069849Y006716D01*
X069504Y006478D02*
X078930Y006478D01*
X079072Y006239D02*
X059574Y006239D01*
X059648Y006312D02*
X059733Y006518D01*
X059733Y006741D01*
X059648Y006947D01*
X059583Y007012D01*
X059583Y007848D01*
X059648Y007912D01*
X059733Y008118D01*
X059733Y008341D01*
X059648Y008547D01*
X059490Y008704D01*
X059284Y008790D01*
X059062Y008790D01*
X058856Y008704D01*
X058698Y008547D01*
X058613Y008341D01*
X058613Y008118D01*
X058698Y007912D01*
X058763Y007848D01*
X058763Y007012D01*
X058698Y006947D01*
X058613Y006741D01*
X058613Y006518D01*
X058698Y006312D01*
X058856Y006155D01*
X059062Y006070D01*
X059284Y006070D01*
X059490Y006155D01*
X059648Y006312D01*
X059716Y006478D02*
X063833Y006478D01*
X063798Y006512D02*
X063956Y006355D01*
X064162Y006270D01*
X064384Y006270D01*
X064590Y006355D01*
X064748Y006512D01*
X064833Y006718D01*
X064833Y006941D01*
X064748Y007147D01*
X064683Y007212D01*
X064683Y007848D01*
X064748Y007912D01*
X064833Y008118D01*
X064833Y008341D01*
X064748Y008547D01*
X064590Y008704D01*
X064384Y008790D01*
X064162Y008790D01*
X063956Y008704D01*
X063798Y008547D01*
X063713Y008341D01*
X063713Y008118D01*
X063798Y007912D01*
X063863Y007848D01*
X063863Y007212D01*
X063798Y007147D01*
X063713Y006941D01*
X063713Y006718D01*
X063798Y006512D01*
X063714Y006716D02*
X059733Y006716D01*
X059640Y006955D02*
X063719Y006955D01*
X063845Y007193D02*
X059583Y007193D01*
X059583Y007432D02*
X063863Y007432D01*
X063863Y007670D02*
X059583Y007670D01*
X059644Y007909D02*
X063802Y007909D01*
X063713Y008147D02*
X059733Y008147D01*
X059714Y008386D02*
X063732Y008386D01*
X063876Y008624D02*
X059570Y008624D01*
X058776Y008624D02*
X047018Y008624D01*
X046780Y008386D02*
X058632Y008386D01*
X058613Y008147D02*
X046541Y008147D01*
X046303Y007909D02*
X058702Y007909D01*
X058763Y007670D02*
X047924Y007670D01*
X047948Y007647D02*
X047790Y007804D01*
X047584Y007890D01*
X047362Y007890D01*
X047156Y007804D01*
X046998Y007647D01*
X046913Y007441D01*
X046913Y007420D01*
X044983Y005490D01*
X044705Y005490D01*
X044690Y005504D01*
X044484Y005590D01*
X044262Y005590D01*
X044056Y005504D01*
X043898Y005347D01*
X043813Y005141D01*
X043813Y004918D01*
X043898Y004712D01*
X044056Y004555D01*
X044262Y004470D01*
X044484Y004470D01*
X044690Y004555D01*
X044705Y004570D01*
X045364Y004570D01*
X045633Y004839D01*
X047564Y006770D01*
X047584Y006770D01*
X047790Y006855D01*
X047948Y007012D01*
X048033Y007218D01*
X048033Y007441D01*
X047948Y007647D01*
X048033Y007432D02*
X058763Y007432D01*
X058763Y007193D02*
X048023Y007193D01*
X047890Y006955D02*
X058706Y006955D01*
X058613Y006716D02*
X047510Y006716D01*
X047272Y006478D02*
X058630Y006478D01*
X058772Y006239D02*
X051901Y006239D01*
X051876Y006250D02*
X051470Y006250D01*
X051095Y006094D01*
X050808Y005807D01*
X050653Y005432D01*
X050653Y005027D01*
X050808Y004652D01*
X051095Y004365D01*
X051470Y004210D01*
X051876Y004210D01*
X052251Y004365D01*
X052538Y004652D01*
X052693Y005027D01*
X052693Y005432D01*
X052538Y005807D01*
X052251Y006094D01*
X051876Y006250D01*
X051445Y006239D02*
X047033Y006239D01*
X046794Y006000D02*
X051001Y006000D01*
X050790Y005762D02*
X046556Y005762D01*
X046317Y005523D02*
X050691Y005523D01*
X050653Y005285D02*
X046079Y005285D01*
X045840Y005046D02*
X050653Y005046D01*
X050744Y004808D02*
X045602Y004808D01*
X045016Y005523D02*
X044644Y005523D01*
X044684Y005970D02*
X044890Y006055D01*
X045048Y006212D01*
X045133Y006418D01*
X045133Y006641D01*
X045053Y006834D01*
X045053Y008028D01*
X045028Y008054D01*
X044948Y008247D01*
X044790Y008404D01*
X044584Y008490D01*
X044362Y008490D01*
X044156Y008404D01*
X043998Y008247D01*
X043913Y008041D01*
X043913Y007818D01*
X043998Y007612D01*
X044093Y007518D01*
X044093Y006834D01*
X044013Y006641D01*
X044013Y006418D01*
X044098Y006212D01*
X044256Y006055D01*
X044462Y005970D01*
X044684Y005970D01*
X044759Y006000D02*
X045493Y006000D01*
X045255Y005762D02*
X041733Y005762D01*
X041733Y005841D02*
X041648Y006047D01*
X041490Y006204D01*
X041284Y006290D01*
X041062Y006290D01*
X040856Y006204D01*
X040698Y006047D01*
X040613Y005841D01*
X040613Y005820D01*
X040183Y005390D01*
X036205Y005390D01*
X036190Y005404D01*
X035984Y005490D01*
X035762Y005490D01*
X035556Y005404D01*
X035398Y005247D01*
X035313Y005041D01*
X035313Y004818D01*
X035398Y004612D01*
X035556Y004455D01*
X035762Y004370D01*
X035984Y004370D01*
X036190Y004455D01*
X036205Y004470D01*
X040183Y004470D01*
X040564Y004470D01*
X041264Y005170D01*
X041284Y005170D01*
X041490Y005255D01*
X041648Y005412D01*
X041733Y005618D01*
X041733Y005841D01*
X041667Y006000D02*
X044387Y006000D01*
X044087Y006239D02*
X041407Y006239D01*
X041384Y006470D02*
X041590Y006555D01*
X041605Y006570D01*
X041764Y006570D01*
X043753Y008559D01*
X043753Y008838D01*
X043948Y009033D01*
X043948Y010166D01*
X043564Y010550D01*
X043022Y010550D01*
X042793Y010321D01*
X042564Y010550D01*
X042022Y010550D01*
X041913Y010441D01*
X041913Y010459D01*
X041843Y010530D01*
X040643Y010530D01*
X040573Y010459D01*
X040573Y008660D01*
X040643Y008590D01*
X041843Y008590D01*
X041913Y008660D01*
X041913Y008758D01*
X042022Y008649D01*
X042542Y008649D01*
X041454Y007561D01*
X041384Y007590D01*
X041162Y007590D01*
X040956Y007504D01*
X040798Y007347D01*
X040713Y007141D01*
X040713Y006918D01*
X040798Y006712D01*
X040956Y006555D01*
X041162Y006470D01*
X041384Y006470D01*
X041404Y006478D02*
X044013Y006478D01*
X044044Y006716D02*
X041910Y006716D01*
X042149Y006955D02*
X044093Y006955D01*
X044093Y007193D02*
X042387Y007193D01*
X042626Y007432D02*
X044093Y007432D01*
X043974Y007670D02*
X042864Y007670D01*
X043103Y007909D02*
X043913Y007909D01*
X043957Y008147D02*
X043341Y008147D01*
X043580Y008386D02*
X044137Y008386D01*
X043753Y008624D02*
X045717Y008624D01*
X045583Y008490D02*
X045562Y008490D01*
X045356Y008404D01*
X045198Y008247D01*
X045113Y008041D01*
X045113Y007818D01*
X045198Y007612D01*
X045356Y007455D01*
X045562Y007370D01*
X045784Y007370D01*
X045990Y007455D01*
X046148Y007612D01*
X046233Y007818D01*
X046233Y007839D01*
X047534Y009140D01*
X047538Y009140D01*
X047538Y009033D01*
X047922Y008649D01*
X048464Y008649D01*
X048693Y008878D01*
X048922Y008649D01*
X049464Y008649D01*
X049693Y008878D01*
X049922Y008649D01*
X050464Y008649D01*
X050848Y009033D01*
X050848Y010166D01*
X050464Y010550D01*
X049922Y010550D01*
X049693Y010321D01*
X049464Y010550D01*
X048922Y010550D01*
X048693Y010321D01*
X048464Y010550D01*
X047922Y010550D01*
X047538Y010166D01*
X047538Y010060D01*
X047534Y010060D01*
X047153Y010060D01*
X045583Y008490D01*
X045337Y008386D02*
X044809Y008386D01*
X044989Y008147D02*
X045157Y008147D01*
X045113Y007909D02*
X045053Y007909D01*
X045053Y007670D02*
X045174Y007670D01*
X045053Y007432D02*
X045412Y007432D01*
X045053Y007193D02*
X046686Y007193D01*
X046913Y007432D02*
X045934Y007432D01*
X046172Y007670D02*
X047022Y007670D01*
X046448Y006955D02*
X045053Y006955D01*
X045102Y006716D02*
X046209Y006716D01*
X045971Y006478D02*
X045133Y006478D01*
X045059Y006239D02*
X045732Y006239D01*
X044573Y006530D02*
X044573Y007830D01*
X044473Y007930D01*
X043778Y008863D02*
X045956Y008863D01*
X046194Y009102D02*
X043948Y009102D01*
X043948Y009340D02*
X046433Y009340D01*
X046672Y009579D02*
X043948Y009579D01*
X043948Y009817D02*
X046910Y009817D01*
X047149Y010056D02*
X043948Y010056D01*
X043820Y010294D02*
X047666Y010294D01*
X047904Y010533D02*
X043582Y010533D01*
X043004Y010533D02*
X042582Y010533D01*
X042004Y010533D02*
X036853Y010533D01*
X036853Y010419D02*
X036853Y010800D01*
X036633Y011020D01*
X036364Y011290D01*
X032005Y011290D01*
X031990Y011304D01*
X031784Y011390D01*
X031562Y011390D01*
X031356Y011304D01*
X031198Y011147D01*
X031113Y010941D01*
X031113Y010718D01*
X031198Y010512D01*
X031356Y010355D01*
X031562Y010270D01*
X031784Y010270D01*
X031990Y010355D01*
X032005Y010370D01*
X033673Y010370D01*
X033673Y008660D01*
X033743Y008590D01*
X034913Y008590D01*
X034913Y008420D01*
X034283Y007790D01*
X034005Y007790D01*
X033990Y007804D01*
X033784Y007890D01*
X033562Y007890D01*
X033356Y007804D01*
X033198Y007647D01*
X033113Y007441D01*
X033113Y007218D01*
X033198Y007012D01*
X033356Y006855D01*
X033562Y006770D01*
X033784Y006770D01*
X033990Y006855D01*
X034005Y006870D01*
X034283Y006870D01*
X034664Y006870D01*
X035564Y007770D01*
X035833Y008039D01*
X035833Y008818D01*
X035893Y008878D01*
X036122Y008649D01*
X036664Y008649D01*
X037048Y009033D01*
X037048Y010166D01*
X036853Y010361D01*
X036853Y010419D01*
X036920Y010294D02*
X040573Y010294D01*
X040573Y010056D02*
X037048Y010056D01*
X037048Y009817D02*
X040573Y009817D01*
X040573Y009579D02*
X037048Y009579D01*
X037048Y009340D02*
X040573Y009340D01*
X040573Y009102D02*
X037048Y009102D01*
X036878Y008863D02*
X040573Y008863D01*
X040609Y008624D02*
X035833Y008624D01*
X035833Y008386D02*
X042279Y008386D01*
X042517Y008624D02*
X041878Y008624D01*
X042040Y008147D02*
X035833Y008147D01*
X035703Y007909D02*
X041802Y007909D01*
X041563Y007670D02*
X035464Y007670D01*
X035226Y007432D02*
X040883Y007432D01*
X040735Y007193D02*
X034987Y007193D01*
X034749Y006955D02*
X040713Y006955D01*
X040797Y006716D02*
X032933Y006716D01*
X032933Y006741D02*
X032848Y006947D01*
X032833Y006962D01*
X032833Y008798D01*
X032948Y008912D01*
X033033Y009118D01*
X033033Y009341D01*
X032948Y009547D01*
X032790Y009704D01*
X032584Y009790D01*
X032362Y009790D01*
X032156Y009704D01*
X031998Y009547D01*
X031913Y009341D01*
X031913Y009320D01*
X031913Y008939D01*
X031913Y006962D01*
X031898Y006947D01*
X031813Y006741D01*
X031813Y006518D01*
X031898Y006312D01*
X032056Y006155D01*
X032262Y006070D01*
X032484Y006070D01*
X032690Y006155D01*
X032848Y006312D01*
X032933Y006518D01*
X032933Y006741D01*
X032840Y006955D02*
X033256Y006955D01*
X033123Y007193D02*
X032833Y007193D01*
X032833Y007432D02*
X033113Y007432D01*
X033222Y007670D02*
X032833Y007670D01*
X032833Y007909D02*
X034402Y007909D01*
X034640Y008147D02*
X032833Y008147D01*
X032833Y008386D02*
X034879Y008386D01*
X034473Y008430D02*
X034393Y008510D01*
X034393Y009600D01*
X033673Y009579D02*
X032916Y009579D01*
X033033Y009340D02*
X033673Y009340D01*
X033673Y009102D02*
X033026Y009102D01*
X032898Y008863D02*
X033673Y008863D01*
X033709Y008624D02*
X032833Y008624D01*
X031913Y008624D02*
X021035Y008624D01*
X021029Y008631D02*
X021348Y008950D01*
X021348Y009509D01*
X021128Y009730D01*
X021348Y009950D01*
X021348Y010509D01*
X021128Y010730D01*
X021334Y010936D01*
X021700Y010570D01*
X022846Y010570D01*
X023046Y010770D01*
X023083Y010770D01*
X023383Y010470D01*
X023764Y010470D01*
X026364Y010470D01*
X026633Y010739D01*
X027003Y011109D01*
X027003Y011400D01*
X027394Y011400D01*
X027663Y011669D01*
X028033Y012039D01*
X028033Y012420D01*
X028033Y014298D01*
X028048Y014312D01*
X028133Y014518D01*
X028133Y014741D01*
X028048Y014947D01*
X027890Y015104D01*
X027684Y015190D01*
X027462Y015190D01*
X027256Y015104D01*
X027098Y014947D01*
X027013Y014741D01*
X027013Y014518D01*
X027098Y014312D01*
X027113Y014298D01*
X027113Y012420D01*
X027013Y012320D01*
X026875Y012320D01*
X026835Y012360D01*
X027103Y012628D01*
X027103Y013092D01*
X026775Y013420D01*
X026311Y013420D01*
X025983Y013092D01*
X025983Y012628D01*
X026251Y012360D01*
X026043Y012151D01*
X025775Y012420D01*
X025311Y012420D01*
X025043Y012151D01*
X024835Y012360D01*
X025103Y012628D01*
X025103Y013092D01*
X024775Y013420D01*
X024311Y013420D01*
X023983Y013092D01*
X023983Y012628D01*
X024251Y012360D01*
X023983Y012092D01*
X023983Y011628D01*
X024221Y011390D01*
X023764Y011390D01*
X023733Y011420D01*
X023464Y011690D01*
X023046Y011690D01*
X022846Y011890D01*
X021700Y011890D01*
X021334Y011524D01*
X021128Y011730D01*
X021348Y011950D01*
X021348Y012509D01*
X021029Y012829D01*
X021208Y013008D01*
X021208Y013229D01*
X020673Y013229D01*
X020138Y013229D01*
X019673Y013229D01*
X019208Y013229D01*
X018673Y013229D01*
X018208Y013229D01*
X017673Y013229D01*
X017138Y013229D01*
X016673Y013229D01*
X016208Y013229D01*
X015673Y013229D01*
X015138Y013229D01*
X014673Y013229D01*
X014208Y013229D01*
X013673Y013229D01*
X013138Y013229D01*
X012673Y013229D01*
X012138Y013229D01*
X011673Y013229D01*
X011208Y013229D01*
X010673Y013229D01*
X010208Y013229D01*
X009673Y013229D01*
X009138Y013229D01*
X009138Y013008D01*
X009318Y012829D01*
X008998Y012509D01*
X008998Y011950D01*
X009219Y011730D01*
X008998Y011509D01*
X008998Y010950D01*
X009219Y010730D01*
X008998Y010509D01*
X008998Y009950D01*
X009219Y009730D01*
X008998Y009509D01*
X008998Y008950D01*
X009318Y008631D01*
X009138Y008451D01*
X009138Y008230D01*
X009673Y008230D01*
X009673Y008229D01*
X009138Y008229D01*
X009138Y008008D01*
X009297Y007850D01*
X009123Y007850D01*
X009053Y007779D01*
X009053Y007180D01*
X009123Y007110D01*
X016132Y007110D01*
X016095Y007094D01*
X015808Y006807D01*
X015653Y006432D01*
X015653Y006027D01*
X015808Y005652D01*
X016095Y005365D01*
X016470Y005210D01*
X016876Y005210D01*
X017251Y005365D01*
X017538Y005652D01*
X017693Y006027D01*
X017693Y006432D01*
X017538Y006807D01*
X017251Y007094D01*
X017214Y007110D01*
X021223Y007110D01*
X021293Y007180D01*
X021293Y007779D01*
X021223Y007850D01*
X021050Y007850D01*
X021208Y008008D01*
X021208Y008229D01*
X020673Y008229D01*
X020208Y008229D01*
X019673Y008229D01*
X019208Y008229D01*
X018673Y008229D01*
X018138Y008229D01*
X017673Y008229D01*
X017208Y008229D01*
X016673Y008229D01*
X016208Y008229D01*
X015673Y008229D01*
X015138Y008229D01*
X014673Y008229D01*
X014138Y008229D01*
X013673Y008229D01*
X013138Y008229D01*
X012673Y008229D01*
X012138Y008229D01*
X011673Y008229D01*
X011138Y008229D01*
X010673Y008229D01*
X010208Y008229D01*
X009673Y008229D01*
X009673Y008230D01*
X010208Y008230D01*
X010673Y008230D01*
X010673Y008229D01*
X010673Y008230D01*
X011138Y008230D01*
X011673Y008230D01*
X011673Y008229D01*
X011673Y008230D01*
X012208Y008230D01*
X012673Y008230D01*
X012673Y008229D01*
X012673Y008230D01*
X013138Y008230D01*
X013673Y008230D01*
X013673Y008229D01*
X013673Y008230D01*
X014138Y008230D01*
X014673Y008230D01*
X014673Y008229D01*
X014673Y008230D01*
X015138Y008230D01*
X015673Y008230D01*
X015673Y008229D01*
X015673Y008230D01*
X016138Y008230D01*
X016673Y008230D01*
X016673Y008229D01*
X016673Y008230D01*
X017208Y008230D01*
X017673Y008230D01*
X017673Y008229D01*
X017673Y008230D01*
X018138Y008230D01*
X018673Y008230D01*
X018673Y008229D01*
X018673Y008230D01*
X019138Y008230D01*
X019673Y008230D01*
X019673Y008229D01*
X019673Y008230D01*
X020208Y008230D01*
X020673Y008230D01*
X020673Y008229D01*
X020673Y008230D01*
X021208Y008230D01*
X021208Y008451D01*
X021029Y008631D01*
X021208Y008386D02*
X031913Y008386D01*
X031913Y008147D02*
X021208Y008147D01*
X021109Y007909D02*
X031913Y007909D01*
X031913Y007670D02*
X021293Y007670D01*
X021293Y007432D02*
X031913Y007432D01*
X031913Y007193D02*
X021293Y007193D01*
X021261Y008863D02*
X031913Y008863D01*
X031913Y009102D02*
X021348Y009102D01*
X021348Y009340D02*
X031913Y009340D01*
X032030Y009579D02*
X021279Y009579D01*
X021215Y009817D02*
X033673Y009817D01*
X033673Y010056D02*
X021348Y010056D01*
X021348Y010294D02*
X031502Y010294D01*
X031844Y010294D02*
X033673Y010294D01*
X033824Y011540D02*
X034125Y011664D01*
X034356Y011895D01*
X034481Y012196D01*
X034481Y012523D01*
X034356Y012824D01*
X034125Y013055D01*
X033824Y013180D01*
X033498Y013180D01*
X033196Y013055D01*
X032966Y012824D01*
X032841Y012523D01*
X032841Y012196D01*
X032966Y011895D01*
X033196Y011664D01*
X033498Y011540D01*
X033824Y011540D01*
X034186Y011726D02*
X036600Y011726D01*
X036661Y011664D02*
X036962Y011540D01*
X037288Y011540D01*
X037590Y011664D01*
X037820Y011895D01*
X037945Y012196D01*
X037945Y012523D01*
X037820Y012824D01*
X037590Y013055D01*
X037288Y013180D01*
X036962Y013180D01*
X036661Y013055D01*
X036430Y012824D01*
X036305Y012523D01*
X036305Y012196D01*
X036430Y011895D01*
X036661Y011664D01*
X036402Y011964D02*
X034384Y011964D01*
X034481Y012203D02*
X036305Y012203D01*
X036305Y012441D02*
X034481Y012441D01*
X034416Y012680D02*
X036370Y012680D01*
X036524Y012918D02*
X034262Y012918D01*
X033879Y013157D02*
X036907Y013157D01*
X037344Y013157D02*
X038608Y013157D01*
X038598Y013147D02*
X038513Y012941D01*
X038513Y012718D01*
X038598Y012512D01*
X038756Y012355D01*
X038962Y012270D01*
X039184Y012270D01*
X039390Y012355D01*
X039548Y012512D01*
X039613Y012670D01*
X039802Y012670D01*
X039741Y012523D01*
X039741Y012196D01*
X039866Y011895D01*
X040096Y011664D01*
X040398Y011540D01*
X040724Y011540D01*
X041025Y011664D01*
X041256Y011895D01*
X041381Y012196D01*
X041381Y012523D01*
X041256Y012824D01*
X041025Y013055D01*
X040724Y013180D01*
X040398Y013180D01*
X040356Y013162D01*
X040564Y013370D01*
X041083Y013370D01*
X041464Y013370D01*
X042464Y014370D01*
X042733Y014639D01*
X042733Y016239D01*
X042733Y016620D01*
X042433Y016920D01*
X042164Y017190D01*
X041705Y017190D01*
X041690Y017204D01*
X041484Y017290D01*
X041262Y017290D01*
X041056Y017204D01*
X040898Y017047D01*
X040813Y016841D01*
X040813Y016618D01*
X040898Y016412D01*
X041056Y016255D01*
X041262Y016170D01*
X041484Y016170D01*
X041690Y016255D01*
X041705Y016270D01*
X041783Y016270D01*
X041813Y016239D01*
X041813Y015020D01*
X041083Y014290D01*
X040183Y014290D01*
X039913Y014020D01*
X039483Y013590D01*
X039183Y013590D01*
X038983Y013390D01*
X038962Y013390D01*
X038756Y013304D01*
X038598Y013147D01*
X038513Y012918D02*
X037726Y012918D01*
X037880Y012680D02*
X038529Y012680D01*
X038670Y012441D02*
X037945Y012441D01*
X037945Y012203D02*
X039741Y012203D01*
X039741Y012441D02*
X039477Y012441D01*
X039837Y011964D02*
X037849Y011964D01*
X037651Y011726D02*
X040035Y011726D01*
X041086Y011726D02*
X043500Y011726D01*
X043561Y011664D02*
X043862Y011540D01*
X044188Y011540D01*
X044490Y011664D01*
X044720Y011895D01*
X044845Y012196D01*
X044845Y012523D01*
X044720Y012824D01*
X044490Y013055D01*
X044188Y013180D01*
X043862Y013180D01*
X043561Y013055D01*
X043330Y012824D01*
X043205Y012523D01*
X043205Y012196D01*
X043330Y011895D01*
X043561Y011664D01*
X043302Y011964D02*
X041284Y011964D01*
X041381Y012203D02*
X043205Y012203D01*
X043205Y012441D02*
X041381Y012441D01*
X041316Y012680D02*
X043270Y012680D01*
X043424Y012918D02*
X041162Y012918D01*
X040779Y013157D02*
X043807Y013157D01*
X044244Y013157D02*
X047243Y013157D01*
X047298Y013180D02*
X046996Y013055D01*
X046766Y012824D01*
X046641Y012523D01*
X046641Y012196D01*
X046766Y011895D01*
X046996Y011664D01*
X047298Y011540D01*
X047624Y011540D01*
X047925Y011664D01*
X048156Y011895D01*
X048281Y012196D01*
X048281Y012523D01*
X048156Y012824D01*
X047925Y013055D01*
X047624Y013180D01*
X047298Y013180D01*
X047679Y013157D02*
X050707Y013157D01*
X050762Y013180D02*
X050461Y013055D01*
X050230Y012824D01*
X050105Y012523D01*
X050105Y012196D01*
X050230Y011895D01*
X050461Y011664D01*
X050762Y011540D01*
X051088Y011540D01*
X051390Y011664D01*
X051620Y011895D01*
X051745Y012196D01*
X051745Y012523D01*
X051620Y012824D01*
X051390Y013055D01*
X051088Y013180D01*
X050762Y013180D01*
X051144Y013157D02*
X101353Y013157D01*
X101353Y013395D02*
X041489Y013395D01*
X041728Y013634D02*
X101353Y013634D01*
X101353Y013872D02*
X041966Y013872D01*
X042205Y014111D02*
X101353Y014111D01*
X101353Y014349D02*
X042443Y014349D01*
X042464Y014370D02*
X042464Y014370D01*
X042682Y014588D02*
X101353Y014588D01*
X101353Y014827D02*
X042733Y014827D01*
X042733Y015065D02*
X101353Y015065D01*
X101353Y015304D02*
X042733Y015304D01*
X042733Y015542D02*
X101353Y015542D01*
X101353Y015781D02*
X096464Y015781D01*
X096433Y015750D02*
X096503Y015820D01*
X096503Y018699D01*
X096433Y018770D01*
X094533Y018770D01*
X094463Y018699D01*
X094463Y015820D01*
X094533Y015750D01*
X096433Y015750D01*
X096503Y016019D02*
X101353Y016019D01*
X101353Y016258D02*
X096503Y016258D01*
X096503Y016496D02*
X101353Y016496D01*
X101353Y016735D02*
X096503Y016735D01*
X096503Y016973D02*
X101353Y016973D01*
X101353Y017212D02*
X096503Y017212D01*
X096503Y017451D02*
X101353Y017451D01*
X101353Y017689D02*
X096503Y017689D01*
X096503Y017928D02*
X101353Y017928D01*
X101353Y018166D02*
X096503Y018166D01*
X096503Y018405D02*
X101353Y018405D01*
X101353Y018643D02*
X096503Y018643D01*
X095565Y018938D02*
X095565Y017284D01*
X094463Y017212D02*
X091453Y017212D01*
X091453Y017451D02*
X094463Y017451D01*
X094463Y017689D02*
X091453Y017689D01*
X091453Y017928D02*
X094463Y017928D01*
X094463Y018166D02*
X091453Y018166D01*
X091453Y018405D02*
X094463Y018405D01*
X094463Y018643D02*
X091453Y018643D01*
X091453Y018699D02*
X091383Y018770D01*
X089483Y018770D01*
X089413Y018699D01*
X089413Y015820D01*
X089483Y015750D01*
X091383Y015750D01*
X091453Y015820D01*
X091453Y018699D01*
X090505Y018898D02*
X090505Y017284D01*
X091453Y016973D02*
X094463Y016973D01*
X094463Y016735D02*
X091453Y016735D01*
X091453Y016496D02*
X094463Y016496D01*
X094463Y016258D02*
X091453Y016258D01*
X091453Y016019D02*
X094463Y016019D01*
X094502Y015781D02*
X091414Y015781D01*
X089452Y015781D02*
X086364Y015781D01*
X086333Y015750D02*
X086403Y015820D01*
X086403Y018699D01*
X086333Y018770D01*
X084433Y018770D01*
X084363Y018699D01*
X084363Y015820D01*
X084433Y015750D01*
X086333Y015750D01*
X086403Y016019D02*
X089413Y016019D01*
X089413Y016258D02*
X086403Y016258D01*
X086403Y016496D02*
X089413Y016496D01*
X089413Y016735D02*
X086403Y016735D01*
X086403Y016973D02*
X089413Y016973D01*
X089413Y017212D02*
X086403Y017212D01*
X086403Y017451D02*
X089413Y017451D01*
X089413Y017689D02*
X086403Y017689D01*
X086403Y017928D02*
X089413Y017928D01*
X089413Y018166D02*
X086403Y018166D01*
X086403Y018405D02*
X089413Y018405D01*
X089413Y018643D02*
X086403Y018643D01*
X085445Y018858D02*
X085173Y019130D01*
X085445Y018858D02*
X085445Y017284D01*
X084363Y017212D02*
X081353Y017212D01*
X081353Y017451D02*
X084363Y017451D01*
X084363Y017689D02*
X081353Y017689D01*
X081353Y017928D02*
X084363Y017928D01*
X084363Y018166D02*
X081353Y018166D01*
X081353Y018405D02*
X084363Y018405D01*
X084363Y018643D02*
X081353Y018643D01*
X081353Y018699D02*
X081283Y018770D01*
X079383Y018770D01*
X079313Y018699D01*
X079313Y015820D01*
X079383Y015750D01*
X081283Y015750D01*
X081353Y015820D01*
X081353Y018699D01*
X080385Y018918D02*
X080385Y017284D01*
X081353Y016973D02*
X084363Y016973D01*
X084363Y016735D02*
X081353Y016735D01*
X081353Y016496D02*
X084363Y016496D01*
X084363Y016258D02*
X081353Y016258D01*
X081353Y016019D02*
X084363Y016019D01*
X084402Y015781D02*
X081314Y015781D01*
X079352Y015781D02*
X076264Y015781D01*
X076233Y015750D02*
X076303Y015820D01*
X076303Y018699D01*
X076233Y018770D01*
X074333Y018770D01*
X074263Y018699D01*
X074263Y015820D01*
X074333Y015750D01*
X076233Y015750D01*
X076303Y016019D02*
X079313Y016019D01*
X079313Y016258D02*
X076303Y016258D01*
X076303Y016496D02*
X079313Y016496D01*
X079313Y016735D02*
X076303Y016735D01*
X076303Y016973D02*
X079313Y016973D01*
X079313Y017212D02*
X076303Y017212D01*
X076303Y017451D02*
X079313Y017451D01*
X079313Y017689D02*
X076303Y017689D01*
X076303Y017928D02*
X079313Y017928D01*
X079313Y018166D02*
X076303Y018166D01*
X076303Y018405D02*
X079313Y018405D01*
X079313Y018643D02*
X076303Y018643D01*
X075325Y018978D02*
X075325Y017284D01*
X074263Y017212D02*
X071253Y017212D01*
X071253Y017451D02*
X074263Y017451D01*
X074263Y017689D02*
X071253Y017689D01*
X071253Y017928D02*
X074263Y017928D01*
X074263Y018166D02*
X071253Y018166D01*
X071253Y018405D02*
X074263Y018405D01*
X074263Y018643D02*
X071253Y018643D01*
X071253Y018699D02*
X071183Y018770D01*
X069283Y018770D01*
X069213Y018699D01*
X069213Y015820D01*
X069283Y015750D01*
X071183Y015750D01*
X071253Y015820D01*
X071253Y018699D01*
X070265Y018838D02*
X070265Y017284D01*
X071253Y016973D02*
X074263Y016973D01*
X074263Y016735D02*
X071253Y016735D01*
X071253Y016496D02*
X074263Y016496D01*
X074263Y016258D02*
X071253Y016258D01*
X071253Y016019D02*
X074263Y016019D01*
X074302Y015781D02*
X071214Y015781D01*
X069252Y015781D02*
X066164Y015781D01*
X066133Y015750D02*
X066203Y015820D01*
X066203Y018699D01*
X066133Y018770D01*
X064233Y018770D01*
X064163Y018699D01*
X064163Y015820D01*
X064233Y015750D01*
X066133Y015750D01*
X066203Y016019D02*
X069213Y016019D01*
X069213Y016258D02*
X066203Y016258D01*
X066203Y016496D02*
X069213Y016496D01*
X069213Y016735D02*
X066203Y016735D01*
X066203Y016973D02*
X069213Y016973D01*
X069213Y017212D02*
X066203Y017212D01*
X066203Y017451D02*
X069213Y017451D01*
X069213Y017689D02*
X066203Y017689D01*
X066203Y017928D02*
X069213Y017928D01*
X069213Y018166D02*
X066203Y018166D01*
X066203Y018405D02*
X069213Y018405D01*
X069213Y018643D02*
X066203Y018643D01*
X065205Y018998D02*
X065205Y017284D01*
X064163Y017212D02*
X061153Y017212D01*
X061153Y017451D02*
X064163Y017451D01*
X064163Y017689D02*
X061153Y017689D01*
X061153Y017928D02*
X064163Y017928D01*
X064163Y018166D02*
X061153Y018166D01*
X061153Y018405D02*
X064163Y018405D01*
X064163Y018643D02*
X061153Y018643D01*
X061153Y018699D02*
X061083Y018770D01*
X059183Y018770D01*
X059113Y018699D01*
X059113Y015820D01*
X059183Y015750D01*
X061083Y015750D01*
X061153Y015820D01*
X061153Y018699D01*
X060145Y018958D02*
X060145Y017284D01*
X059113Y017212D02*
X041672Y017212D01*
X041074Y017212D02*
X035547Y017212D01*
X035490Y017155D02*
X035648Y017312D01*
X035719Y017484D01*
X035890Y017555D01*
X036048Y017712D01*
X036119Y017884D01*
X036290Y017955D01*
X036448Y018112D01*
X036492Y018220D01*
X042643Y018220D01*
X042883Y018460D01*
X050367Y025944D01*
X050456Y025855D01*
X050662Y025770D01*
X050884Y025770D01*
X051090Y025855D01*
X051155Y025920D01*
X052491Y025920D01*
X052556Y025855D01*
X052762Y025770D01*
X052984Y025770D01*
X053190Y025855D01*
X053348Y026012D01*
X053433Y026218D01*
X053433Y026441D01*
X053348Y026647D01*
X053190Y026804D01*
X052984Y026890D01*
X052762Y026890D01*
X052556Y026804D01*
X052491Y026740D01*
X051163Y026740D01*
X052483Y028060D01*
X052483Y028399D01*
X052483Y033860D01*
X053693Y035070D01*
X053784Y035070D01*
X053990Y035155D01*
X054148Y035312D01*
X054233Y035518D01*
X054233Y035741D01*
X054148Y035947D01*
X053990Y036104D01*
X053784Y036190D01*
X053605Y036190D01*
X053490Y036304D01*
X053284Y036390D01*
X053105Y036390D01*
X052990Y036504D01*
X052784Y036590D01*
X052605Y036590D01*
X052490Y036704D01*
X052284Y036790D01*
X052062Y036790D01*
X051856Y036704D01*
X051698Y036547D01*
X051661Y036458D01*
X051584Y036490D01*
X051362Y036490D01*
X051156Y036404D01*
X050998Y036247D01*
X050933Y036090D01*
X050862Y036090D01*
X050656Y036004D01*
X050498Y035847D01*
X050433Y035690D01*
X050362Y035690D01*
X050156Y035604D01*
X049998Y035447D01*
X049933Y035290D01*
X049862Y035290D01*
X049656Y035204D01*
X049498Y035047D01*
X049433Y034890D01*
X049362Y034890D01*
X049156Y034804D01*
X048998Y034647D01*
X048933Y034490D01*
X048862Y034490D01*
X048656Y034404D01*
X048498Y034247D01*
X048433Y034090D01*
X048362Y034090D01*
X048156Y034004D01*
X047998Y033847D01*
X047933Y033690D01*
X047862Y033690D01*
X047656Y033604D01*
X047498Y033447D01*
X047413Y033241D01*
X047413Y033018D01*
X047498Y032812D01*
X047656Y032655D01*
X047862Y032570D01*
X048084Y032570D01*
X048290Y032655D01*
X048355Y032720D01*
X049463Y032720D01*
X049463Y029499D01*
X042203Y022240D01*
X036203Y022240D01*
X035963Y021999D01*
X032763Y018799D01*
X032763Y018460D01*
X032763Y016012D01*
X032698Y015947D01*
X032613Y015741D01*
X032613Y015518D01*
X032698Y015312D01*
X032856Y015155D01*
X033062Y015070D01*
X033284Y015070D01*
X033490Y015155D01*
X033648Y015312D01*
X033719Y015484D01*
X033890Y015555D01*
X034048Y015712D01*
X034119Y015884D01*
X034290Y015955D01*
X034448Y016112D01*
X034519Y016284D01*
X034690Y016355D01*
X034848Y016512D01*
X034919Y016684D01*
X035090Y016755D01*
X035248Y016912D01*
X035319Y017084D01*
X035490Y017155D01*
X035273Y016973D02*
X040868Y016973D01*
X040813Y016735D02*
X035042Y016735D01*
X034832Y016496D02*
X040864Y016496D01*
X041053Y016258D02*
X034508Y016258D01*
X034355Y016019D02*
X040892Y016019D01*
X040869Y016010D02*
X040474Y016010D01*
X039074Y014610D01*
X038378Y014610D01*
X038184Y014690D01*
X037962Y014690D01*
X037756Y014604D01*
X037598Y014447D01*
X037513Y014241D01*
X037513Y014018D01*
X037598Y013812D01*
X037756Y013655D01*
X037962Y013570D01*
X038184Y013570D01*
X038378Y013650D01*
X039074Y013650D01*
X039472Y013650D01*
X040871Y015049D01*
X041062Y014970D01*
X041284Y014970D01*
X041490Y015055D01*
X041648Y015212D01*
X041733Y015418D01*
X041733Y015641D01*
X041648Y015847D01*
X041490Y016004D01*
X041284Y016090D01*
X041062Y016090D01*
X040869Y016010D01*
X040673Y015530D02*
X039273Y014130D01*
X038073Y014130D01*
X037558Y014349D02*
X028063Y014349D01*
X028033Y014111D02*
X037513Y014111D01*
X037573Y013872D02*
X028033Y013872D01*
X028033Y013634D02*
X037806Y013634D01*
X038340Y013634D02*
X039527Y013634D01*
X039695Y013872D02*
X039765Y013872D01*
X039933Y014111D02*
X040004Y014111D01*
X040172Y014349D02*
X041142Y014349D01*
X041381Y014588D02*
X040410Y014588D01*
X040649Y014827D02*
X041620Y014827D01*
X041501Y015065D02*
X041813Y015065D01*
X041813Y015304D02*
X041686Y015304D01*
X041733Y015542D02*
X041813Y015542D01*
X041813Y015781D02*
X041675Y015781D01*
X041813Y016019D02*
X041454Y016019D01*
X041693Y016258D02*
X041794Y016258D01*
X042733Y016258D02*
X059113Y016258D01*
X059113Y016496D02*
X042733Y016496D01*
X042618Y016735D02*
X059113Y016735D01*
X059113Y016973D02*
X042380Y016973D01*
X042733Y016019D02*
X059113Y016019D01*
X059152Y015781D02*
X042733Y015781D01*
X041173Y015530D02*
X040673Y015530D01*
X040245Y015781D02*
X034076Y015781D01*
X033860Y015542D02*
X040007Y015542D01*
X039768Y015304D02*
X033639Y015304D01*
X032707Y015304D02*
X021348Y015304D01*
X021348Y015509D02*
X021128Y015730D01*
X021334Y015936D01*
X021700Y015570D01*
X022846Y015570D01*
X023046Y015770D01*
X023364Y015770D01*
X023964Y016370D01*
X027341Y016370D01*
X027356Y016355D01*
X027562Y016270D01*
X027784Y016270D01*
X027990Y016355D01*
X028148Y016512D01*
X028233Y016718D01*
X028233Y016941D01*
X028148Y017147D01*
X027990Y017304D01*
X027784Y017390D01*
X027562Y017390D01*
X027356Y017304D01*
X027341Y017290D01*
X023964Y017290D01*
X023583Y017290D01*
X023014Y016721D01*
X022846Y016890D01*
X021700Y016890D01*
X021334Y016524D01*
X021128Y016730D01*
X021348Y016950D01*
X021348Y017509D01*
X021029Y017829D01*
X021208Y018008D01*
X021208Y018229D01*
X020673Y018229D01*
X020208Y018229D01*
X019673Y018229D01*
X019208Y018229D01*
X018673Y018229D01*
X018138Y018229D01*
X017673Y018229D01*
X017208Y018229D01*
X016673Y018229D01*
X016208Y018229D01*
X015673Y018229D01*
X015138Y018229D01*
X014673Y018229D01*
X014138Y018229D01*
X013673Y018229D01*
X013138Y018229D01*
X012673Y018229D01*
X012138Y018229D01*
X011673Y018229D01*
X011138Y018229D01*
X010673Y018229D01*
X010208Y018229D01*
X009673Y018229D01*
X009138Y018229D01*
X009138Y018008D01*
X009318Y017829D01*
X008998Y017509D01*
X008998Y016950D01*
X009219Y016730D01*
X008998Y016509D01*
X008998Y015950D01*
X009219Y015730D01*
X008998Y015509D01*
X008998Y014950D01*
X009219Y014730D01*
X008998Y014509D01*
X008998Y013950D01*
X009318Y013631D01*
X009138Y013451D01*
X009138Y013230D01*
X009673Y013230D01*
X009673Y013229D01*
X009673Y013230D01*
X010208Y013230D01*
X010673Y013230D01*
X010673Y013229D01*
X010673Y013230D01*
X011208Y013230D01*
X011673Y013230D01*
X011673Y013229D01*
X011673Y013230D01*
X012138Y013230D01*
X012673Y013230D01*
X012673Y013229D01*
X012673Y013230D01*
X013138Y013230D01*
X013673Y013230D01*
X013673Y013229D01*
X013673Y013230D01*
X014208Y013230D01*
X014673Y013230D01*
X014673Y013229D01*
X014673Y013230D01*
X015138Y013230D01*
X015673Y013230D01*
X015673Y013229D01*
X015673Y013230D01*
X016208Y013230D01*
X016673Y013230D01*
X016673Y013229D01*
X016673Y013230D01*
X017138Y013230D01*
X017673Y013230D01*
X017673Y013229D01*
X017673Y013230D01*
X018208Y013230D01*
X018673Y013230D01*
X018673Y013229D01*
X018673Y013230D01*
X019208Y013230D01*
X019673Y013230D01*
X019673Y013229D01*
X019673Y013230D01*
X020138Y013230D01*
X020673Y013230D01*
X020673Y013229D01*
X020673Y013230D01*
X021208Y013230D01*
X021208Y013451D01*
X021029Y013631D01*
X021348Y013950D01*
X021348Y014509D01*
X021128Y014730D01*
X021348Y014950D01*
X021348Y015509D01*
X021315Y015542D02*
X032613Y015542D01*
X032630Y015781D02*
X023375Y015781D01*
X023613Y016019D02*
X032763Y016019D01*
X032763Y016258D02*
X023852Y016258D01*
X023028Y016735D02*
X023001Y016735D01*
X023266Y016973D02*
X021348Y016973D01*
X021348Y017212D02*
X023505Y017212D01*
X021545Y016735D02*
X021133Y016735D01*
X021348Y017451D02*
X032763Y017451D01*
X032763Y017689D02*
X021168Y017689D01*
X021128Y017928D02*
X032763Y017928D01*
X032763Y018166D02*
X021208Y018166D01*
X021208Y018230D02*
X021208Y018451D01*
X021029Y018631D01*
X021348Y018950D01*
X021348Y019509D01*
X020953Y019905D01*
X020393Y019905D01*
X020199Y019710D01*
X020148Y019710D01*
X019953Y019905D01*
X019393Y019905D01*
X019198Y019710D01*
X019148Y019710D01*
X018953Y019905D01*
X018393Y019905D01*
X018198Y019710D01*
X018148Y019710D01*
X017953Y019905D01*
X017393Y019905D01*
X017198Y019710D01*
X017148Y019710D01*
X016953Y019905D01*
X016393Y019905D01*
X016198Y019710D01*
X016148Y019710D01*
X015953Y019905D01*
X015393Y019905D01*
X015198Y019710D01*
X015148Y019710D01*
X014953Y019905D01*
X014393Y019905D01*
X014198Y019710D01*
X014148Y019710D01*
X013953Y019905D01*
X013393Y019905D01*
X013198Y019710D01*
X013148Y019710D01*
X012953Y019905D01*
X012393Y019905D01*
X012198Y019710D01*
X012148Y019710D01*
X011953Y019905D01*
X011393Y019905D01*
X011198Y019710D01*
X011148Y019710D01*
X010953Y019905D01*
X010393Y019905D01*
X010198Y019710D01*
X010148Y019710D01*
X009953Y019905D01*
X009393Y019905D01*
X008998Y019509D01*
X008998Y018950D01*
X009318Y018631D01*
X009138Y018451D01*
X009138Y018230D01*
X009673Y018230D01*
X009673Y018229D01*
X009673Y018230D01*
X010208Y018230D01*
X010673Y018230D01*
X010673Y018229D01*
X010673Y018230D01*
X011138Y018230D01*
X011673Y018230D01*
X011673Y018229D01*
X011673Y018230D01*
X012138Y018230D01*
X012673Y018230D01*
X012673Y018229D01*
X012673Y018230D01*
X013138Y018230D01*
X013673Y018230D01*
X013673Y018229D01*
X013673Y018230D01*
X014138Y018230D01*
X014673Y018230D01*
X014673Y018229D01*
X014673Y018230D01*
X015138Y018230D01*
X015673Y018230D01*
X015673Y018229D01*
X015673Y018230D01*
X016208Y018230D01*
X016673Y018230D01*
X016673Y018229D01*
X016673Y018230D01*
X017208Y018230D01*
X017673Y018230D01*
X017673Y018229D01*
X017673Y018230D01*
X018138Y018230D01*
X018673Y018230D01*
X018673Y018229D01*
X018673Y018230D01*
X019208Y018230D01*
X019673Y018230D01*
X019673Y018229D01*
X019673Y018230D01*
X020208Y018230D01*
X020673Y018230D01*
X020673Y018229D01*
X020673Y018230D01*
X021208Y018230D01*
X021208Y018405D02*
X032763Y018405D01*
X032763Y018643D02*
X021041Y018643D01*
X021280Y018882D02*
X032845Y018882D01*
X033084Y019120D02*
X021348Y019120D01*
X021348Y019359D02*
X033323Y019359D01*
X033561Y019597D02*
X021260Y019597D01*
X021021Y019836D02*
X033800Y019836D01*
X034038Y020075D02*
X006261Y020075D01*
X006333Y020003D02*
X006106Y020230D01*
X006196Y020320D01*
X006303Y020320D01*
X006643Y020320D01*
X007843Y021520D01*
X009413Y021520D01*
X009413Y021318D01*
X009498Y021112D01*
X009656Y020955D01*
X009862Y020870D01*
X010084Y020870D01*
X010290Y020955D01*
X010355Y021020D01*
X020003Y021020D01*
X020163Y020860D01*
X020403Y020620D01*
X025191Y020620D01*
X025256Y020555D01*
X025462Y020470D01*
X025684Y020470D01*
X025890Y020555D01*
X026048Y020712D01*
X026133Y020918D01*
X026133Y021141D01*
X026055Y021330D01*
X026133Y021518D01*
X026133Y021741D01*
X026048Y021947D01*
X025890Y022104D01*
X025684Y022190D01*
X025683Y022190D01*
X025683Y022348D01*
X025748Y022412D01*
X025833Y022618D01*
X025833Y022841D01*
X025748Y023047D01*
X025590Y023204D01*
X025384Y023290D01*
X025162Y023290D01*
X024956Y023204D01*
X024798Y023047D01*
X024733Y022890D01*
X024662Y022890D01*
X024456Y022804D01*
X024391Y022740D01*
X006703Y022740D01*
X006463Y022499D01*
X006293Y022329D01*
X006293Y023179D01*
X006223Y023250D01*
X006126Y023250D01*
X006333Y023456D01*
X006333Y024003D01*
X006106Y024230D01*
X006196Y024320D01*
X006843Y024320D01*
X007083Y024560D01*
X008443Y025920D01*
X008691Y025920D01*
X008756Y025855D01*
X008962Y025770D01*
X009184Y025770D01*
X009390Y025855D01*
X009548Y026012D01*
X009633Y026218D01*
X009633Y026441D01*
X009548Y026647D01*
X009390Y026804D01*
X009184Y026890D01*
X008962Y026890D01*
X008756Y026804D01*
X008691Y026740D01*
X008443Y026740D01*
X008103Y026740D01*
X006503Y025140D01*
X006196Y025140D01*
X005946Y025390D01*
X004800Y025390D01*
X004413Y025003D01*
X004413Y024456D01*
X004640Y024230D01*
X004413Y024003D01*
X004413Y023456D01*
X004620Y023250D01*
X004523Y023250D01*
X004453Y023179D01*
X004453Y022280D01*
X004523Y022210D01*
X004620Y022210D01*
X004413Y022003D01*
X004413Y021456D01*
X004640Y021230D01*
X004413Y021003D01*
X004413Y020456D01*
X004640Y020230D01*
X004413Y020003D01*
X004413Y019456D01*
X004800Y019070D01*
X005946Y019070D01*
X006333Y019456D01*
X006333Y020003D01*
X006333Y019836D02*
X009325Y019836D01*
X009086Y019597D02*
X006333Y019597D01*
X006236Y019359D02*
X008998Y019359D01*
X008998Y019120D02*
X005997Y019120D01*
X004749Y019120D02*
X001993Y019120D01*
X001993Y018882D02*
X009066Y018882D01*
X009305Y018643D02*
X001993Y018643D01*
X001993Y018405D02*
X009138Y018405D01*
X009138Y018166D02*
X001993Y018166D01*
X001993Y017928D02*
X009218Y017928D01*
X009178Y017689D02*
X001993Y017689D01*
X001993Y017451D02*
X008998Y017451D01*
X008998Y017212D02*
X001993Y017212D01*
X001993Y016973D02*
X008998Y016973D01*
X009213Y016735D02*
X001993Y016735D01*
X001993Y016496D02*
X008998Y016496D01*
X008998Y016258D02*
X001993Y016258D01*
X001993Y016019D02*
X008998Y016019D01*
X009167Y015781D02*
X001993Y015781D01*
X001993Y015542D02*
X009031Y015542D01*
X008998Y015304D02*
X001993Y015304D01*
X001993Y015065D02*
X008998Y015065D01*
X009121Y014827D02*
X001993Y014827D01*
X001993Y014588D02*
X009077Y014588D01*
X008998Y014349D02*
X001993Y014349D01*
X001993Y014111D02*
X008998Y014111D01*
X009076Y013872D02*
X001993Y013872D01*
X001993Y013634D02*
X009314Y013634D01*
X009138Y013395D02*
X001993Y013395D01*
X001993Y013157D02*
X009138Y013157D01*
X009228Y012918D02*
X005538Y012918D01*
X005515Y012942D02*
X004131Y012942D01*
X003695Y012506D01*
X003695Y011890D01*
X004131Y011454D01*
X005515Y011454D01*
X005950Y011890D01*
X005950Y012506D01*
X005515Y012942D01*
X005777Y012680D02*
X009169Y012680D01*
X008998Y012441D02*
X005950Y012441D01*
X005950Y012203D02*
X008998Y012203D01*
X008998Y011964D02*
X005950Y011964D01*
X005786Y011726D02*
X009214Y011726D01*
X008998Y011487D02*
X005547Y011487D01*
X005182Y010768D02*
X004949Y010865D01*
X004696Y010865D01*
X004463Y010768D01*
X004284Y010589D01*
X004188Y010356D01*
X004188Y010103D01*
X004284Y009870D01*
X004463Y009691D01*
X004696Y009595D01*
X004949Y009595D01*
X005182Y009691D01*
X005361Y009870D01*
X005458Y010103D01*
X005458Y010356D01*
X005361Y010589D01*
X005182Y010768D01*
X005174Y010771D02*
X009177Y010771D01*
X009022Y010533D02*
X005384Y010533D01*
X005458Y010294D02*
X008998Y010294D01*
X008998Y010056D02*
X005438Y010056D01*
X005308Y009817D02*
X009131Y009817D01*
X009068Y009579D02*
X003693Y009579D01*
X003693Y009817D02*
X004337Y009817D01*
X004207Y010056D02*
X003693Y010056D01*
X003693Y010294D02*
X004188Y010294D01*
X003973Y010230D02*
X003973Y010030D01*
X003973Y010230D02*
X002854Y010230D01*
X002053Y010294D02*
X001993Y010294D01*
X001993Y010056D02*
X002053Y010056D01*
X002053Y009817D02*
X001993Y009817D01*
X001993Y009579D02*
X002053Y009579D01*
X002053Y009340D02*
X001993Y009340D01*
X001993Y009102D02*
X002053Y009102D01*
X002053Y009080D02*
X002123Y009010D01*
X003623Y009010D01*
X003693Y009080D01*
X003693Y011279D01*
X003623Y011350D01*
X002123Y011350D01*
X002053Y011279D01*
X002053Y009080D01*
X001993Y008863D02*
X002648Y008863D01*
X002728Y008896D02*
X002494Y008799D01*
X002316Y008621D01*
X002219Y008387D01*
X002219Y008135D01*
X002316Y007901D01*
X002494Y007723D01*
X002728Y007626D01*
X002980Y007626D01*
X003214Y007723D01*
X003392Y007901D01*
X003489Y008135D01*
X003489Y008387D01*
X003392Y008621D01*
X003214Y008799D01*
X002980Y008896D01*
X002728Y008896D01*
X003060Y008863D02*
X003989Y008863D01*
X004131Y009005D02*
X003695Y008569D01*
X003695Y007953D01*
X004131Y007517D01*
X005515Y007517D01*
X005950Y007953D01*
X005950Y008569D01*
X005515Y009005D01*
X004131Y009005D01*
X003693Y009102D02*
X008998Y009102D01*
X008998Y009340D02*
X003693Y009340D01*
X003750Y008624D02*
X003389Y008624D01*
X003489Y008386D02*
X003695Y008386D01*
X003695Y008147D02*
X003489Y008147D01*
X003395Y007909D02*
X003739Y007909D01*
X003978Y007670D02*
X003087Y007670D01*
X002621Y007670D02*
X001993Y007670D01*
X001993Y007432D02*
X009053Y007432D01*
X009053Y007670D02*
X005668Y007670D01*
X005906Y007909D02*
X009237Y007909D01*
X009138Y008147D02*
X005950Y008147D01*
X005950Y008386D02*
X009138Y008386D01*
X009311Y008624D02*
X005895Y008624D01*
X005657Y008863D02*
X009085Y008863D01*
X009673Y009230D02*
X010673Y009230D01*
X011673Y009230D01*
X012673Y009230D01*
X013673Y009230D01*
X014673Y009230D01*
X015673Y009230D01*
X016673Y009230D01*
X017673Y009230D01*
X018673Y009230D01*
X019673Y009230D01*
X020673Y009230D01*
X021324Y010533D02*
X023319Y010533D01*
X023666Y011487D02*
X024124Y011487D01*
X023983Y011726D02*
X023010Y011726D01*
X023983Y011964D02*
X021348Y011964D01*
X021348Y012203D02*
X024094Y012203D01*
X024170Y012441D02*
X021348Y012441D01*
X021178Y012680D02*
X023983Y012680D01*
X023983Y012918D02*
X021118Y012918D01*
X021208Y013157D02*
X024048Y013157D01*
X024287Y013395D02*
X021208Y013395D01*
X021032Y013634D02*
X027113Y013634D01*
X027113Y013872D02*
X021270Y013872D01*
X021348Y014111D02*
X027113Y014111D01*
X027083Y014349D02*
X021348Y014349D01*
X021269Y014588D02*
X027013Y014588D01*
X027049Y014827D02*
X021225Y014827D01*
X021348Y015065D02*
X027217Y015065D01*
X027929Y015065D02*
X039530Y015065D01*
X039291Y014827D02*
X028098Y014827D01*
X028133Y014588D02*
X037740Y014588D01*
X038988Y013395D02*
X028033Y013395D01*
X028033Y013157D02*
X033443Y013157D01*
X033060Y012918D02*
X028033Y012918D01*
X028033Y012680D02*
X032906Y012680D01*
X032841Y012441D02*
X028033Y012441D01*
X028033Y012203D02*
X032841Y012203D01*
X032937Y011964D02*
X027958Y011964D01*
X027719Y011726D02*
X033135Y011726D01*
X031300Y011248D02*
X027003Y011248D01*
X026904Y011010D02*
X031142Y011010D01*
X031113Y010771D02*
X026665Y010771D01*
X026427Y010533D02*
X031190Y010533D01*
X027481Y011487D02*
X101353Y011487D01*
X101353Y011726D02*
X051451Y011726D01*
X051649Y011964D02*
X101353Y011964D01*
X101353Y012203D02*
X051745Y012203D01*
X051745Y012441D02*
X101353Y012441D01*
X101353Y012680D02*
X051680Y012680D01*
X051526Y012918D02*
X101353Y012918D01*
X101353Y011248D02*
X036405Y011248D01*
X036643Y011010D02*
X101353Y011010D01*
X101353Y010771D02*
X036853Y010771D01*
X035908Y008863D02*
X035878Y008863D01*
X031906Y006955D02*
X017390Y006955D01*
X017576Y006716D02*
X031813Y006716D01*
X031830Y006478D02*
X017674Y006478D01*
X017693Y006239D02*
X031972Y006239D01*
X032774Y006239D02*
X040940Y006239D01*
X041142Y006478D02*
X032916Y006478D01*
X035436Y005285D02*
X017058Y005285D01*
X017409Y005523D02*
X040316Y005523D01*
X040555Y005762D02*
X017583Y005762D01*
X017682Y006000D02*
X040679Y006000D01*
X041520Y005285D02*
X043873Y005285D01*
X043813Y005046D02*
X041140Y005046D01*
X040902Y004808D02*
X043859Y004808D01*
X044041Y004569D02*
X040663Y004569D01*
X041694Y005523D02*
X044102Y005523D01*
X044705Y004569D02*
X050891Y004569D01*
X051178Y004331D02*
X006168Y004331D01*
X006251Y004365D02*
X005876Y004210D01*
X005470Y004210D01*
X005095Y004365D01*
X004808Y004652D01*
X004653Y005027D01*
X004653Y005432D01*
X004808Y005807D01*
X005095Y006094D01*
X005470Y006250D01*
X005876Y006250D01*
X006251Y006094D01*
X006538Y005807D01*
X006693Y005432D01*
X006693Y005027D01*
X006538Y004652D01*
X006251Y004365D01*
X006455Y004569D02*
X035441Y004569D01*
X035317Y004808D02*
X006602Y004808D01*
X006693Y005046D02*
X035315Y005046D01*
X041273Y008430D02*
X041293Y008450D01*
X041293Y009600D01*
X044551Y011726D02*
X046935Y011726D01*
X046737Y011964D02*
X044749Y011964D01*
X044845Y012203D02*
X046641Y012203D01*
X046641Y012441D02*
X044845Y012441D01*
X044780Y012680D02*
X046706Y012680D01*
X046860Y012918D02*
X044626Y012918D01*
X048062Y012918D02*
X050324Y012918D01*
X050170Y012680D02*
X048216Y012680D01*
X048281Y012441D02*
X050105Y012441D01*
X050105Y012203D02*
X048281Y012203D01*
X048184Y011964D02*
X050202Y011964D01*
X050400Y011726D02*
X047986Y011726D01*
X048482Y010533D02*
X048904Y010533D01*
X049482Y010533D02*
X049904Y010533D01*
X050482Y010533D02*
X101353Y010533D01*
X101353Y010294D02*
X050720Y010294D01*
X050848Y010056D02*
X101353Y010056D01*
X101353Y009817D02*
X050848Y009817D01*
X050848Y009579D02*
X101353Y009579D01*
X101353Y009340D02*
X050848Y009340D01*
X050848Y009102D02*
X101353Y009102D01*
X101353Y008863D02*
X050678Y008863D01*
X049708Y008863D02*
X049678Y008863D01*
X048708Y008863D02*
X048678Y008863D01*
X047708Y008863D02*
X047257Y008863D01*
X047496Y009102D02*
X047538Y009102D01*
X052345Y006000D02*
X097001Y006000D01*
X096790Y005762D02*
X052557Y005762D01*
X052655Y005523D02*
X096691Y005523D01*
X096653Y005285D02*
X052693Y005285D01*
X052693Y005046D02*
X096653Y005046D01*
X096744Y004808D02*
X052602Y004808D01*
X052455Y004569D02*
X096891Y004569D01*
X097178Y004331D02*
X052168Y004331D01*
X064713Y006478D02*
X069242Y006478D01*
X068897Y006716D02*
X064832Y006716D01*
X064827Y006955D02*
X068813Y006955D01*
X068835Y007193D02*
X064701Y007193D01*
X064683Y007432D02*
X068963Y007432D01*
X068963Y007670D02*
X064683Y007670D01*
X064744Y007909D02*
X068902Y007909D01*
X068813Y008147D02*
X064833Y008147D01*
X064814Y008386D02*
X068832Y008386D01*
X068976Y008624D02*
X064670Y008624D01*
X064202Y015781D02*
X061114Y015781D01*
X061153Y016019D02*
X064163Y016019D01*
X064163Y016258D02*
X061153Y016258D01*
X061153Y016496D02*
X064163Y016496D01*
X064163Y016735D02*
X061153Y016735D01*
X061153Y016973D02*
X064163Y016973D01*
X065205Y018998D02*
X065073Y019130D01*
X060145Y018958D02*
X060073Y019030D01*
X059113Y018643D02*
X043066Y018643D01*
X042828Y018405D02*
X059113Y018405D01*
X059113Y018166D02*
X036470Y018166D01*
X036225Y017928D02*
X059113Y017928D01*
X059113Y017689D02*
X036025Y017689D01*
X035705Y017451D02*
X059113Y017451D01*
X052448Y022012D02*
X052519Y022184D01*
X052690Y022255D01*
X052848Y022412D01*
X052919Y022584D01*
X053090Y022655D01*
X053248Y022812D01*
X053333Y023018D01*
X053333Y023241D01*
X053248Y023447D01*
X053090Y023604D01*
X052884Y023690D01*
X052662Y023690D01*
X052456Y023604D01*
X052391Y023540D01*
X051555Y023540D01*
X051490Y023604D01*
X051284Y023690D01*
X051062Y023690D01*
X050856Y023604D01*
X050698Y023447D01*
X050627Y023275D01*
X050456Y023204D01*
X050298Y023047D01*
X050213Y022841D01*
X050213Y022618D01*
X050298Y022412D01*
X050456Y022255D01*
X050662Y022170D01*
X050666Y022170D01*
X050613Y022041D01*
X050613Y021818D01*
X050698Y021612D01*
X050856Y021455D01*
X051062Y021370D01*
X051284Y021370D01*
X051490Y021455D01*
X051648Y021612D01*
X051733Y021818D01*
X051733Y021823D01*
X051862Y021770D01*
X052084Y021770D01*
X052290Y021855D01*
X052448Y022012D01*
X052418Y021983D02*
X101353Y021983D01*
X101353Y022221D02*
X052609Y022221D01*
X052867Y022460D02*
X101353Y022460D01*
X101353Y022699D02*
X053134Y022699D01*
X053299Y022937D02*
X101353Y022937D01*
X101353Y023176D02*
X053333Y023176D01*
X053261Y023414D02*
X101353Y023414D01*
X101353Y023653D02*
X052974Y023653D01*
X052573Y023653D02*
X051374Y023653D01*
X050973Y023653D02*
X048076Y023653D01*
X048314Y023891D02*
X101353Y023891D01*
X101353Y024130D02*
X048553Y024130D01*
X048792Y024368D02*
X101353Y024368D01*
X101353Y024607D02*
X049030Y024607D01*
X049269Y024845D02*
X101353Y024845D01*
X101353Y025084D02*
X049507Y025084D01*
X049746Y025322D02*
X101353Y025322D01*
X101353Y025561D02*
X049984Y025561D01*
X050223Y025800D02*
X050589Y025800D01*
X050957Y025800D02*
X052689Y025800D01*
X053057Y025800D02*
X101353Y025800D01*
X101353Y026038D02*
X053358Y026038D01*
X053433Y026277D02*
X055834Y026277D01*
X055856Y026255D02*
X056062Y026170D01*
X056284Y026170D01*
X056490Y026255D01*
X056648Y026412D01*
X056733Y026618D01*
X056733Y026841D01*
X056648Y027047D01*
X056583Y027112D01*
X056583Y028748D01*
X056648Y028812D01*
X056733Y029018D01*
X056733Y029241D01*
X056648Y029447D01*
X056583Y029512D01*
X056583Y033848D01*
X056648Y033912D01*
X056733Y034118D01*
X056733Y034341D01*
X056648Y034547D01*
X056490Y034704D01*
X056284Y034790D01*
X056062Y034790D01*
X055856Y034704D01*
X055698Y034547D01*
X055613Y034341D01*
X055613Y034269D01*
X055456Y034204D01*
X055298Y034047D01*
X055213Y033841D01*
X055213Y033618D01*
X055298Y033412D01*
X055363Y033348D01*
X055363Y033012D01*
X055298Y032947D01*
X055213Y032741D01*
X055213Y032518D01*
X055298Y032312D01*
X055363Y032248D01*
X055363Y027512D01*
X055298Y027447D01*
X055213Y027241D01*
X055213Y027018D01*
X055298Y026812D01*
X055456Y026655D01*
X055627Y026584D01*
X055698Y026412D01*
X055856Y026255D01*
X055656Y026515D02*
X053402Y026515D01*
X053241Y026754D02*
X055357Y026754D01*
X055224Y026992D02*
X051416Y026992D01*
X051654Y027231D02*
X055213Y027231D01*
X055321Y027469D02*
X051893Y027469D01*
X052131Y027708D02*
X055363Y027708D01*
X055363Y027946D02*
X052370Y027946D01*
X052483Y028185D02*
X055363Y028185D01*
X055363Y028424D02*
X052483Y028424D01*
X052483Y028662D02*
X055363Y028662D01*
X055363Y028901D02*
X052483Y028901D01*
X052483Y029139D02*
X055363Y029139D01*
X055363Y029378D02*
X052483Y029378D01*
X052483Y029616D02*
X055363Y029616D01*
X055363Y029855D02*
X052483Y029855D01*
X052483Y030093D02*
X055363Y030093D01*
X055363Y030332D02*
X052483Y030332D01*
X052483Y030570D02*
X055363Y030570D01*
X055363Y030809D02*
X052483Y030809D01*
X052483Y031048D02*
X055363Y031048D01*
X055363Y031286D02*
X052483Y031286D01*
X052483Y031525D02*
X055363Y031525D01*
X055363Y031763D02*
X052483Y031763D01*
X052483Y032002D02*
X055363Y032002D01*
X055363Y032240D02*
X052483Y032240D01*
X052483Y032479D02*
X055229Y032479D01*
X055213Y032717D02*
X052483Y032717D01*
X052483Y032956D02*
X055307Y032956D01*
X055363Y033194D02*
X052483Y033194D01*
X052483Y033433D02*
X055290Y033433D01*
X055213Y033671D02*
X052483Y033671D01*
X052533Y033910D02*
X055242Y033910D01*
X055400Y034149D02*
X052772Y034149D01*
X053010Y034387D02*
X055632Y034387D01*
X055777Y034626D02*
X053249Y034626D01*
X053487Y034864D02*
X101353Y034864D01*
X101353Y034626D02*
X056569Y034626D01*
X056714Y034387D02*
X101353Y034387D01*
X101353Y034149D02*
X056733Y034149D01*
X056645Y033910D02*
X101353Y033910D01*
X101353Y033671D02*
X056583Y033671D01*
X056583Y033433D02*
X101353Y033433D01*
X101353Y033194D02*
X056583Y033194D01*
X056583Y032956D02*
X101353Y032956D01*
X101353Y032717D02*
X056583Y032717D01*
X056583Y032479D02*
X101353Y032479D01*
X101353Y032240D02*
X056583Y032240D01*
X056583Y032002D02*
X101353Y032002D01*
X101353Y031763D02*
X056583Y031763D01*
X056583Y031525D02*
X101353Y031525D01*
X101353Y031286D02*
X056583Y031286D01*
X056583Y031048D02*
X101353Y031048D01*
X101353Y030809D02*
X056583Y030809D01*
X056583Y030570D02*
X101353Y030570D01*
X101353Y030332D02*
X056583Y030332D01*
X056583Y030093D02*
X101353Y030093D01*
X101353Y029855D02*
X056583Y029855D01*
X056583Y029616D02*
X101353Y029616D01*
X101353Y029378D02*
X056676Y029378D01*
X056733Y029139D02*
X101353Y029139D01*
X101353Y028901D02*
X056684Y028901D01*
X056583Y028662D02*
X101353Y028662D01*
X101353Y028424D02*
X056583Y028424D01*
X056583Y028185D02*
X101353Y028185D01*
X101353Y027946D02*
X056583Y027946D01*
X056583Y027708D02*
X101353Y027708D01*
X101353Y027469D02*
X056583Y027469D01*
X056583Y027231D02*
X101353Y027231D01*
X101353Y026992D02*
X056670Y026992D01*
X056733Y026754D02*
X101353Y026754D01*
X101353Y026515D02*
X056690Y026515D01*
X056512Y026277D02*
X101353Y026277D01*
X101353Y021744D02*
X051702Y021744D01*
X051541Y021506D02*
X101353Y021506D01*
X101353Y021267D02*
X045690Y021267D01*
X045452Y021029D02*
X101353Y021029D01*
X101353Y020790D02*
X045213Y020790D01*
X044975Y020552D02*
X101353Y020552D01*
X101353Y020313D02*
X044736Y020313D01*
X044498Y020075D02*
X101353Y020075D01*
X101353Y019836D02*
X044259Y019836D01*
X044021Y019597D02*
X101353Y019597D01*
X101353Y019359D02*
X043782Y019359D01*
X043544Y019120D02*
X101353Y019120D01*
X101353Y018882D02*
X043305Y018882D01*
X045929Y021506D02*
X050805Y021506D01*
X050644Y021744D02*
X046168Y021744D01*
X046406Y021983D02*
X050613Y021983D01*
X050537Y022221D02*
X046645Y022221D01*
X046883Y022460D02*
X050279Y022460D01*
X050213Y022699D02*
X047122Y022699D01*
X047360Y022937D02*
X050253Y022937D01*
X050427Y023176D02*
X047599Y023176D01*
X047837Y023414D02*
X050685Y023414D01*
X046479Y026515D02*
X023502Y026515D01*
X023533Y026441D02*
X023448Y026647D01*
X023290Y026804D01*
X023084Y026890D01*
X022862Y026890D01*
X022656Y026804D01*
X022591Y026740D01*
X021755Y026740D01*
X021690Y026804D01*
X021484Y026890D01*
X021262Y026890D01*
X021056Y026804D01*
X020898Y026647D01*
X020813Y026441D01*
X020813Y026218D01*
X020898Y026012D01*
X021056Y025855D01*
X021262Y025770D01*
X021484Y025770D01*
X021690Y025855D01*
X021755Y025920D01*
X022591Y025920D01*
X022656Y025855D01*
X022862Y025770D01*
X023084Y025770D01*
X023290Y025855D01*
X023448Y026012D01*
X023533Y026218D01*
X023533Y026441D01*
X023533Y026277D02*
X046240Y026277D01*
X046002Y026038D02*
X023458Y026038D01*
X023157Y025800D02*
X045763Y025800D01*
X045525Y025561D02*
X008084Y025561D01*
X007846Y025322D02*
X045286Y025322D01*
X045048Y025084D02*
X007607Y025084D01*
X007369Y024845D02*
X044809Y024845D01*
X044571Y024607D02*
X007130Y024607D01*
X006892Y024368D02*
X044332Y024368D01*
X044093Y024130D02*
X006206Y024130D01*
X006333Y023891D02*
X043855Y023891D01*
X043616Y023653D02*
X035274Y023653D01*
X035184Y023690D02*
X034962Y023690D01*
X034756Y023604D01*
X034598Y023447D01*
X034513Y023241D01*
X034513Y023018D01*
X034598Y022812D01*
X034663Y022748D01*
X034663Y022512D01*
X034598Y022447D01*
X034513Y022241D01*
X034513Y022018D01*
X034598Y021812D01*
X034756Y021655D01*
X034962Y021570D01*
X035184Y021570D01*
X035390Y021655D01*
X035548Y021812D01*
X035633Y022018D01*
X035633Y022241D01*
X035548Y022447D01*
X035483Y022512D01*
X035483Y022748D01*
X035548Y022812D01*
X035633Y023018D01*
X035633Y023241D01*
X035548Y023447D01*
X035390Y023604D01*
X035184Y023690D01*
X034873Y023653D02*
X029874Y023653D01*
X029784Y023690D02*
X029990Y023604D01*
X030148Y023447D01*
X030233Y023241D01*
X030233Y023018D01*
X030148Y022812D01*
X030083Y022748D01*
X030083Y022512D01*
X030148Y022447D01*
X030233Y022241D01*
X030233Y022018D01*
X030148Y021812D01*
X029990Y021655D01*
X029784Y021570D01*
X029562Y021570D01*
X029356Y021655D01*
X029198Y021812D01*
X029113Y022018D01*
X029113Y022241D01*
X029198Y022447D01*
X029263Y022512D01*
X029263Y022748D01*
X029198Y022812D01*
X029113Y023018D01*
X029113Y023241D01*
X029198Y023447D01*
X029356Y023604D01*
X029562Y023690D01*
X029784Y023690D01*
X029473Y023653D02*
X006333Y023653D01*
X006291Y023414D02*
X029185Y023414D01*
X029113Y023176D02*
X025619Y023176D01*
X025793Y022937D02*
X029147Y022937D01*
X029263Y022699D02*
X025833Y022699D01*
X025767Y022460D02*
X029211Y022460D01*
X029113Y022221D02*
X025683Y022221D01*
X026012Y021983D02*
X029128Y021983D01*
X029266Y021744D02*
X026132Y021744D01*
X026128Y021506D02*
X035469Y021506D01*
X035480Y021744D02*
X035708Y021744D01*
X035618Y021983D02*
X035947Y021983D01*
X036185Y022221D02*
X035633Y022221D01*
X035535Y022460D02*
X042424Y022460D01*
X042662Y022699D02*
X035483Y022699D01*
X035599Y022937D02*
X042901Y022937D01*
X043139Y023176D02*
X035633Y023176D01*
X035561Y023414D02*
X043378Y023414D01*
X046717Y026754D02*
X023341Y026754D01*
X022605Y026754D02*
X021741Y026754D01*
X021005Y026754D02*
X009441Y026754D01*
X009602Y026515D02*
X020844Y026515D01*
X020813Y026277D02*
X009633Y026277D01*
X009558Y026038D02*
X020888Y026038D01*
X021189Y025800D02*
X009257Y025800D01*
X008889Y025800D02*
X008323Y025800D01*
X007640Y026277D02*
X001993Y026277D01*
X001993Y026515D02*
X006795Y026515D01*
X006748Y026562D02*
X006906Y026405D01*
X007112Y026320D01*
X007334Y026320D01*
X007540Y026405D01*
X007698Y026562D01*
X007783Y026768D01*
X007783Y026991D01*
X007698Y027197D01*
X007633Y027262D01*
X007633Y030198D01*
X007698Y030262D01*
X007783Y030468D01*
X007783Y030691D01*
X007698Y030897D01*
X007540Y031054D01*
X007383Y031120D01*
X009103Y031120D01*
X009443Y031120D01*
X009593Y031270D01*
X009684Y031270D01*
X009890Y031355D01*
X010048Y031512D01*
X010133Y031718D01*
X010133Y031941D01*
X010058Y032122D01*
X010148Y032212D01*
X010233Y032418D01*
X010233Y032641D01*
X010148Y032847D01*
X009990Y033004D01*
X009784Y033090D01*
X009562Y033090D01*
X009356Y033004D01*
X009198Y032847D01*
X009113Y032641D01*
X009113Y032549D01*
X008903Y032340D01*
X006555Y032340D01*
X006490Y032404D01*
X006284Y032490D01*
X006062Y032490D01*
X005856Y032404D01*
X005698Y032247D01*
X005613Y032041D01*
X005613Y031818D01*
X005698Y031612D01*
X005856Y031455D01*
X006027Y031384D01*
X006098Y031212D01*
X006256Y031055D01*
X006462Y030970D01*
X006684Y030970D01*
X006890Y031055D01*
X006955Y031120D01*
X007064Y031120D01*
X006906Y031054D01*
X006748Y030897D01*
X006663Y030691D01*
X006663Y030468D01*
X006748Y030262D01*
X006813Y030198D01*
X006813Y027262D01*
X006748Y027197D01*
X006663Y026991D01*
X006663Y026768D01*
X006748Y026562D01*
X006669Y026754D02*
X001993Y026754D01*
X001993Y026992D02*
X006664Y026992D01*
X006782Y027231D02*
X001993Y027231D01*
X001993Y027469D02*
X006813Y027469D01*
X006813Y027708D02*
X001993Y027708D01*
X001993Y027946D02*
X006813Y027946D01*
X006813Y028185D02*
X001993Y028185D01*
X001993Y028424D02*
X006813Y028424D01*
X006813Y028662D02*
X001993Y028662D01*
X001993Y028901D02*
X006813Y028901D01*
X006813Y029139D02*
X001993Y029139D01*
X001993Y029378D02*
X006813Y029378D01*
X006813Y029616D02*
X001993Y029616D01*
X001993Y029855D02*
X006813Y029855D01*
X006813Y030093D02*
X001993Y030093D01*
X001993Y030332D02*
X006719Y030332D01*
X006663Y030570D02*
X001993Y030570D01*
X001993Y030809D02*
X006712Y030809D01*
X006873Y031048D02*
X006899Y031048D01*
X006274Y031048D02*
X001993Y031048D01*
X001993Y031286D02*
X006068Y031286D01*
X005786Y031525D02*
X001993Y031525D01*
X001993Y031763D02*
X005636Y031763D01*
X005613Y032002D02*
X001993Y032002D01*
X001993Y032240D02*
X005696Y032240D01*
X006036Y032479D02*
X001993Y032479D01*
X001993Y032717D02*
X009145Y032717D01*
X009042Y032479D02*
X006311Y032479D01*
X006316Y033487D02*
X006931Y033487D01*
X007366Y033922D01*
X007366Y034487D01*
X007931Y034487D01*
X008366Y034922D01*
X008366Y035537D01*
X007931Y035972D01*
X007316Y035972D01*
X006881Y035537D01*
X006881Y034972D01*
X006316Y034972D01*
X005881Y034537D01*
X005881Y033922D01*
X006316Y033487D01*
X006131Y033671D02*
X005142Y033671D01*
X005071Y033600D02*
X005293Y033822D01*
X005413Y034112D01*
X005413Y034427D01*
X005293Y034717D01*
X005071Y034939D01*
X004780Y035060D01*
X004466Y035060D01*
X004176Y034939D01*
X003953Y034717D01*
X003833Y034427D01*
X003833Y034112D01*
X003953Y033822D01*
X004176Y033600D01*
X004466Y033480D01*
X004780Y033480D01*
X005071Y033600D01*
X005329Y033910D02*
X005893Y033910D01*
X005881Y034149D02*
X005413Y034149D01*
X005413Y034387D02*
X005881Y034387D01*
X005969Y034626D02*
X005331Y034626D01*
X005146Y034864D02*
X006208Y034864D01*
X006881Y035103D02*
X003366Y035103D01*
X003366Y035341D02*
X006881Y035341D01*
X006923Y035580D02*
X003323Y035580D01*
X003262Y035818D02*
X007162Y035818D01*
X007313Y036487D02*
X005933Y036487D01*
X005498Y036922D01*
X005498Y037537D01*
X005933Y037972D01*
X007313Y037972D01*
X007748Y037537D01*
X007748Y036922D01*
X007313Y036487D01*
X007360Y036534D02*
X047363Y036534D01*
X047363Y036295D02*
X003366Y036295D01*
X003366Y036057D02*
X047363Y036057D01*
X047363Y035818D02*
X008084Y035818D01*
X008323Y035580D02*
X026913Y035580D01*
X026913Y035699D02*
X026913Y033900D01*
X026983Y033830D01*
X028183Y033830D01*
X028253Y033900D01*
X028253Y033968D01*
X028352Y033869D01*
X028894Y033869D01*
X029123Y034098D01*
X029352Y033869D01*
X029894Y033869D01*
X030278Y034253D01*
X030278Y035386D01*
X029894Y035770D01*
X029352Y035770D01*
X029123Y035541D01*
X028894Y035770D01*
X028352Y035770D01*
X028253Y035671D01*
X028253Y035699D01*
X028183Y035770D01*
X026983Y035770D01*
X026913Y035699D01*
X026913Y035341D02*
X008366Y035341D01*
X008366Y035103D02*
X026913Y035103D01*
X026913Y034864D02*
X008308Y034864D01*
X008069Y034626D02*
X026913Y034626D01*
X026913Y034387D02*
X021707Y034387D01*
X021556Y034450D02*
X021913Y034302D01*
X022185Y034029D01*
X022333Y033673D01*
X022333Y033287D01*
X022185Y032930D01*
X021913Y032657D01*
X021556Y032510D01*
X021170Y032510D01*
X020814Y032657D01*
X020541Y032930D01*
X020393Y033287D01*
X020393Y033673D01*
X020541Y034029D01*
X020814Y034302D01*
X021170Y034450D01*
X021556Y034450D01*
X021019Y034387D02*
X012327Y034387D01*
X012176Y034450D02*
X011790Y034450D01*
X011434Y034302D01*
X011161Y034029D01*
X011013Y033673D01*
X011013Y033287D01*
X011161Y032930D01*
X011434Y032657D01*
X011790Y032510D01*
X012176Y032510D01*
X012533Y032657D01*
X012805Y032930D01*
X012953Y033287D01*
X012953Y033673D01*
X012805Y034029D01*
X012533Y034302D01*
X012176Y034450D01*
X011639Y034387D02*
X007366Y034387D01*
X007366Y034149D02*
X011280Y034149D01*
X011111Y033910D02*
X007354Y033910D01*
X007115Y033671D02*
X011013Y033671D01*
X011013Y033433D02*
X001993Y033433D01*
X001993Y033671D02*
X004104Y033671D01*
X003917Y033910D02*
X001993Y033910D01*
X001993Y034149D02*
X003833Y034149D01*
X003833Y034387D02*
X001993Y034387D01*
X001993Y034626D02*
X002177Y034626D01*
X003069Y034626D02*
X003916Y034626D01*
X004100Y034864D02*
X003308Y034864D01*
X003366Y036534D02*
X005886Y036534D01*
X005648Y036773D02*
X003130Y036773D01*
X002932Y037488D02*
X005498Y037488D01*
X005498Y037250D02*
X001993Y037250D01*
X001993Y037488D02*
X002314Y037488D01*
X002076Y037727D02*
X001993Y037727D01*
X001993Y037011D02*
X005498Y037011D01*
X005688Y037727D02*
X003170Y037727D01*
X003366Y037965D02*
X005926Y037965D01*
X006883Y038919D02*
X003363Y038919D01*
X003366Y039158D02*
X006881Y039158D01*
X006881Y038922D02*
X006881Y039487D01*
X006316Y039487D01*
X005881Y039922D01*
X005881Y040537D01*
X006316Y040972D01*
X006931Y040972D01*
X007366Y040537D01*
X007366Y039972D01*
X007931Y039972D01*
X008366Y039537D01*
X008366Y038922D01*
X007931Y038487D01*
X007316Y038487D01*
X006881Y038922D01*
X007122Y038681D02*
X003222Y038681D01*
X003366Y038442D02*
X047363Y038442D01*
X047363Y038204D02*
X046821Y038204D01*
X046750Y038275D02*
X046448Y038400D01*
X046122Y038400D01*
X045821Y038275D01*
X045590Y038044D01*
X045465Y037743D01*
X045465Y037416D01*
X045590Y037115D01*
X045821Y036884D01*
X046122Y036760D01*
X046448Y036760D01*
X046750Y036884D01*
X046980Y037115D01*
X047105Y037416D01*
X047105Y037743D01*
X046980Y038044D01*
X046750Y038275D01*
X047013Y037965D02*
X047363Y037965D01*
X047363Y037727D02*
X047105Y037727D01*
X047105Y037488D02*
X047363Y037488D01*
X047363Y037250D02*
X047036Y037250D01*
X046876Y037011D02*
X047363Y037011D01*
X047363Y036773D02*
X046480Y036773D01*
X046091Y036773D02*
X043015Y036773D01*
X042984Y036760D02*
X043285Y036884D01*
X043516Y037115D01*
X043641Y037416D01*
X043641Y037743D01*
X043516Y038044D01*
X043285Y038275D01*
X042984Y038400D01*
X042658Y038400D01*
X042356Y038275D01*
X042126Y038044D01*
X042001Y037743D01*
X042001Y037416D01*
X042126Y037115D01*
X042356Y036884D01*
X042658Y036760D01*
X042984Y036760D01*
X042626Y036773D02*
X030550Y036773D01*
X030518Y036760D02*
X030820Y036884D01*
X031050Y037115D01*
X031175Y037416D01*
X031175Y037743D01*
X031050Y038044D01*
X030820Y038275D01*
X030518Y038400D01*
X030192Y038400D01*
X029891Y038275D01*
X029660Y038044D01*
X029535Y037743D01*
X029535Y037416D01*
X029660Y037115D01*
X029891Y036884D01*
X030192Y036760D01*
X030518Y036760D01*
X030161Y036773D02*
X027085Y036773D01*
X027054Y036760D02*
X027355Y036884D01*
X027586Y037115D01*
X027711Y037416D01*
X027711Y037743D01*
X027586Y038044D01*
X027355Y038275D01*
X027054Y038400D01*
X026728Y038400D01*
X026426Y038275D01*
X026196Y038044D01*
X026071Y037743D01*
X026071Y037416D01*
X026196Y037115D01*
X026426Y036884D01*
X026728Y036760D01*
X027054Y036760D01*
X026696Y036773D02*
X007599Y036773D01*
X007748Y037011D02*
X026300Y037011D01*
X026140Y037250D02*
X007748Y037250D01*
X007748Y037488D02*
X026071Y037488D01*
X026071Y037727D02*
X007558Y037727D01*
X007320Y037965D02*
X026163Y037965D01*
X026355Y038204D02*
X003366Y038204D01*
X003366Y039397D02*
X006881Y039397D01*
X006168Y039635D02*
X005186Y039635D01*
X005293Y039742D02*
X005413Y040032D01*
X005413Y040347D01*
X005293Y040637D01*
X005071Y040859D01*
X004780Y040980D01*
X004466Y040980D01*
X004176Y040859D01*
X003953Y040637D01*
X003833Y040347D01*
X003833Y040032D01*
X003953Y039742D01*
X004176Y039520D01*
X004466Y039400D01*
X004780Y039400D01*
X005071Y039520D01*
X005293Y039742D01*
X005347Y039874D02*
X005929Y039874D01*
X005881Y040112D02*
X005413Y040112D01*
X005411Y040351D02*
X005881Y040351D01*
X005933Y040589D02*
X005313Y040589D01*
X005102Y040828D02*
X006171Y040828D01*
X006316Y041387D02*
X006931Y041387D01*
X007366Y041822D01*
X007366Y042387D01*
X007931Y042387D01*
X008366Y042822D01*
X008366Y043437D01*
X007931Y043872D01*
X007316Y043872D01*
X006881Y043437D01*
X006881Y042872D01*
X006316Y042872D01*
X005881Y042437D01*
X005881Y041822D01*
X006316Y041387D01*
X006159Y041543D02*
X005114Y041543D01*
X005071Y041500D02*
X005293Y041722D01*
X005413Y042012D01*
X005413Y042327D01*
X005293Y042617D01*
X005071Y042839D01*
X004780Y042960D01*
X004466Y042960D01*
X004176Y042839D01*
X003953Y042617D01*
X003833Y042327D01*
X003833Y042012D01*
X003953Y041722D01*
X004176Y041500D01*
X004466Y041380D01*
X004780Y041380D01*
X005071Y041500D01*
X005318Y041782D02*
X005921Y041782D01*
X005881Y042021D02*
X005413Y042021D01*
X005413Y042259D02*
X005881Y042259D01*
X005941Y042498D02*
X005342Y042498D01*
X005174Y042736D02*
X006180Y042736D01*
X006881Y042975D02*
X003366Y042975D01*
X003366Y043213D02*
X006881Y043213D01*
X006895Y043452D02*
X003351Y043452D01*
X003234Y043690D02*
X007134Y043690D01*
X007723Y044410D02*
X005523Y044410D01*
X005453Y044480D01*
X005453Y045779D01*
X005523Y045850D01*
X007723Y045850D01*
X007793Y045779D01*
X007793Y044480D01*
X007723Y044410D01*
X007793Y044644D02*
X027863Y044644D01*
X027863Y044406D02*
X003366Y044406D01*
X003366Y044167D02*
X027863Y044167D01*
X027863Y043929D02*
X003366Y043929D01*
X003158Y044644D02*
X005453Y044644D01*
X005453Y044883D02*
X001993Y044883D01*
X001993Y044644D02*
X002088Y044644D01*
X001993Y045122D02*
X005453Y045122D01*
X005453Y045360D02*
X001993Y045360D01*
X001993Y045599D02*
X002104Y045599D01*
X003142Y045599D02*
X005453Y045599D01*
X005511Y045837D02*
X003366Y045837D01*
X003366Y046076D02*
X025703Y046076D01*
X025703Y046010D02*
X025773Y045940D01*
X026783Y045940D01*
X026853Y046010D01*
X026853Y046158D01*
X027031Y045980D01*
X027495Y045980D01*
X027763Y046248D01*
X027863Y046148D01*
X027863Y043012D01*
X027798Y042947D01*
X027713Y042741D01*
X027713Y042518D01*
X027798Y042312D01*
X027956Y042155D01*
X028162Y042070D01*
X028384Y042070D01*
X028590Y042155D01*
X028748Y042312D01*
X028833Y042518D01*
X028833Y042741D01*
X028748Y042947D01*
X028683Y043012D01*
X028683Y046168D01*
X028823Y046308D01*
X028823Y046772D01*
X028555Y047040D01*
X028823Y047308D01*
X028823Y047772D01*
X028495Y048100D01*
X028031Y048100D01*
X027703Y047772D01*
X027703Y047308D01*
X027971Y047040D01*
X027763Y046831D01*
X027495Y047100D01*
X027031Y047100D01*
X026853Y046921D01*
X026853Y047029D01*
X026783Y047100D01*
X026615Y047100D01*
X026823Y047308D01*
X026823Y047772D01*
X026495Y048100D01*
X026031Y048100D01*
X025703Y047772D01*
X025703Y047308D01*
X025911Y047100D01*
X025773Y047100D01*
X025703Y047029D01*
X025703Y046010D01*
X025703Y046314D02*
X003366Y046314D01*
X003250Y046553D02*
X007150Y046553D01*
X007316Y046387D02*
X006881Y046822D01*
X006881Y047387D01*
X006316Y047387D01*
X005881Y047822D01*
X005881Y048437D01*
X006316Y048872D01*
X006931Y048872D01*
X007366Y048437D01*
X007366Y047872D01*
X007931Y047872D01*
X008366Y047437D01*
X008366Y046822D01*
X007931Y046387D01*
X007316Y046387D01*
X006911Y046791D02*
X003335Y046791D01*
X003366Y047030D02*
X006881Y047030D01*
X006881Y047268D02*
X003366Y047268D01*
X003296Y047507D02*
X004088Y047507D01*
X004176Y047420D02*
X003953Y047642D01*
X003833Y047932D01*
X003833Y048247D01*
X003953Y048537D01*
X004176Y048759D01*
X004466Y048880D01*
X004780Y048880D01*
X005071Y048759D01*
X005293Y048537D01*
X005413Y048247D01*
X005413Y047932D01*
X005293Y047642D01*
X005071Y047420D01*
X004780Y047300D01*
X004466Y047300D01*
X004176Y047420D01*
X003910Y047746D02*
X003057Y047746D01*
X003833Y047984D02*
X001993Y047984D01*
X001993Y047746D02*
X002189Y047746D01*
X001993Y048223D02*
X003833Y048223D01*
X003922Y048461D02*
X001993Y048461D01*
X001993Y048700D02*
X004116Y048700D01*
X005130Y048700D02*
X006143Y048700D01*
X005905Y048461D02*
X005324Y048461D01*
X005413Y048223D02*
X005881Y048223D01*
X005881Y047984D02*
X005413Y047984D01*
X005336Y047746D02*
X005957Y047746D01*
X006196Y047507D02*
X005158Y047507D01*
X007366Y047984D02*
X013213Y047984D01*
X013213Y047746D02*
X008057Y047746D01*
X008296Y047507D02*
X013213Y047507D01*
X013213Y047268D02*
X008366Y047268D01*
X008366Y047030D02*
X013415Y047030D01*
X013213Y047232D02*
X013775Y046670D01*
X014571Y046670D01*
X015133Y047232D01*
X015133Y049227D01*
X014571Y049790D01*
X013775Y049790D01*
X013213Y049227D01*
X013213Y047232D01*
X013654Y046791D02*
X008335Y046791D01*
X008096Y046553D02*
X018103Y046553D01*
X018103Y046430D02*
X018173Y046360D01*
X020173Y046360D01*
X020243Y046430D01*
X020243Y049829D01*
X020173Y049900D01*
X018173Y049900D01*
X018103Y049829D01*
X018103Y046430D01*
X018103Y046791D02*
X014692Y046791D01*
X014931Y047030D02*
X018103Y047030D01*
X018103Y047268D02*
X015133Y047268D01*
X015133Y047507D02*
X018103Y047507D01*
X018103Y047746D02*
X015133Y047746D01*
X015133Y047984D02*
X018103Y047984D01*
X018103Y048223D02*
X015133Y048223D01*
X015133Y048461D02*
X018103Y048461D01*
X018103Y048700D02*
X015133Y048700D01*
X015133Y048938D02*
X018103Y048938D01*
X018103Y049177D02*
X015133Y049177D01*
X014945Y049415D02*
X016045Y049415D01*
X016095Y049365D02*
X016470Y049210D01*
X016876Y049210D01*
X017251Y049365D01*
X017538Y049652D01*
X017693Y050027D01*
X017693Y050432D01*
X017538Y050807D01*
X017251Y051094D01*
X016876Y051250D01*
X016470Y051250D01*
X016095Y051094D01*
X015808Y050807D01*
X015653Y050432D01*
X015653Y050027D01*
X015808Y049652D01*
X016095Y049365D01*
X015807Y049654D02*
X014706Y049654D01*
X015709Y049892D02*
X001993Y049892D01*
X001993Y049654D02*
X013640Y049654D01*
X013401Y049415D02*
X001993Y049415D01*
X001993Y049177D02*
X013213Y049177D01*
X013213Y048938D02*
X001993Y048938D01*
X001993Y050131D02*
X015653Y050131D01*
X015653Y050370D02*
X001993Y050370D01*
X001993Y050608D02*
X015726Y050608D01*
X015848Y050847D02*
X001993Y050847D01*
X001993Y051085D02*
X016086Y051085D01*
X017260Y051085D02*
X101353Y051085D01*
X101353Y050847D02*
X017499Y050847D01*
X017620Y050608D02*
X101353Y050608D01*
X101353Y050370D02*
X017693Y050370D01*
X017693Y050131D02*
X101353Y050131D01*
X101353Y049892D02*
X020180Y049892D01*
X020243Y049654D02*
X101353Y049654D01*
X101353Y049415D02*
X020243Y049415D01*
X020243Y049177D02*
X101353Y049177D01*
X101353Y048938D02*
X020243Y048938D01*
X020243Y048700D02*
X101353Y048700D01*
X101353Y048461D02*
X097220Y048461D01*
X097052Y048630D02*
X097403Y048278D01*
X097403Y047301D01*
X097052Y046950D01*
X096555Y046950D01*
X096303Y047201D01*
X096052Y046950D01*
X095555Y046950D01*
X095203Y047301D01*
X095203Y048278D01*
X095555Y048630D01*
X096052Y048630D01*
X096303Y048378D01*
X096555Y048630D01*
X097052Y048630D01*
X097403Y048223D02*
X101353Y048223D01*
X101353Y047984D02*
X097403Y047984D01*
X097403Y047746D02*
X101353Y047746D01*
X101353Y047507D02*
X097403Y047507D01*
X097370Y047268D02*
X101353Y047268D01*
X101353Y047030D02*
X097132Y047030D01*
X096474Y047030D02*
X096132Y047030D01*
X095474Y047030D02*
X092072Y047030D01*
X091992Y046950D02*
X092343Y047301D01*
X092343Y048278D01*
X091992Y048630D01*
X091495Y048630D01*
X091243Y048378D01*
X090992Y048630D01*
X090495Y048630D01*
X090143Y048278D01*
X090143Y047301D01*
X090495Y046950D01*
X090992Y046950D01*
X091243Y047201D01*
X091495Y046950D01*
X091992Y046950D01*
X092310Y047268D02*
X095236Y047268D01*
X095203Y047507D02*
X092343Y047507D01*
X092343Y047746D02*
X095203Y047746D01*
X095203Y047984D02*
X092343Y047984D01*
X092343Y048223D02*
X095203Y048223D01*
X095386Y048461D02*
X092160Y048461D01*
X091326Y048461D02*
X091160Y048461D01*
X090326Y048461D02*
X087100Y048461D01*
X086932Y048630D02*
X087283Y048278D01*
X087283Y047301D01*
X086932Y046950D01*
X086435Y046950D01*
X086183Y047201D01*
X085932Y046950D01*
X085435Y046950D01*
X085083Y047301D01*
X085083Y048278D01*
X085435Y048630D01*
X085932Y048630D01*
X086183Y048378D01*
X086435Y048630D01*
X086932Y048630D01*
X087283Y048223D02*
X090143Y048223D01*
X090143Y047984D02*
X087283Y047984D01*
X087283Y047746D02*
X090143Y047746D01*
X090143Y047507D02*
X087283Y047507D01*
X087250Y047268D02*
X090176Y047268D01*
X090414Y047030D02*
X087012Y047030D01*
X086354Y047030D02*
X086012Y047030D01*
X085354Y047030D02*
X081952Y047030D01*
X081872Y046950D02*
X082223Y047301D01*
X082223Y048278D01*
X081872Y048630D01*
X081375Y048630D01*
X081123Y048378D01*
X080872Y048630D01*
X080375Y048630D01*
X080023Y048278D01*
X080023Y047301D01*
X080375Y046950D01*
X080872Y046950D01*
X081123Y047201D01*
X081375Y046950D01*
X081872Y046950D01*
X082190Y047268D02*
X085116Y047268D01*
X085083Y047507D02*
X082223Y047507D01*
X082223Y047746D02*
X085083Y047746D01*
X085083Y047984D02*
X082223Y047984D01*
X082223Y048223D02*
X085083Y048223D01*
X085266Y048461D02*
X082040Y048461D01*
X081206Y048461D02*
X081040Y048461D01*
X080206Y048461D02*
X076980Y048461D01*
X076812Y048630D02*
X077163Y048278D01*
X077163Y047301D01*
X076973Y047111D01*
X076973Y047050D01*
X075733Y045810D01*
X075733Y045718D01*
X075648Y045512D01*
X075490Y045355D01*
X075284Y045270D01*
X075062Y045270D01*
X074856Y045355D01*
X074698Y045512D01*
X074613Y045718D01*
X074613Y045941D01*
X074698Y046147D01*
X074856Y046304D01*
X075062Y046390D01*
X075153Y046390D01*
X075713Y046950D01*
X075315Y046950D01*
X074963Y047301D01*
X074963Y048278D01*
X075315Y048630D01*
X075812Y048630D01*
X076063Y048378D01*
X076315Y048630D01*
X076812Y048630D01*
X077163Y048223D02*
X080023Y048223D01*
X080023Y047984D02*
X077163Y047984D01*
X077163Y047746D02*
X080023Y047746D01*
X080023Y047507D02*
X077163Y047507D01*
X077130Y047268D02*
X080056Y047268D01*
X080294Y047030D02*
X076953Y047030D01*
X076715Y046791D02*
X101353Y046791D01*
X101353Y046553D02*
X076476Y046553D01*
X076238Y046314D02*
X101353Y046314D01*
X101353Y046076D02*
X075999Y046076D01*
X075760Y045837D02*
X101353Y045837D01*
X101353Y045599D02*
X075684Y045599D01*
X075496Y045360D02*
X101353Y045360D01*
X101353Y045122D02*
X056383Y045122D01*
X056383Y045360D02*
X074851Y045360D01*
X074663Y045599D02*
X070355Y045599D01*
X070284Y045570D02*
X070490Y045655D01*
X070555Y045720D01*
X070643Y045720D01*
X070883Y045960D01*
X071913Y046990D01*
X071913Y047111D01*
X072103Y047301D01*
X072103Y048278D01*
X071752Y048630D01*
X071255Y048630D01*
X071003Y048378D01*
X070752Y048630D01*
X070255Y048630D01*
X069903Y048278D01*
X069903Y047301D01*
X070255Y046950D01*
X070713Y046950D01*
X070404Y046640D01*
X070284Y046690D01*
X070062Y046690D01*
X069856Y046604D01*
X069698Y046447D01*
X069613Y046241D01*
X069613Y046018D01*
X069698Y045812D01*
X069856Y045655D01*
X070062Y045570D01*
X070284Y045570D01*
X069991Y045599D02*
X056383Y045599D01*
X056383Y045837D02*
X069688Y045837D01*
X069613Y046076D02*
X065999Y046076D01*
X065943Y046020D02*
X066183Y046260D01*
X066613Y046690D01*
X066853Y046930D01*
X066853Y047111D01*
X067043Y047301D01*
X067043Y048278D01*
X066692Y048630D01*
X066195Y048630D01*
X065943Y048378D01*
X065692Y048630D01*
X065195Y048630D01*
X064843Y048278D01*
X064843Y047301D01*
X065155Y046990D01*
X064962Y046990D01*
X064756Y046904D01*
X064598Y046747D01*
X064513Y046541D01*
X064513Y046318D01*
X064598Y046112D01*
X064756Y045955D01*
X064962Y045870D01*
X065184Y045870D01*
X065390Y045955D01*
X065455Y046020D01*
X065943Y046020D01*
X066183Y046260D02*
X066183Y046260D01*
X066238Y046314D02*
X069643Y046314D01*
X069804Y046553D02*
X066476Y046553D01*
X066613Y046690D02*
X066613Y046690D01*
X066715Y046791D02*
X070555Y046791D01*
X070174Y047030D02*
X066853Y047030D01*
X067010Y047268D02*
X069936Y047268D01*
X069903Y047507D02*
X067043Y047507D01*
X067043Y047746D02*
X069903Y047746D01*
X069903Y047984D02*
X067043Y047984D01*
X067043Y048223D02*
X069903Y048223D01*
X070086Y048461D02*
X066860Y048461D01*
X066026Y048461D02*
X065860Y048461D01*
X065026Y048461D02*
X061800Y048461D01*
X061632Y048630D02*
X061983Y048278D01*
X061983Y047301D01*
X061632Y046950D01*
X061135Y046950D01*
X060883Y047201D01*
X060632Y046950D01*
X060135Y046950D01*
X059783Y047301D01*
X059783Y048278D01*
X060135Y048630D01*
X060632Y048630D01*
X060883Y048378D01*
X061135Y048630D01*
X061632Y048630D01*
X061983Y048223D02*
X064843Y048223D01*
X064843Y047984D02*
X061983Y047984D01*
X061983Y047746D02*
X064843Y047746D01*
X064843Y047507D02*
X061983Y047507D01*
X061950Y047268D02*
X064876Y047268D01*
X065114Y047030D02*
X061712Y047030D01*
X061054Y047030D02*
X060712Y047030D01*
X060054Y047030D02*
X056096Y047030D01*
X056133Y046941D02*
X056048Y047147D01*
X055890Y047304D01*
X055684Y047390D01*
X055462Y047390D01*
X055256Y047304D01*
X055098Y047147D01*
X055013Y046941D01*
X055013Y046718D01*
X055098Y046512D01*
X055163Y046448D01*
X055163Y041512D01*
X055098Y041447D01*
X055013Y041241D01*
X055013Y041018D01*
X055098Y040812D01*
X055256Y040655D01*
X055462Y040570D01*
X055684Y040570D01*
X055890Y040655D01*
X056048Y040812D01*
X056133Y041018D01*
X056133Y041090D01*
X056290Y041155D01*
X056448Y041312D01*
X056533Y041518D01*
X056533Y041741D01*
X056448Y041947D01*
X056383Y042012D01*
X056383Y045948D01*
X056448Y046012D01*
X056533Y046218D01*
X056533Y046441D01*
X056448Y046647D01*
X056290Y046804D01*
X056133Y046869D01*
X056133Y046941D01*
X056303Y046791D02*
X064643Y046791D01*
X064518Y046553D02*
X056487Y046553D01*
X056533Y046314D02*
X064515Y046314D01*
X064635Y046076D02*
X056474Y046076D01*
X055163Y046076D02*
X028683Y046076D01*
X028683Y045837D02*
X055163Y045837D01*
X055163Y045599D02*
X028683Y045599D01*
X028683Y045360D02*
X055163Y045360D01*
X055163Y045122D02*
X047723Y045122D01*
X047908Y044936D02*
X047524Y045320D01*
X046982Y045320D01*
X046753Y045091D01*
X046524Y045320D01*
X045982Y045320D01*
X045893Y045231D01*
X045893Y045279D01*
X045823Y045350D01*
X044623Y045350D01*
X044553Y045279D01*
X044553Y043480D01*
X044623Y043410D01*
X045823Y043410D01*
X045843Y043430D01*
X045843Y042019D01*
X045843Y041680D01*
X047363Y040160D01*
X047363Y035099D01*
X046203Y033940D01*
X045963Y033699D01*
X045963Y032719D01*
X044963Y033719D01*
X044963Y034008D01*
X045053Y034098D01*
X045282Y033869D01*
X045824Y033869D01*
X046208Y034253D01*
X046208Y035386D01*
X045824Y035770D01*
X045282Y035770D01*
X045053Y035541D01*
X044824Y035770D01*
X044282Y035770D01*
X044192Y035680D01*
X044143Y035730D01*
X042943Y035730D01*
X042873Y035659D01*
X042873Y033860D01*
X042943Y033790D01*
X044143Y033790D01*
X044143Y033719D01*
X044143Y033380D01*
X047363Y030160D01*
X047603Y029920D01*
X048091Y029920D01*
X048156Y029855D01*
X047453Y029855D01*
X047453Y029988D02*
X047102Y030340D01*
X046605Y030340D01*
X046353Y030088D01*
X046102Y030340D01*
X045605Y030340D01*
X045253Y029988D01*
X045253Y029011D01*
X045605Y028660D01*
X046102Y028660D01*
X046353Y028911D01*
X046605Y028660D01*
X047102Y028660D01*
X047453Y029011D01*
X047453Y029988D01*
X047429Y030093D02*
X047348Y030093D01*
X047191Y030332D02*
X047109Y030332D01*
X046952Y030570D02*
X007783Y030570D01*
X007734Y030809D02*
X039602Y030809D01*
X039656Y030755D02*
X039862Y030670D01*
X040084Y030670D01*
X040290Y030755D01*
X040448Y030912D01*
X040533Y031118D01*
X040533Y031210D01*
X041393Y032070D01*
X041484Y032070D01*
X041690Y032155D01*
X041848Y032312D01*
X041933Y032518D01*
X041933Y032741D01*
X041848Y032947D01*
X041690Y033104D01*
X041519Y033175D01*
X041448Y033347D01*
X041290Y033504D01*
X041119Y033575D01*
X041048Y033747D01*
X040890Y033904D01*
X040719Y033975D01*
X040648Y034147D01*
X040490Y034304D01*
X040284Y034390D01*
X040062Y034390D01*
X039856Y034304D01*
X039698Y034147D01*
X039613Y033941D01*
X039613Y033849D01*
X038753Y032990D01*
X038662Y032990D01*
X038456Y032904D01*
X038298Y032747D01*
X038213Y032541D01*
X038213Y032318D01*
X038298Y032112D01*
X038456Y031955D01*
X038627Y031884D01*
X038698Y031712D01*
X038856Y031555D01*
X039027Y031484D01*
X039098Y031312D01*
X039256Y031155D01*
X039427Y031084D01*
X039498Y030912D01*
X039656Y030755D01*
X039442Y031048D02*
X007547Y031048D01*
X007727Y030332D02*
X024567Y030332D01*
X024575Y030340D02*
X024223Y029988D01*
X024223Y029011D01*
X024575Y028660D01*
X025072Y028660D01*
X025323Y028911D01*
X025575Y028660D01*
X026072Y028660D01*
X026423Y029011D01*
X026423Y029988D01*
X026072Y030340D01*
X025575Y030340D01*
X025323Y030088D01*
X025072Y030340D01*
X024575Y030340D01*
X024328Y030093D02*
X007633Y030093D01*
X007633Y029855D02*
X024223Y029855D01*
X024223Y029616D02*
X007633Y029616D01*
X007633Y029378D02*
X024223Y029378D01*
X024223Y029139D02*
X007633Y029139D01*
X007633Y028901D02*
X024334Y028901D01*
X024572Y028662D02*
X007633Y028662D01*
X007633Y028424D02*
X048387Y028424D01*
X048626Y028662D02*
X047104Y028662D01*
X047343Y028901D02*
X048864Y028901D01*
X049103Y029139D02*
X047453Y029139D01*
X047453Y029378D02*
X049341Y029378D01*
X049463Y029616D02*
X047453Y029616D01*
X048156Y029855D02*
X048362Y029770D01*
X048584Y029770D01*
X048790Y029855D01*
X049463Y029855D01*
X049463Y030093D02*
X048981Y030093D01*
X048948Y030012D02*
X049019Y030184D01*
X049190Y030255D01*
X049348Y030412D01*
X049433Y030618D01*
X049433Y030841D01*
X049348Y031047D01*
X049190Y031204D01*
X048984Y031290D01*
X048762Y031290D01*
X048556Y031204D01*
X048491Y031140D01*
X047843Y031140D01*
X046783Y032199D01*
X046783Y033360D01*
X048183Y034760D01*
X048183Y035099D01*
X048183Y040499D01*
X047943Y040740D01*
X046663Y042019D01*
X046663Y043558D01*
X046753Y043648D01*
X046982Y043419D01*
X047524Y043419D01*
X047908Y043803D01*
X047908Y044936D01*
X047908Y044883D02*
X054146Y044883D01*
X054162Y044890D02*
X053956Y044804D01*
X053798Y044647D01*
X053713Y044441D01*
X053713Y044390D01*
X053662Y044390D01*
X053456Y044304D01*
X053298Y044147D01*
X053213Y043941D01*
X053213Y043890D01*
X053162Y043890D01*
X052956Y043804D01*
X052798Y043647D01*
X052713Y043441D01*
X052713Y043390D01*
X052662Y043390D01*
X052456Y043304D01*
X052298Y043147D01*
X052213Y042941D01*
X052213Y042718D01*
X052298Y042512D01*
X052363Y042448D01*
X052363Y040812D01*
X052298Y040747D01*
X052213Y040541D01*
X052213Y040318D01*
X052298Y040112D01*
X052456Y039955D01*
X052662Y039870D01*
X052884Y039870D01*
X053090Y039955D01*
X053248Y040112D01*
X101353Y040112D01*
X101353Y039874D02*
X052894Y039874D01*
X052652Y039874D02*
X048183Y039874D01*
X048183Y040112D02*
X052299Y040112D01*
X052213Y040351D02*
X048183Y040351D01*
X048093Y040589D02*
X052233Y040589D01*
X052363Y040828D02*
X047855Y040828D01*
X047616Y041066D02*
X052363Y041066D01*
X052363Y041305D02*
X047378Y041305D01*
X047139Y041543D02*
X052363Y041543D01*
X052363Y041782D02*
X046900Y041782D01*
X046663Y042021D02*
X052363Y042021D01*
X052363Y042259D02*
X046663Y042259D01*
X046663Y042498D02*
X052313Y042498D01*
X052213Y042736D02*
X046663Y042736D01*
X046663Y042975D02*
X052227Y042975D01*
X052365Y043213D02*
X046663Y043213D01*
X046663Y043452D02*
X046949Y043452D01*
X047557Y043452D02*
X052718Y043452D01*
X052842Y043690D02*
X047796Y043690D01*
X047908Y043929D02*
X053213Y043929D01*
X053319Y044167D02*
X047908Y044167D01*
X047908Y044406D02*
X053713Y044406D01*
X053797Y044644D02*
X047908Y044644D01*
X046783Y045122D02*
X046723Y045122D01*
X045253Y044370D02*
X045253Y043210D01*
X045173Y043130D01*
X044581Y043452D02*
X028683Y043452D01*
X028683Y043690D02*
X044553Y043690D01*
X044553Y043929D02*
X028683Y043929D01*
X028683Y044167D02*
X044553Y044167D01*
X044553Y044406D02*
X028683Y044406D01*
X028683Y044644D02*
X044553Y044644D01*
X044553Y044883D02*
X028683Y044883D01*
X028683Y045122D02*
X044553Y045122D01*
X044684Y046310D02*
X044985Y046434D01*
X045216Y046665D01*
X045341Y046966D01*
X045341Y047293D01*
X045216Y047594D01*
X044985Y047825D01*
X044684Y047950D01*
X044358Y047950D01*
X044056Y047825D01*
X043826Y047594D01*
X043701Y047293D01*
X043701Y046966D01*
X043826Y046665D01*
X044056Y046434D01*
X044358Y046310D01*
X044684Y046310D01*
X044695Y046314D02*
X047811Y046314D01*
X047822Y046310D02*
X048148Y046310D01*
X048450Y046434D01*
X048680Y046665D01*
X048805Y046966D01*
X048805Y047293D01*
X048680Y047594D01*
X048450Y047825D01*
X048148Y047950D01*
X047822Y047950D01*
X047521Y047825D01*
X047290Y047594D01*
X047165Y047293D01*
X047165Y046966D01*
X047290Y046665D01*
X047521Y046434D01*
X047822Y046310D01*
X048160Y046314D02*
X055163Y046314D01*
X055082Y046553D02*
X048568Y046553D01*
X048733Y046791D02*
X055013Y046791D01*
X055050Y047030D02*
X048805Y047030D01*
X048805Y047268D02*
X055220Y047268D01*
X055926Y047268D02*
X059816Y047268D01*
X059783Y047507D02*
X048717Y047507D01*
X048529Y047746D02*
X059783Y047746D01*
X059783Y047984D02*
X028610Y047984D01*
X028823Y047746D02*
X035753Y047746D01*
X035753Y047779D02*
X035753Y046280D01*
X035823Y046210D01*
X036723Y046210D01*
X036793Y046280D01*
X036793Y046491D01*
X037085Y046200D01*
X037582Y046200D01*
X037933Y046551D01*
X037933Y047528D01*
X037582Y047880D01*
X037085Y047880D01*
X036793Y047588D01*
X036793Y047779D01*
X036723Y047850D01*
X035823Y047850D01*
X035753Y047779D01*
X035753Y047507D02*
X028823Y047507D01*
X028784Y047268D02*
X035753Y047268D01*
X035753Y047030D02*
X028565Y047030D01*
X028803Y046791D02*
X035753Y046791D01*
X035753Y046553D02*
X028823Y046553D01*
X028823Y046314D02*
X035753Y046314D01*
X036793Y046314D02*
X036970Y046314D01*
X037696Y046314D02*
X044346Y046314D01*
X043938Y046553D02*
X037933Y046553D01*
X037933Y046791D02*
X043773Y046791D01*
X043701Y047030D02*
X037933Y047030D01*
X037933Y047268D02*
X043701Y047268D01*
X043790Y047507D02*
X037933Y047507D01*
X037716Y047746D02*
X043977Y047746D01*
X045064Y047746D02*
X047442Y047746D01*
X047254Y047507D02*
X045252Y047507D01*
X045341Y047268D02*
X047165Y047268D01*
X047165Y047030D02*
X045341Y047030D01*
X045268Y046791D02*
X047238Y046791D01*
X047402Y046553D02*
X045104Y046553D01*
X045843Y043213D02*
X028683Y043213D01*
X028720Y042975D02*
X045843Y042975D01*
X045843Y042736D02*
X028833Y042736D01*
X028824Y042498D02*
X045843Y042498D01*
X045843Y042259D02*
X028694Y042259D01*
X027852Y042259D02*
X022333Y042259D01*
X022333Y042423D02*
X022333Y042037D01*
X022185Y041680D01*
X021913Y041407D01*
X021556Y041260D01*
X021170Y041260D01*
X020814Y041407D01*
X020541Y041680D01*
X020393Y042037D01*
X020393Y042423D01*
X020541Y042779D01*
X020814Y043052D01*
X021170Y043200D01*
X021556Y043200D01*
X021913Y043052D01*
X022185Y042779D01*
X022333Y042423D01*
X022302Y042498D02*
X027722Y042498D01*
X027713Y042736D02*
X022203Y042736D01*
X021990Y042975D02*
X027826Y042975D01*
X027863Y043213D02*
X008366Y043213D01*
X008366Y042975D02*
X011356Y042975D01*
X011434Y043052D02*
X011161Y042779D01*
X011013Y042423D01*
X011013Y042037D01*
X011161Y041680D01*
X011434Y041407D01*
X011790Y041260D01*
X012176Y041260D01*
X012533Y041407D01*
X012805Y041680D01*
X012953Y042037D01*
X012953Y042423D01*
X012805Y042779D01*
X012533Y043052D01*
X012176Y043200D01*
X011790Y043200D01*
X011434Y043052D01*
X011143Y042736D02*
X008280Y042736D01*
X008041Y042498D02*
X011044Y042498D01*
X011013Y042259D02*
X007366Y042259D01*
X007366Y042021D02*
X011020Y042021D01*
X011119Y041782D02*
X007325Y041782D01*
X007087Y041543D02*
X011297Y041543D01*
X011681Y041305D02*
X001993Y041305D01*
X001993Y041543D02*
X004132Y041543D01*
X003929Y041782D02*
X001993Y041782D01*
X001993Y042021D02*
X003833Y042021D01*
X003833Y042259D02*
X001993Y042259D01*
X001993Y042498D02*
X002205Y042498D01*
X003041Y042498D02*
X003904Y042498D01*
X004072Y042736D02*
X003280Y042736D01*
X004144Y040828D02*
X001993Y040828D01*
X001993Y041066D02*
X046456Y041066D01*
X046218Y041305D02*
X021665Y041305D01*
X022049Y041543D02*
X045979Y041543D01*
X045843Y041782D02*
X022228Y041782D01*
X022326Y042021D02*
X045843Y042021D01*
X046695Y040828D02*
X007075Y040828D01*
X007313Y040589D02*
X046934Y040589D01*
X047172Y040351D02*
X007366Y040351D01*
X007366Y040112D02*
X047363Y040112D01*
X047363Y039874D02*
X008029Y039874D01*
X008268Y039635D02*
X047363Y039635D01*
X047363Y039397D02*
X008366Y039397D01*
X008366Y039158D02*
X047363Y039158D01*
X047363Y038919D02*
X008363Y038919D01*
X008124Y038681D02*
X047363Y038681D01*
X048183Y038681D02*
X101353Y038681D01*
X101353Y038919D02*
X048183Y038919D01*
X048183Y039158D02*
X101353Y039158D01*
X101353Y039397D02*
X048183Y039397D01*
X048183Y039635D02*
X101353Y039635D01*
X101353Y040351D02*
X053580Y040351D01*
X053590Y040355D02*
X053748Y040512D01*
X053813Y040670D01*
X053884Y040670D01*
X054090Y040755D01*
X054248Y040912D01*
X054313Y041070D01*
X054384Y041070D01*
X054590Y041155D01*
X054748Y041312D01*
X054833Y041518D01*
X054833Y041741D01*
X054748Y041947D01*
X054683Y042012D01*
X054683Y043948D01*
X054748Y044012D01*
X054833Y044218D01*
X054833Y044441D01*
X054748Y044647D01*
X054590Y044804D01*
X054384Y044890D01*
X054162Y044890D01*
X054400Y044883D02*
X055163Y044883D01*
X055163Y044644D02*
X054749Y044644D01*
X054833Y044406D02*
X055163Y044406D01*
X055163Y044167D02*
X054812Y044167D01*
X054683Y043929D02*
X055163Y043929D01*
X055163Y043690D02*
X054683Y043690D01*
X054683Y043452D02*
X055163Y043452D01*
X055163Y043213D02*
X054683Y043213D01*
X054683Y042975D02*
X055163Y042975D01*
X055163Y042736D02*
X054683Y042736D01*
X054683Y042498D02*
X055163Y042498D01*
X055163Y042259D02*
X054683Y042259D01*
X054683Y042021D02*
X055163Y042021D01*
X055163Y041782D02*
X054816Y041782D01*
X054833Y041543D02*
X055163Y041543D01*
X055040Y041305D02*
X054740Y041305D01*
X055013Y041066D02*
X054312Y041066D01*
X054163Y040828D02*
X055092Y040828D01*
X055414Y040589D02*
X053780Y040589D01*
X053590Y040355D02*
X053384Y040270D01*
X053313Y040270D01*
X053248Y040112D01*
X055732Y040589D02*
X101353Y040589D01*
X101353Y040828D02*
X056054Y040828D01*
X056133Y041066D02*
X101353Y041066D01*
X101353Y041305D02*
X056440Y041305D01*
X056533Y041543D02*
X101353Y041543D01*
X101353Y041782D02*
X097526Y041782D01*
X097374Y041630D02*
X096709Y041630D01*
X096303Y042036D01*
X095897Y041630D01*
X095232Y041630D01*
X094762Y042100D01*
X094762Y043650D01*
X095232Y044120D01*
X095897Y044120D01*
X096303Y043714D01*
X096709Y044120D01*
X097374Y044120D01*
X097844Y043650D01*
X097844Y042100D01*
X097374Y041630D01*
X097764Y042021D02*
X101353Y042021D01*
X101353Y042259D02*
X097844Y042259D01*
X097844Y042498D02*
X101353Y042498D01*
X101353Y042736D02*
X097844Y042736D01*
X097844Y042975D02*
X101353Y042975D01*
X101353Y043213D02*
X097844Y043213D01*
X097844Y043452D02*
X101353Y043452D01*
X101353Y043690D02*
X097803Y043690D01*
X097565Y043929D02*
X101353Y043929D01*
X101353Y044167D02*
X056383Y044167D01*
X056383Y043929D02*
X059621Y043929D01*
X059812Y044120D02*
X059342Y043650D01*
X059342Y042100D01*
X059812Y041630D01*
X060477Y041630D01*
X060883Y042036D01*
X061289Y041630D01*
X061954Y041630D01*
X062424Y042100D01*
X062424Y043650D01*
X061954Y044120D01*
X061289Y044120D01*
X060883Y043714D01*
X060477Y044120D01*
X059812Y044120D01*
X059383Y043690D02*
X056383Y043690D01*
X056383Y043452D02*
X059342Y043452D01*
X059342Y043213D02*
X056383Y043213D01*
X056383Y042975D02*
X059342Y042975D01*
X059342Y042736D02*
X056383Y042736D01*
X056383Y042498D02*
X059342Y042498D01*
X059342Y042259D02*
X056383Y042259D01*
X056383Y042021D02*
X059422Y042021D01*
X059660Y041782D02*
X056516Y041782D01*
X056383Y044406D02*
X101353Y044406D01*
X101353Y044644D02*
X056383Y044644D01*
X056383Y044883D02*
X101353Y044883D01*
X096518Y043929D02*
X096088Y043929D01*
X095041Y043929D02*
X092505Y043929D01*
X092314Y044120D02*
X091649Y044120D01*
X091243Y043714D01*
X090837Y044120D01*
X090172Y044120D01*
X089702Y043650D01*
X089702Y042100D01*
X090172Y041630D01*
X090837Y041630D01*
X091243Y042036D01*
X091649Y041630D01*
X092314Y041630D01*
X092784Y042100D01*
X092784Y043650D01*
X092314Y044120D01*
X092743Y043690D02*
X094803Y043690D01*
X094762Y043452D02*
X092784Y043452D01*
X092784Y043213D02*
X094762Y043213D01*
X094762Y042975D02*
X092784Y042975D01*
X092784Y042736D02*
X094762Y042736D01*
X094762Y042498D02*
X092784Y042498D01*
X092784Y042259D02*
X094762Y042259D01*
X094842Y042021D02*
X092704Y042021D01*
X092466Y041782D02*
X095080Y041782D01*
X096049Y041782D02*
X096557Y041782D01*
X096318Y042021D02*
X096288Y042021D01*
X091497Y041782D02*
X090989Y041782D01*
X091228Y042021D02*
X091258Y042021D01*
X090020Y041782D02*
X087406Y041782D01*
X087254Y041630D02*
X087724Y042100D01*
X087724Y043650D01*
X087254Y044120D01*
X086589Y044120D01*
X086183Y043714D01*
X085777Y044120D01*
X085112Y044120D01*
X084642Y043650D01*
X084642Y042100D01*
X085112Y041630D01*
X085777Y041630D01*
X086183Y042036D01*
X086589Y041630D01*
X087254Y041630D01*
X087644Y042021D02*
X089782Y042021D01*
X089702Y042259D02*
X087724Y042259D01*
X087724Y042498D02*
X089702Y042498D01*
X089702Y042736D02*
X087724Y042736D01*
X087724Y042975D02*
X089702Y042975D01*
X089702Y043213D02*
X087724Y043213D01*
X087724Y043452D02*
X089702Y043452D01*
X089743Y043690D02*
X087683Y043690D01*
X087445Y043929D02*
X089981Y043929D01*
X091028Y043929D02*
X091458Y043929D01*
X086398Y043929D02*
X085968Y043929D01*
X084921Y043929D02*
X082385Y043929D01*
X082194Y044120D02*
X082664Y043650D01*
X082664Y042100D01*
X082194Y041630D01*
X081529Y041630D01*
X081123Y042036D01*
X080717Y041630D01*
X080052Y041630D01*
X079582Y042100D01*
X079582Y043650D01*
X080052Y044120D01*
X080717Y044120D01*
X081123Y043714D01*
X081529Y044120D01*
X082194Y044120D01*
X082623Y043690D02*
X084683Y043690D01*
X084642Y043452D02*
X082664Y043452D01*
X082664Y043213D02*
X084642Y043213D01*
X084642Y042975D02*
X082664Y042975D01*
X082664Y042736D02*
X084642Y042736D01*
X084642Y042498D02*
X082664Y042498D01*
X082664Y042259D02*
X084642Y042259D01*
X084722Y042021D02*
X082584Y042021D01*
X082346Y041782D02*
X084960Y041782D01*
X085929Y041782D02*
X086437Y041782D01*
X086198Y042021D02*
X086168Y042021D01*
X081377Y041782D02*
X080869Y041782D01*
X081108Y042021D02*
X081138Y042021D01*
X079900Y041782D02*
X077286Y041782D01*
X077134Y041630D02*
X077604Y042100D01*
X077604Y043650D01*
X077134Y044120D01*
X076469Y044120D01*
X076063Y043714D01*
X075657Y044120D01*
X074992Y044120D01*
X074522Y043650D01*
X074522Y042100D01*
X074992Y041630D01*
X075657Y041630D01*
X076063Y042036D01*
X076469Y041630D01*
X077134Y041630D01*
X077524Y042021D02*
X079662Y042021D01*
X079582Y042259D02*
X077604Y042259D01*
X077604Y042498D02*
X079582Y042498D01*
X079582Y042736D02*
X077604Y042736D01*
X077604Y042975D02*
X079582Y042975D01*
X079582Y043213D02*
X077604Y043213D01*
X077604Y043452D02*
X079582Y043452D01*
X079623Y043690D02*
X077563Y043690D01*
X077325Y043929D02*
X079861Y043929D01*
X080908Y043929D02*
X081338Y043929D01*
X076278Y043929D02*
X075848Y043929D01*
X074801Y043929D02*
X072265Y043929D01*
X072074Y044120D02*
X072544Y043650D01*
X072544Y042100D01*
X072074Y041630D01*
X071409Y041630D01*
X071003Y042036D01*
X070597Y041630D01*
X069932Y041630D01*
X069462Y042100D01*
X069462Y043650D01*
X069932Y044120D01*
X070597Y044120D01*
X071003Y043714D01*
X071409Y044120D01*
X072074Y044120D01*
X072503Y043690D02*
X074563Y043690D01*
X074522Y043452D02*
X072544Y043452D01*
X072544Y043213D02*
X074522Y043213D01*
X074522Y042975D02*
X072544Y042975D01*
X072544Y042736D02*
X074522Y042736D01*
X074522Y042498D02*
X072544Y042498D01*
X072544Y042259D02*
X074522Y042259D01*
X074602Y042021D02*
X072464Y042021D01*
X072226Y041782D02*
X074840Y041782D01*
X075809Y041782D02*
X076317Y041782D01*
X076078Y042021D02*
X076048Y042021D01*
X071257Y041782D02*
X070749Y041782D01*
X070988Y042021D02*
X071018Y042021D01*
X069780Y041782D02*
X067166Y041782D01*
X067014Y041630D02*
X067484Y042100D01*
X067484Y043650D01*
X067014Y044120D01*
X066349Y044120D01*
X065943Y043714D01*
X065537Y044120D01*
X064872Y044120D01*
X064402Y043650D01*
X064402Y042100D01*
X064872Y041630D01*
X065537Y041630D01*
X065943Y042036D01*
X066349Y041630D01*
X067014Y041630D01*
X067404Y042021D02*
X069542Y042021D01*
X069462Y042259D02*
X067484Y042259D01*
X067484Y042498D02*
X069462Y042498D01*
X069462Y042736D02*
X067484Y042736D01*
X067484Y042975D02*
X069462Y042975D01*
X069462Y043213D02*
X067484Y043213D01*
X067484Y043452D02*
X069462Y043452D01*
X069503Y043690D02*
X067443Y043690D01*
X067205Y043929D02*
X069741Y043929D01*
X070788Y043929D02*
X071218Y043929D01*
X070760Y045837D02*
X074613Y045837D01*
X074669Y046076D02*
X070999Y046076D01*
X071238Y046314D02*
X074880Y046314D01*
X075317Y046553D02*
X071476Y046553D01*
X071715Y046791D02*
X075555Y046791D01*
X075234Y047030D02*
X071913Y047030D01*
X072070Y047268D02*
X074996Y047268D01*
X074963Y047507D02*
X072103Y047507D01*
X072103Y047746D02*
X074963Y047746D01*
X074963Y047984D02*
X072103Y047984D01*
X072103Y048223D02*
X074963Y048223D01*
X075146Y048461D02*
X071920Y048461D01*
X071086Y048461D02*
X070920Y048461D01*
X075980Y048461D02*
X076146Y048461D01*
X080952Y047030D02*
X081294Y047030D01*
X086100Y048461D02*
X086266Y048461D01*
X091072Y047030D02*
X091414Y047030D01*
X096220Y048461D02*
X096386Y048461D01*
X097470Y051210D02*
X097876Y051210D01*
X098251Y051365D01*
X098538Y051652D01*
X098693Y052027D01*
X098693Y052432D01*
X098538Y052807D01*
X098251Y053094D01*
X097876Y053250D01*
X097470Y053250D01*
X097095Y053094D01*
X096808Y052807D01*
X096653Y052432D01*
X096653Y052027D01*
X096808Y051652D01*
X097095Y051365D01*
X097470Y051210D01*
X097195Y051324D02*
X052151Y051324D01*
X052251Y051365D02*
X052538Y051652D01*
X052693Y052027D01*
X052693Y052432D01*
X052538Y052807D01*
X052251Y053094D01*
X051876Y053250D01*
X051470Y053250D01*
X051095Y053094D01*
X050808Y052807D01*
X050653Y052432D01*
X050653Y052027D01*
X050808Y051652D01*
X051095Y051365D01*
X051470Y051210D01*
X051876Y051210D01*
X052251Y051365D01*
X052448Y051562D02*
X096898Y051562D01*
X096747Y051801D02*
X052599Y051801D01*
X052693Y052039D02*
X096653Y052039D01*
X096653Y052278D02*
X052693Y052278D01*
X052658Y052516D02*
X096688Y052516D01*
X096787Y052755D02*
X052559Y052755D01*
X052352Y052994D02*
X096994Y052994D01*
X097428Y053232D02*
X051918Y053232D01*
X051428Y053232D02*
X005918Y053232D01*
X005876Y053250D02*
X005470Y053250D01*
X005095Y053094D01*
X004808Y052807D01*
X004653Y052432D01*
X004653Y052027D01*
X004808Y051652D01*
X005095Y051365D01*
X005470Y051210D01*
X005876Y051210D01*
X006251Y051365D01*
X006538Y051652D01*
X006693Y052027D01*
X006693Y052432D01*
X006538Y052807D01*
X006251Y053094D01*
X005876Y053250D01*
X005428Y053232D02*
X001993Y053232D01*
X001993Y052994D02*
X004994Y052994D01*
X004787Y052755D02*
X001993Y052755D01*
X001993Y052516D02*
X004688Y052516D01*
X004653Y052278D02*
X001993Y052278D01*
X001993Y052039D02*
X004653Y052039D01*
X004747Y051801D02*
X001993Y051801D01*
X001993Y051562D02*
X004898Y051562D01*
X005195Y051324D02*
X001993Y051324D01*
X001993Y053471D02*
X101353Y053471D01*
X101353Y053709D02*
X001993Y053709D01*
X001993Y053948D02*
X101353Y053948D01*
X101353Y054186D02*
X001993Y054186D01*
X006352Y052994D02*
X050994Y052994D01*
X050787Y052755D02*
X006559Y052755D01*
X006658Y052516D02*
X050688Y052516D01*
X050653Y052278D02*
X006693Y052278D01*
X006693Y052039D02*
X050653Y052039D01*
X050747Y051801D02*
X006599Y051801D01*
X006448Y051562D02*
X050898Y051562D01*
X051195Y051324D02*
X006151Y051324D01*
X007103Y048700D02*
X013213Y048700D01*
X013213Y048461D02*
X007341Y048461D01*
X007366Y048223D02*
X013213Y048223D01*
X017301Y049415D02*
X018103Y049415D01*
X018103Y049654D02*
X017539Y049654D01*
X017637Y049892D02*
X018166Y049892D01*
X020243Y048461D02*
X059966Y048461D01*
X059783Y048223D02*
X020243Y048223D01*
X020243Y047984D02*
X025916Y047984D01*
X025703Y047746D02*
X020243Y047746D01*
X020243Y047507D02*
X025703Y047507D01*
X025742Y047268D02*
X020243Y047268D01*
X020243Y047030D02*
X025704Y047030D01*
X025703Y046791D02*
X020243Y046791D01*
X020243Y046553D02*
X025703Y046553D01*
X026263Y046540D02*
X026273Y046530D01*
X026273Y045830D01*
X026853Y046076D02*
X026935Y046076D01*
X027591Y046076D02*
X027863Y046076D01*
X027863Y045837D02*
X007735Y045837D01*
X007793Y045599D02*
X027863Y045599D01*
X027863Y045360D02*
X007793Y045360D01*
X007793Y045122D02*
X027863Y045122D01*
X027863Y044883D02*
X007793Y044883D01*
X008273Y045130D02*
X006623Y045130D01*
X008112Y043690D02*
X027863Y043690D01*
X027863Y043452D02*
X008351Y043452D01*
X012285Y041305D02*
X021061Y041305D01*
X020677Y041543D02*
X012669Y041543D01*
X012848Y041782D02*
X020499Y041782D01*
X020400Y042021D02*
X012946Y042021D01*
X012953Y042259D02*
X020393Y042259D01*
X020424Y042498D02*
X012922Y042498D01*
X012823Y042736D02*
X020523Y042736D01*
X020736Y042975D02*
X012610Y042975D01*
X003934Y040589D02*
X001993Y040589D01*
X001993Y040351D02*
X003835Y040351D01*
X003833Y040112D02*
X001993Y040112D01*
X001993Y039874D02*
X002217Y039874D01*
X003029Y039874D02*
X003899Y039874D01*
X004060Y039635D02*
X003268Y039635D01*
X002116Y036773D02*
X001993Y036773D01*
X001993Y033194D02*
X011051Y033194D01*
X011150Y032956D02*
X010039Y032956D01*
X010201Y032717D02*
X011374Y032717D01*
X012593Y032717D02*
X020754Y032717D01*
X020530Y032956D02*
X012816Y032956D01*
X012915Y033194D02*
X020431Y033194D01*
X020393Y033433D02*
X012953Y033433D01*
X012953Y033671D02*
X020393Y033671D01*
X020491Y033910D02*
X012855Y033910D01*
X012686Y034149D02*
X020660Y034149D01*
X022066Y034149D02*
X026913Y034149D01*
X026913Y033910D02*
X022235Y033910D01*
X022333Y033671D02*
X039435Y033671D01*
X039613Y033910D02*
X029935Y033910D01*
X030174Y034149D02*
X039700Y034149D01*
X040056Y034387D02*
X030278Y034387D01*
X030278Y034626D02*
X042873Y034626D01*
X042873Y034864D02*
X030278Y034864D01*
X030278Y035103D02*
X042873Y035103D01*
X042873Y035341D02*
X030278Y035341D01*
X030085Y035580D02*
X042873Y035580D01*
X043553Y034820D02*
X043553Y033610D01*
X043373Y033430D01*
X042873Y033910D02*
X040876Y033910D01*
X041079Y033671D02*
X044143Y033671D01*
X044143Y033790D02*
X044143Y033790D01*
X044143Y033433D02*
X041362Y033433D01*
X041511Y033194D02*
X044328Y033194D01*
X044567Y032956D02*
X041839Y032956D01*
X041933Y032717D02*
X044806Y032717D01*
X045044Y032479D02*
X041917Y032479D01*
X041776Y032240D02*
X045283Y032240D01*
X045521Y032002D02*
X041325Y032002D01*
X041086Y031763D02*
X045760Y031763D01*
X045998Y031525D02*
X040848Y031525D01*
X040609Y031286D02*
X046237Y031286D01*
X046475Y031048D02*
X040504Y031048D01*
X040344Y030809D02*
X046714Y030809D01*
X046597Y030332D02*
X046109Y030332D01*
X046348Y030093D02*
X046358Y030093D01*
X045597Y030332D02*
X040099Y030332D01*
X040092Y030340D02*
X039595Y030340D01*
X039343Y030088D01*
X039092Y030340D01*
X038595Y030340D01*
X038243Y029988D01*
X038243Y029011D01*
X038595Y028660D01*
X039092Y028660D01*
X039343Y028911D01*
X039595Y028660D01*
X040092Y028660D01*
X040443Y029011D01*
X040443Y029988D01*
X040092Y030340D01*
X040338Y030093D02*
X045358Y030093D01*
X045253Y029855D02*
X040443Y029855D01*
X040443Y029616D02*
X045253Y029616D01*
X045253Y029378D02*
X040443Y029378D01*
X040443Y029139D02*
X045253Y029139D01*
X045364Y028901D02*
X040333Y028901D01*
X040094Y028662D02*
X045602Y028662D01*
X046104Y028662D02*
X046602Y028662D01*
X046364Y028901D02*
X046343Y028901D01*
X047672Y027708D02*
X007633Y027708D01*
X007633Y027946D02*
X047910Y027946D01*
X048149Y028185D02*
X007633Y028185D01*
X007633Y027469D02*
X047433Y027469D01*
X047194Y027231D02*
X007664Y027231D01*
X007783Y026992D02*
X046956Y026992D01*
X051177Y026754D02*
X052505Y026754D01*
X048948Y030012D02*
X048790Y029855D01*
X049267Y030332D02*
X049463Y030332D01*
X049463Y030570D02*
X049413Y030570D01*
X049433Y030809D02*
X049463Y030809D01*
X049463Y031048D02*
X049347Y031048D01*
X049463Y031286D02*
X048993Y031286D01*
X048753Y031286D02*
X047696Y031286D01*
X047458Y031525D02*
X049463Y031525D01*
X049463Y031763D02*
X047219Y031763D01*
X046981Y032002D02*
X049463Y032002D01*
X049463Y032240D02*
X046783Y032240D01*
X046783Y032479D02*
X049463Y032479D01*
X049463Y032717D02*
X048353Y032717D01*
X047593Y032717D02*
X046783Y032717D01*
X046783Y032956D02*
X047439Y032956D01*
X047413Y033194D02*
X046783Y033194D01*
X046856Y033433D02*
X047493Y033433D01*
X047818Y033671D02*
X047095Y033671D01*
X047333Y033910D02*
X048062Y033910D01*
X048458Y034149D02*
X047572Y034149D01*
X047810Y034387D02*
X048639Y034387D01*
X048990Y034626D02*
X048049Y034626D01*
X048183Y034864D02*
X049300Y034864D01*
X049554Y035103D02*
X048183Y035103D01*
X048183Y035341D02*
X049955Y035341D01*
X050131Y035580D02*
X048183Y035580D01*
X048183Y035818D02*
X050487Y035818D01*
X050783Y036057D02*
X048183Y036057D01*
X048183Y036295D02*
X051047Y036295D01*
X051693Y036534D02*
X048183Y036534D01*
X048183Y036773D02*
X052021Y036773D01*
X052326Y036773D02*
X101353Y036773D01*
X101353Y037011D02*
X048183Y037011D01*
X048183Y037250D02*
X101353Y037250D01*
X101353Y037488D02*
X048183Y037488D01*
X048183Y037727D02*
X101353Y037727D01*
X101353Y037965D02*
X048183Y037965D01*
X048183Y038204D02*
X101353Y038204D01*
X101353Y038442D02*
X048183Y038442D01*
X045750Y038204D02*
X043356Y038204D01*
X043549Y037965D02*
X045558Y037965D01*
X045465Y037727D02*
X043641Y037727D01*
X043641Y037488D02*
X045465Y037488D01*
X045534Y037250D02*
X043572Y037250D01*
X043412Y037011D02*
X045694Y037011D01*
X046015Y035580D02*
X047363Y035580D01*
X047363Y035341D02*
X046208Y035341D01*
X046208Y035103D02*
X047363Y035103D01*
X047128Y034864D02*
X046208Y034864D01*
X046208Y034626D02*
X046889Y034626D01*
X046651Y034387D02*
X046208Y034387D01*
X046104Y034149D02*
X046412Y034149D01*
X046174Y033910D02*
X045865Y033910D01*
X045963Y033671D02*
X045011Y033671D01*
X044963Y033910D02*
X045241Y033910D01*
X045249Y033433D02*
X045963Y033433D01*
X045963Y033194D02*
X045488Y033194D01*
X045727Y032956D02*
X045963Y032956D01*
X042873Y034149D02*
X040646Y034149D01*
X040290Y034387D02*
X042873Y034387D01*
X045015Y035580D02*
X045091Y035580D01*
X042230Y037011D02*
X030946Y037011D01*
X031106Y037250D02*
X042070Y037250D01*
X042001Y037488D02*
X031175Y037488D01*
X031175Y037727D02*
X042001Y037727D01*
X042093Y037965D02*
X031083Y037965D01*
X030891Y038204D02*
X042285Y038204D01*
X039197Y033433D02*
X022333Y033433D01*
X022295Y033194D02*
X038958Y033194D01*
X038580Y032956D02*
X022196Y032956D01*
X021973Y032717D02*
X038286Y032717D01*
X038213Y032479D02*
X010233Y032479D01*
X010159Y032240D02*
X038245Y032240D01*
X038409Y032002D02*
X010108Y032002D01*
X010133Y031763D02*
X038677Y031763D01*
X038929Y031525D02*
X010053Y031525D01*
X009724Y031286D02*
X039125Y031286D01*
X039099Y030332D02*
X039587Y030332D01*
X039348Y030093D02*
X039338Y030093D01*
X038587Y030332D02*
X033089Y030332D01*
X033082Y030340D02*
X032585Y030340D01*
X032333Y030088D01*
X032082Y030340D01*
X031585Y030340D01*
X031233Y029988D01*
X031233Y029011D01*
X031585Y028660D01*
X032082Y028660D01*
X032333Y028911D01*
X032585Y028660D01*
X033082Y028660D01*
X033433Y029011D01*
X033433Y029988D01*
X033082Y030340D01*
X033328Y030093D02*
X038348Y030093D01*
X038243Y029855D02*
X033433Y029855D01*
X033433Y029616D02*
X038243Y029616D01*
X038243Y029378D02*
X033433Y029378D01*
X033433Y029139D02*
X038243Y029139D01*
X038354Y028901D02*
X033323Y028901D01*
X033084Y028662D02*
X038592Y028662D01*
X039094Y028662D02*
X039592Y028662D01*
X039354Y028901D02*
X039333Y028901D01*
X032582Y028662D02*
X032084Y028662D01*
X032323Y028901D02*
X032344Y028901D01*
X031582Y028662D02*
X026074Y028662D01*
X026313Y028901D02*
X031344Y028901D01*
X031233Y029139D02*
X026423Y029139D01*
X026423Y029378D02*
X031233Y029378D01*
X031233Y029616D02*
X026423Y029616D01*
X026423Y029855D02*
X031233Y029855D01*
X031338Y030093D02*
X026318Y030093D01*
X026079Y030332D02*
X031577Y030332D01*
X032089Y030332D02*
X032577Y030332D01*
X032338Y030093D02*
X032328Y030093D01*
X027623Y033780D02*
X027373Y033530D01*
X027623Y033780D02*
X027623Y034820D01*
X028253Y033910D02*
X028311Y033910D01*
X028935Y033910D02*
X029311Y033910D01*
X029161Y035580D02*
X029085Y035580D01*
X029764Y037011D02*
X027482Y037011D01*
X027642Y037250D02*
X029604Y037250D01*
X029535Y037488D02*
X027711Y037488D01*
X027711Y037727D02*
X029535Y037727D01*
X029628Y037965D02*
X027619Y037965D01*
X027426Y038204D02*
X029820Y038204D01*
X025567Y030332D02*
X025079Y030332D01*
X025318Y030093D02*
X025328Y030093D01*
X025313Y028901D02*
X025334Y028901D01*
X025572Y028662D02*
X025074Y028662D01*
X022789Y025800D02*
X021557Y025800D01*
X024927Y023176D02*
X006293Y023176D01*
X006293Y022937D02*
X024753Y022937D01*
X026081Y021267D02*
X035231Y021267D01*
X034992Y021029D02*
X026133Y021029D01*
X026080Y020790D02*
X034754Y020790D01*
X034515Y020552D02*
X025882Y020552D01*
X025264Y020552D02*
X006875Y020552D01*
X007113Y020790D02*
X020233Y020790D01*
X020325Y019836D02*
X020021Y019836D01*
X019325Y019836D02*
X019021Y019836D01*
X018325Y019836D02*
X018021Y019836D01*
X017325Y019836D02*
X017021Y019836D01*
X016325Y019836D02*
X016021Y019836D01*
X015325Y019836D02*
X015021Y019836D01*
X014325Y019836D02*
X014021Y019836D01*
X013325Y019836D02*
X013021Y019836D01*
X012325Y019836D02*
X012021Y019836D01*
X011325Y019836D02*
X011021Y019836D01*
X010773Y019230D02*
X010673Y019230D01*
X011673Y019230D01*
X012673Y019230D01*
X013673Y019230D01*
X014673Y019230D01*
X015673Y019230D01*
X016673Y019230D01*
X017673Y019230D01*
X018673Y019230D01*
X019673Y019230D01*
X020673Y019230D01*
X021179Y015781D02*
X021489Y015781D01*
X020673Y014230D02*
X019673Y014230D01*
X018673Y014230D01*
X017673Y014230D01*
X016673Y014230D01*
X015673Y014230D01*
X014673Y014230D01*
X013673Y014230D01*
X012673Y014230D01*
X011673Y014230D01*
X010673Y014230D01*
X009673Y014230D01*
X008998Y011248D02*
X003693Y011248D01*
X003693Y011010D02*
X008998Y011010D01*
X004471Y010771D02*
X003693Y010771D01*
X003693Y010533D02*
X004261Y010533D01*
X004098Y011487D02*
X001993Y011487D01*
X001993Y011726D02*
X002429Y011726D01*
X002494Y011660D02*
X002728Y011563D01*
X002980Y011563D01*
X003214Y011660D01*
X003392Y011838D01*
X003489Y012072D01*
X003489Y012324D01*
X003392Y012558D01*
X003214Y012736D01*
X002980Y012833D01*
X002728Y012833D01*
X002494Y012736D01*
X002316Y012558D01*
X002219Y012324D01*
X002219Y012072D01*
X002316Y011838D01*
X002494Y011660D01*
X002264Y011964D02*
X001993Y011964D01*
X001993Y012203D02*
X002219Y012203D01*
X002268Y012441D02*
X001993Y012441D01*
X001993Y012680D02*
X002438Y012680D01*
X001993Y012918D02*
X004107Y012918D01*
X003868Y012680D02*
X003271Y012680D01*
X003441Y012441D02*
X003695Y012441D01*
X003695Y012203D02*
X003489Y012203D01*
X003444Y011964D02*
X003695Y011964D01*
X003859Y011726D02*
X003280Y011726D01*
X002053Y011248D02*
X001993Y011248D01*
X001993Y011010D02*
X002053Y011010D01*
X002053Y010771D02*
X001993Y010771D01*
X001993Y010533D02*
X002053Y010533D01*
X001993Y008624D02*
X002320Y008624D01*
X002219Y008386D02*
X001993Y008386D01*
X001993Y008147D02*
X002219Y008147D01*
X002313Y007909D02*
X001993Y007909D01*
X001993Y007193D02*
X009053Y007193D01*
X006557Y005762D02*
X015763Y005762D01*
X015664Y006000D02*
X006345Y006000D01*
X005901Y006239D02*
X015653Y006239D01*
X015672Y006478D02*
X001993Y006478D01*
X001993Y006716D02*
X015771Y006716D01*
X015956Y006955D02*
X001993Y006955D01*
X001993Y006239D02*
X005445Y006239D01*
X005001Y006000D02*
X001993Y006000D01*
X001993Y005762D02*
X004790Y005762D01*
X004691Y005523D02*
X001993Y005523D01*
X001993Y005285D02*
X004653Y005285D01*
X004653Y005046D02*
X001993Y005046D01*
X001993Y004808D02*
X004744Y004808D01*
X004891Y004569D02*
X001993Y004569D01*
X001993Y004331D02*
X005178Y004331D01*
X006693Y005285D02*
X016289Y005285D01*
X015937Y005523D02*
X006655Y005523D01*
X021169Y010771D02*
X021498Y010771D01*
X021536Y011726D02*
X021132Y011726D01*
X024916Y012441D02*
X026170Y012441D01*
X026094Y012203D02*
X025992Y012203D01*
X025983Y012680D02*
X025103Y012680D01*
X025103Y012918D02*
X025983Y012918D01*
X026048Y013157D02*
X025038Y013157D01*
X024799Y013395D02*
X026287Y013395D01*
X026799Y013395D02*
X027113Y013395D01*
X027113Y013157D02*
X027038Y013157D01*
X027103Y012918D02*
X027113Y012918D01*
X027103Y012680D02*
X027113Y012680D01*
X027113Y012441D02*
X026917Y012441D01*
X025094Y012203D02*
X024992Y012203D01*
X028132Y016496D02*
X032763Y016496D01*
X032763Y016735D02*
X028233Y016735D01*
X028220Y016973D02*
X032763Y016973D01*
X032763Y017212D02*
X028083Y017212D01*
X034277Y020313D02*
X006190Y020313D01*
X007352Y021029D02*
X009582Y021029D01*
X009434Y021267D02*
X007591Y021267D01*
X007829Y021506D02*
X009413Y021506D01*
X010021Y019836D02*
X010325Y019836D01*
X010673Y019230D02*
X009673Y019230D01*
X006424Y022460D02*
X006293Y022460D01*
X006293Y022699D02*
X006662Y022699D01*
X006473Y022730D02*
X005373Y022730D01*
X004453Y022699D02*
X001993Y022699D01*
X001993Y022937D02*
X004453Y022937D01*
X004453Y023176D02*
X001993Y023176D01*
X001993Y023414D02*
X004455Y023414D01*
X004413Y023653D02*
X001993Y023653D01*
X001993Y023891D02*
X004413Y023891D01*
X004540Y024130D02*
X001993Y024130D01*
X001993Y024368D02*
X004501Y024368D01*
X004413Y024607D02*
X001993Y024607D01*
X001993Y024845D02*
X004413Y024845D01*
X004494Y025084D02*
X001993Y025084D01*
X001993Y025322D02*
X004733Y025322D01*
X006014Y025322D02*
X006686Y025322D01*
X006925Y025561D02*
X001993Y025561D01*
X001993Y025800D02*
X007163Y025800D01*
X007402Y026038D02*
X001993Y026038D01*
X007651Y026515D02*
X007879Y026515D01*
X007777Y026754D02*
X008705Y026754D01*
X004453Y022460D02*
X001993Y022460D01*
X001993Y022221D02*
X004512Y022221D01*
X004413Y021983D02*
X001993Y021983D01*
X001993Y021744D02*
X004413Y021744D01*
X004413Y021506D02*
X001993Y021506D01*
X001993Y021267D02*
X004602Y021267D01*
X004439Y021029D02*
X001993Y021029D01*
X001993Y020790D02*
X004413Y020790D01*
X004413Y020552D02*
X001993Y020552D01*
X001993Y020313D02*
X004556Y020313D01*
X004485Y020075D02*
X001993Y020075D01*
X001993Y019836D02*
X004413Y019836D01*
X004413Y019597D02*
X001993Y019597D01*
X001993Y019359D02*
X004510Y019359D01*
X001993Y032956D02*
X009307Y032956D01*
X030161Y023414D02*
X034585Y023414D01*
X034513Y023176D02*
X030233Y023176D01*
X030199Y022937D02*
X034547Y022937D01*
X034663Y022699D02*
X030083Y022699D01*
X030135Y022460D02*
X034611Y022460D01*
X034513Y022221D02*
X030233Y022221D01*
X030218Y021983D02*
X034528Y021983D01*
X034666Y021744D02*
X030080Y021744D01*
X053864Y035103D02*
X101353Y035103D01*
X101353Y035341D02*
X054160Y035341D01*
X054233Y035580D02*
X101353Y035580D01*
X101353Y035818D02*
X054201Y035818D01*
X054038Y036057D02*
X101353Y036057D01*
X101353Y036295D02*
X053499Y036295D01*
X052919Y036534D02*
X101353Y036534D01*
X101353Y051324D02*
X098151Y051324D01*
X098448Y051562D02*
X101353Y051562D01*
X101353Y051801D02*
X098599Y051801D01*
X098693Y052039D02*
X101353Y052039D01*
X101353Y052278D02*
X098693Y052278D01*
X098658Y052516D02*
X101353Y052516D01*
X101353Y052755D02*
X098559Y052755D01*
X098352Y052994D02*
X101353Y052994D01*
X101353Y053232D02*
X097918Y053232D01*
X066158Y043929D02*
X065728Y043929D01*
X064681Y043929D02*
X062145Y043929D01*
X062383Y043690D02*
X064443Y043690D01*
X064402Y043452D02*
X062424Y043452D01*
X062424Y043213D02*
X064402Y043213D01*
X064402Y042975D02*
X062424Y042975D01*
X062424Y042736D02*
X064402Y042736D01*
X064402Y042498D02*
X062424Y042498D01*
X062424Y042259D02*
X064402Y042259D01*
X064482Y042021D02*
X062344Y042021D01*
X062106Y041782D02*
X064720Y041782D01*
X065689Y041782D02*
X066197Y041782D01*
X065958Y042021D02*
X065928Y042021D01*
X061137Y041782D02*
X060629Y041782D01*
X060868Y042021D02*
X060898Y042021D01*
X061098Y043929D02*
X060668Y043929D01*
X060800Y048461D02*
X060966Y048461D01*
X036951Y047746D02*
X036793Y047746D01*
X027961Y047030D02*
X027565Y047030D01*
X027742Y047268D02*
X026784Y047268D01*
X026823Y047507D02*
X027703Y047507D01*
X027703Y047746D02*
X026823Y047746D01*
X026610Y047984D02*
X027916Y047984D01*
X026961Y047030D02*
X026852Y047030D01*
X070073Y019030D02*
X070265Y018838D01*
X075173Y019130D02*
X075325Y018978D01*
X080173Y019130D02*
X080385Y018918D01*
X090273Y019130D02*
X090505Y018898D01*
X095373Y019130D02*
X095565Y018938D01*
X089890Y008704D02*
X089684Y008790D01*
X089462Y008790D01*
X089256Y008704D01*
X089098Y008547D01*
X089013Y008341D01*
X089013Y008118D01*
X089098Y007912D01*
X089163Y007848D01*
X089163Y007412D01*
X089098Y007347D01*
X089013Y007141D01*
X089013Y006918D01*
X089098Y006712D01*
X089256Y006555D01*
X089462Y006470D01*
X089684Y006470D01*
X089890Y006555D01*
X090048Y006712D01*
X090133Y006918D01*
X090133Y007141D01*
X090048Y007347D01*
X089983Y007412D01*
X089983Y007848D01*
X090048Y007912D01*
X090133Y008118D01*
X090133Y008341D01*
X090048Y008547D01*
X089890Y008704D01*
X089970Y008624D02*
X101353Y008624D01*
X101353Y008386D02*
X090114Y008386D01*
X090133Y008147D02*
X101353Y008147D01*
X101353Y007909D02*
X090044Y007909D01*
X089983Y007670D02*
X101353Y007670D01*
X101353Y007432D02*
X089983Y007432D01*
X090111Y007193D02*
X101353Y007193D01*
X101353Y006955D02*
X090133Y006955D01*
X090049Y006716D02*
X101353Y006716D01*
X101353Y006478D02*
X089704Y006478D01*
X089442Y006478D02*
X085013Y006478D01*
X085132Y006716D02*
X089097Y006716D01*
X089013Y006955D02*
X085127Y006955D01*
X085001Y007193D02*
X089035Y007193D01*
X089163Y007432D02*
X084983Y007432D01*
X084983Y007670D02*
X089163Y007670D01*
X089102Y007909D02*
X085044Y007909D01*
X085133Y008147D02*
X089013Y008147D01*
X089032Y008386D02*
X085114Y008386D01*
X084970Y008624D02*
X089176Y008624D01*
D25*
X048193Y009600D02*
X047343Y009600D01*
X045673Y007930D01*
X047473Y007330D02*
X045173Y005030D01*
X044373Y005030D01*
X041173Y005730D02*
X040373Y004930D01*
X035873Y004930D01*
X032373Y006630D02*
X032373Y009130D01*
X032473Y009230D01*
X031673Y010830D02*
X036173Y010830D01*
X036393Y010610D01*
X036393Y009600D01*
X035393Y009600D02*
X035393Y009550D01*
X035373Y009530D01*
X035373Y008230D01*
X034473Y007330D01*
X033673Y007330D01*
X026543Y011300D02*
X026173Y010930D01*
X023573Y010930D01*
X023273Y011230D01*
X022273Y011230D01*
X026543Y011300D02*
X026543Y011860D01*
X027203Y011860D01*
X027573Y012230D01*
X027573Y014630D01*
X027673Y016830D02*
X023773Y016830D01*
X023173Y016230D01*
X022273Y016230D01*
X039073Y012830D02*
X039373Y013130D01*
X039673Y013130D01*
X040373Y013830D01*
X041273Y013830D01*
X042273Y014830D01*
X042273Y016430D01*
X041973Y016730D01*
X041373Y016730D01*
X043293Y009600D02*
X043293Y008750D01*
X041573Y007030D01*
X041273Y007030D01*
D26*
X019173Y048230D02*
X019173Y049930D01*
M02*
