G75*
G70*
%OFA0B0*%
%FSLAX24Y24*%
%IPPOS*%
%LPD*%
%AMOC8*
5,1,8,0,0,1.08239X$1,22.5*
%
%ADD10C,0.0000*%
D10*
X001673Y001230D02*
X001673Y056230D01*
X101673Y056230D01*
X101673Y001230D01*
X001673Y001230D01*
X004973Y005230D02*
X004976Y005294D01*
X004985Y005357D01*
X004999Y005419D01*
X005019Y005479D01*
X005044Y005538D01*
X005075Y005594D01*
X005110Y005647D01*
X005151Y005696D01*
X005195Y005742D01*
X005244Y005783D01*
X005296Y005820D01*
X005351Y005852D01*
X005409Y005878D01*
X005469Y005900D01*
X005531Y005915D01*
X005593Y005925D01*
X005657Y005930D01*
X005721Y005928D01*
X005784Y005921D01*
X005846Y005908D01*
X005907Y005890D01*
X005966Y005866D01*
X006023Y005836D01*
X006077Y005802D01*
X006127Y005763D01*
X006174Y005719D01*
X006216Y005672D01*
X006254Y005621D01*
X006287Y005566D01*
X006315Y005509D01*
X006338Y005449D01*
X006355Y005388D01*
X006366Y005325D01*
X006372Y005262D01*
X006372Y005198D01*
X006366Y005135D01*
X006355Y005072D01*
X006338Y005011D01*
X006315Y004951D01*
X006287Y004894D01*
X006254Y004839D01*
X006216Y004788D01*
X006174Y004741D01*
X006127Y004697D01*
X006077Y004658D01*
X006023Y004624D01*
X005966Y004594D01*
X005907Y004570D01*
X005846Y004552D01*
X005784Y004539D01*
X005721Y004532D01*
X005657Y004530D01*
X005593Y004535D01*
X005531Y004545D01*
X005469Y004560D01*
X005409Y004582D01*
X005351Y004608D01*
X005296Y004640D01*
X005244Y004677D01*
X005195Y004718D01*
X005151Y004764D01*
X005110Y004813D01*
X005075Y004866D01*
X005044Y004922D01*
X005019Y004981D01*
X004999Y005041D01*
X004985Y005103D01*
X004976Y005166D01*
X004973Y005230D01*
X002539Y008261D02*
X002541Y008297D01*
X002547Y008332D01*
X002557Y008367D01*
X002571Y008400D01*
X002589Y008431D01*
X002610Y008460D01*
X002634Y008487D01*
X002662Y008510D01*
X002691Y008531D01*
X002723Y008548D01*
X002757Y008561D01*
X002791Y008570D01*
X002827Y008575D01*
X002863Y008576D01*
X002899Y008573D01*
X002934Y008566D01*
X002968Y008555D01*
X003001Y008540D01*
X003032Y008521D01*
X003060Y008499D01*
X003086Y008474D01*
X003109Y008446D01*
X003128Y008416D01*
X003144Y008384D01*
X003156Y008350D01*
X003164Y008315D01*
X003168Y008279D01*
X003168Y008243D01*
X003164Y008207D01*
X003156Y008172D01*
X003144Y008138D01*
X003128Y008106D01*
X003109Y008076D01*
X003086Y008048D01*
X003060Y008023D01*
X003032Y008001D01*
X003001Y007982D01*
X002968Y007967D01*
X002934Y007956D01*
X002899Y007949D01*
X002863Y007946D01*
X002827Y007947D01*
X002791Y007952D01*
X002757Y007961D01*
X002723Y007974D01*
X002691Y007991D01*
X002662Y008012D01*
X002634Y008035D01*
X002610Y008062D01*
X002589Y008091D01*
X002571Y008122D01*
X002557Y008155D01*
X002547Y008190D01*
X002541Y008225D01*
X002539Y008261D01*
X004508Y010230D02*
X004510Y010266D01*
X004516Y010301D01*
X004526Y010336D01*
X004540Y010369D01*
X004558Y010400D01*
X004579Y010429D01*
X004603Y010456D01*
X004631Y010479D01*
X004660Y010500D01*
X004692Y010517D01*
X004726Y010530D01*
X004760Y010539D01*
X004796Y010544D01*
X004832Y010545D01*
X004868Y010542D01*
X004903Y010535D01*
X004937Y010524D01*
X004970Y010509D01*
X005001Y010490D01*
X005029Y010468D01*
X005055Y010443D01*
X005078Y010415D01*
X005097Y010385D01*
X005113Y010353D01*
X005125Y010319D01*
X005133Y010284D01*
X005137Y010248D01*
X005137Y010212D01*
X005133Y010176D01*
X005125Y010141D01*
X005113Y010107D01*
X005097Y010075D01*
X005078Y010045D01*
X005055Y010017D01*
X005029Y009992D01*
X005001Y009970D01*
X004970Y009951D01*
X004937Y009936D01*
X004903Y009925D01*
X004868Y009918D01*
X004832Y009915D01*
X004796Y009916D01*
X004760Y009921D01*
X004726Y009930D01*
X004692Y009943D01*
X004660Y009960D01*
X004631Y009981D01*
X004603Y010004D01*
X004579Y010031D01*
X004558Y010060D01*
X004540Y010091D01*
X004526Y010124D01*
X004516Y010159D01*
X004510Y010194D01*
X004508Y010230D01*
X002539Y012198D02*
X002541Y012234D01*
X002547Y012269D01*
X002557Y012304D01*
X002571Y012337D01*
X002589Y012368D01*
X002610Y012397D01*
X002634Y012424D01*
X002662Y012447D01*
X002691Y012468D01*
X002723Y012485D01*
X002757Y012498D01*
X002791Y012507D01*
X002827Y012512D01*
X002863Y012513D01*
X002899Y012510D01*
X002934Y012503D01*
X002968Y012492D01*
X003001Y012477D01*
X003032Y012458D01*
X003060Y012436D01*
X003086Y012411D01*
X003109Y012383D01*
X003128Y012353D01*
X003144Y012321D01*
X003156Y012287D01*
X003164Y012252D01*
X003168Y012216D01*
X003168Y012180D01*
X003164Y012144D01*
X003156Y012109D01*
X003144Y012075D01*
X003128Y012043D01*
X003109Y012013D01*
X003086Y011985D01*
X003060Y011960D01*
X003032Y011938D01*
X003001Y011919D01*
X002968Y011904D01*
X002934Y011893D01*
X002899Y011886D01*
X002863Y011883D01*
X002827Y011884D01*
X002791Y011889D01*
X002757Y011898D01*
X002723Y011911D01*
X002691Y011928D01*
X002662Y011949D01*
X002634Y011972D01*
X002610Y011999D01*
X002589Y012028D01*
X002571Y012059D01*
X002557Y012092D01*
X002547Y012127D01*
X002541Y012162D01*
X002539Y012198D01*
X015973Y006230D02*
X015976Y006294D01*
X015985Y006357D01*
X015999Y006419D01*
X016019Y006479D01*
X016044Y006538D01*
X016075Y006594D01*
X016110Y006647D01*
X016151Y006696D01*
X016195Y006742D01*
X016244Y006783D01*
X016296Y006820D01*
X016351Y006852D01*
X016409Y006878D01*
X016469Y006900D01*
X016531Y006915D01*
X016593Y006925D01*
X016657Y006930D01*
X016721Y006928D01*
X016784Y006921D01*
X016846Y006908D01*
X016907Y006890D01*
X016966Y006866D01*
X017023Y006836D01*
X017077Y006802D01*
X017127Y006763D01*
X017174Y006719D01*
X017216Y006672D01*
X017254Y006621D01*
X017287Y006566D01*
X017315Y006509D01*
X017338Y006449D01*
X017355Y006388D01*
X017366Y006325D01*
X017372Y006262D01*
X017372Y006198D01*
X017366Y006135D01*
X017355Y006072D01*
X017338Y006011D01*
X017315Y005951D01*
X017287Y005894D01*
X017254Y005839D01*
X017216Y005788D01*
X017174Y005741D01*
X017127Y005697D01*
X017077Y005658D01*
X017023Y005624D01*
X016966Y005594D01*
X016907Y005570D01*
X016846Y005552D01*
X016784Y005539D01*
X016721Y005532D01*
X016657Y005530D01*
X016593Y005535D01*
X016531Y005545D01*
X016469Y005560D01*
X016409Y005582D01*
X016351Y005608D01*
X016296Y005640D01*
X016244Y005677D01*
X016195Y005718D01*
X016151Y005764D01*
X016110Y005813D01*
X016075Y005866D01*
X016044Y005922D01*
X016019Y005981D01*
X015999Y006041D01*
X015985Y006103D01*
X015976Y006166D01*
X015973Y006230D01*
X033161Y012360D02*
X033163Y012405D01*
X033169Y012451D01*
X033180Y012495D01*
X033194Y012538D01*
X033212Y012580D01*
X033234Y012620D01*
X033259Y012658D01*
X033288Y012693D01*
X033320Y012725D01*
X033354Y012755D01*
X033392Y012781D01*
X033431Y012804D01*
X033472Y012823D01*
X033515Y012838D01*
X033559Y012850D01*
X033604Y012857D01*
X033650Y012860D01*
X033695Y012859D01*
X033740Y012854D01*
X033785Y012844D01*
X033828Y012831D01*
X033871Y012814D01*
X033911Y012793D01*
X033949Y012768D01*
X033985Y012741D01*
X034019Y012710D01*
X034049Y012676D01*
X034076Y012639D01*
X034100Y012600D01*
X034120Y012559D01*
X034136Y012517D01*
X034148Y012473D01*
X034156Y012428D01*
X034160Y012383D01*
X034160Y012337D01*
X034156Y012292D01*
X034148Y012247D01*
X034136Y012203D01*
X034120Y012161D01*
X034100Y012120D01*
X034076Y012081D01*
X034049Y012044D01*
X034019Y012010D01*
X033985Y011979D01*
X033949Y011952D01*
X033911Y011927D01*
X033871Y011906D01*
X033828Y011889D01*
X033785Y011876D01*
X033740Y011866D01*
X033695Y011861D01*
X033650Y011860D01*
X033604Y011863D01*
X033559Y011870D01*
X033515Y011882D01*
X033472Y011897D01*
X033431Y011916D01*
X033392Y011939D01*
X033354Y011965D01*
X033320Y011995D01*
X033288Y012027D01*
X033259Y012062D01*
X033234Y012100D01*
X033212Y012140D01*
X033194Y012182D01*
X033180Y012225D01*
X033169Y012269D01*
X033163Y012315D01*
X033161Y012360D01*
X036625Y012360D02*
X036627Y012405D01*
X036633Y012451D01*
X036644Y012495D01*
X036658Y012538D01*
X036676Y012580D01*
X036698Y012620D01*
X036723Y012658D01*
X036752Y012693D01*
X036784Y012725D01*
X036818Y012755D01*
X036856Y012781D01*
X036895Y012804D01*
X036936Y012823D01*
X036979Y012838D01*
X037023Y012850D01*
X037068Y012857D01*
X037114Y012860D01*
X037159Y012859D01*
X037204Y012854D01*
X037249Y012844D01*
X037292Y012831D01*
X037335Y012814D01*
X037375Y012793D01*
X037413Y012768D01*
X037449Y012741D01*
X037483Y012710D01*
X037513Y012676D01*
X037540Y012639D01*
X037564Y012600D01*
X037584Y012559D01*
X037600Y012517D01*
X037612Y012473D01*
X037620Y012428D01*
X037624Y012383D01*
X037624Y012337D01*
X037620Y012292D01*
X037612Y012247D01*
X037600Y012203D01*
X037584Y012161D01*
X037564Y012120D01*
X037540Y012081D01*
X037513Y012044D01*
X037483Y012010D01*
X037449Y011979D01*
X037413Y011952D01*
X037375Y011927D01*
X037335Y011906D01*
X037292Y011889D01*
X037249Y011876D01*
X037204Y011866D01*
X037159Y011861D01*
X037114Y011860D01*
X037068Y011863D01*
X037023Y011870D01*
X036979Y011882D01*
X036936Y011897D01*
X036895Y011916D01*
X036856Y011939D01*
X036818Y011965D01*
X036784Y011995D01*
X036752Y012027D01*
X036723Y012062D01*
X036698Y012100D01*
X036676Y012140D01*
X036658Y012182D01*
X036644Y012225D01*
X036633Y012269D01*
X036627Y012315D01*
X036625Y012360D01*
X040061Y012360D02*
X040063Y012405D01*
X040069Y012451D01*
X040080Y012495D01*
X040094Y012538D01*
X040112Y012580D01*
X040134Y012620D01*
X040159Y012658D01*
X040188Y012693D01*
X040220Y012725D01*
X040254Y012755D01*
X040292Y012781D01*
X040331Y012804D01*
X040372Y012823D01*
X040415Y012838D01*
X040459Y012850D01*
X040504Y012857D01*
X040550Y012860D01*
X040595Y012859D01*
X040640Y012854D01*
X040685Y012844D01*
X040728Y012831D01*
X040771Y012814D01*
X040811Y012793D01*
X040849Y012768D01*
X040885Y012741D01*
X040919Y012710D01*
X040949Y012676D01*
X040976Y012639D01*
X041000Y012600D01*
X041020Y012559D01*
X041036Y012517D01*
X041048Y012473D01*
X041056Y012428D01*
X041060Y012383D01*
X041060Y012337D01*
X041056Y012292D01*
X041048Y012247D01*
X041036Y012203D01*
X041020Y012161D01*
X041000Y012120D01*
X040976Y012081D01*
X040949Y012044D01*
X040919Y012010D01*
X040885Y011979D01*
X040849Y011952D01*
X040811Y011927D01*
X040771Y011906D01*
X040728Y011889D01*
X040685Y011876D01*
X040640Y011866D01*
X040595Y011861D01*
X040550Y011860D01*
X040504Y011863D01*
X040459Y011870D01*
X040415Y011882D01*
X040372Y011897D01*
X040331Y011916D01*
X040292Y011939D01*
X040254Y011965D01*
X040220Y011995D01*
X040188Y012027D01*
X040159Y012062D01*
X040134Y012100D01*
X040112Y012140D01*
X040094Y012182D01*
X040080Y012225D01*
X040069Y012269D01*
X040063Y012315D01*
X040061Y012360D01*
X043525Y012360D02*
X043527Y012405D01*
X043533Y012451D01*
X043544Y012495D01*
X043558Y012538D01*
X043576Y012580D01*
X043598Y012620D01*
X043623Y012658D01*
X043652Y012693D01*
X043684Y012725D01*
X043718Y012755D01*
X043756Y012781D01*
X043795Y012804D01*
X043836Y012823D01*
X043879Y012838D01*
X043923Y012850D01*
X043968Y012857D01*
X044014Y012860D01*
X044059Y012859D01*
X044104Y012854D01*
X044149Y012844D01*
X044192Y012831D01*
X044235Y012814D01*
X044275Y012793D01*
X044313Y012768D01*
X044349Y012741D01*
X044383Y012710D01*
X044413Y012676D01*
X044440Y012639D01*
X044464Y012600D01*
X044484Y012559D01*
X044500Y012517D01*
X044512Y012473D01*
X044520Y012428D01*
X044524Y012383D01*
X044524Y012337D01*
X044520Y012292D01*
X044512Y012247D01*
X044500Y012203D01*
X044484Y012161D01*
X044464Y012120D01*
X044440Y012081D01*
X044413Y012044D01*
X044383Y012010D01*
X044349Y011979D01*
X044313Y011952D01*
X044275Y011927D01*
X044235Y011906D01*
X044192Y011889D01*
X044149Y011876D01*
X044104Y011866D01*
X044059Y011861D01*
X044014Y011860D01*
X043968Y011863D01*
X043923Y011870D01*
X043879Y011882D01*
X043836Y011897D01*
X043795Y011916D01*
X043756Y011939D01*
X043718Y011965D01*
X043684Y011995D01*
X043652Y012027D01*
X043623Y012062D01*
X043598Y012100D01*
X043576Y012140D01*
X043558Y012182D01*
X043544Y012225D01*
X043533Y012269D01*
X043527Y012315D01*
X043525Y012360D01*
X046961Y012360D02*
X046963Y012405D01*
X046969Y012451D01*
X046980Y012495D01*
X046994Y012538D01*
X047012Y012580D01*
X047034Y012620D01*
X047059Y012658D01*
X047088Y012693D01*
X047120Y012725D01*
X047154Y012755D01*
X047192Y012781D01*
X047231Y012804D01*
X047272Y012823D01*
X047315Y012838D01*
X047359Y012850D01*
X047404Y012857D01*
X047450Y012860D01*
X047495Y012859D01*
X047540Y012854D01*
X047585Y012844D01*
X047628Y012831D01*
X047671Y012814D01*
X047711Y012793D01*
X047749Y012768D01*
X047785Y012741D01*
X047819Y012710D01*
X047849Y012676D01*
X047876Y012639D01*
X047900Y012600D01*
X047920Y012559D01*
X047936Y012517D01*
X047948Y012473D01*
X047956Y012428D01*
X047960Y012383D01*
X047960Y012337D01*
X047956Y012292D01*
X047948Y012247D01*
X047936Y012203D01*
X047920Y012161D01*
X047900Y012120D01*
X047876Y012081D01*
X047849Y012044D01*
X047819Y012010D01*
X047785Y011979D01*
X047749Y011952D01*
X047711Y011927D01*
X047671Y011906D01*
X047628Y011889D01*
X047585Y011876D01*
X047540Y011866D01*
X047495Y011861D01*
X047450Y011860D01*
X047404Y011863D01*
X047359Y011870D01*
X047315Y011882D01*
X047272Y011897D01*
X047231Y011916D01*
X047192Y011939D01*
X047154Y011965D01*
X047120Y011995D01*
X047088Y012027D01*
X047059Y012062D01*
X047034Y012100D01*
X047012Y012140D01*
X046994Y012182D01*
X046980Y012225D01*
X046969Y012269D01*
X046963Y012315D01*
X046961Y012360D01*
X050425Y012360D02*
X050427Y012405D01*
X050433Y012451D01*
X050444Y012495D01*
X050458Y012538D01*
X050476Y012580D01*
X050498Y012620D01*
X050523Y012658D01*
X050552Y012693D01*
X050584Y012725D01*
X050618Y012755D01*
X050656Y012781D01*
X050695Y012804D01*
X050736Y012823D01*
X050779Y012838D01*
X050823Y012850D01*
X050868Y012857D01*
X050914Y012860D01*
X050959Y012859D01*
X051004Y012854D01*
X051049Y012844D01*
X051092Y012831D01*
X051135Y012814D01*
X051175Y012793D01*
X051213Y012768D01*
X051249Y012741D01*
X051283Y012710D01*
X051313Y012676D01*
X051340Y012639D01*
X051364Y012600D01*
X051384Y012559D01*
X051400Y012517D01*
X051412Y012473D01*
X051420Y012428D01*
X051424Y012383D01*
X051424Y012337D01*
X051420Y012292D01*
X051412Y012247D01*
X051400Y012203D01*
X051384Y012161D01*
X051364Y012120D01*
X051340Y012081D01*
X051313Y012044D01*
X051283Y012010D01*
X051249Y011979D01*
X051213Y011952D01*
X051175Y011927D01*
X051135Y011906D01*
X051092Y011889D01*
X051049Y011876D01*
X051004Y011866D01*
X050959Y011861D01*
X050914Y011860D01*
X050868Y011863D01*
X050823Y011870D01*
X050779Y011882D01*
X050736Y011897D01*
X050695Y011916D01*
X050656Y011939D01*
X050618Y011965D01*
X050584Y011995D01*
X050552Y012027D01*
X050523Y012062D01*
X050498Y012100D01*
X050476Y012140D01*
X050458Y012182D01*
X050444Y012225D01*
X050433Y012269D01*
X050427Y012315D01*
X050425Y012360D01*
X050973Y005230D02*
X050976Y005294D01*
X050985Y005357D01*
X050999Y005419D01*
X051019Y005479D01*
X051044Y005538D01*
X051075Y005594D01*
X051110Y005647D01*
X051151Y005696D01*
X051195Y005742D01*
X051244Y005783D01*
X051296Y005820D01*
X051351Y005852D01*
X051409Y005878D01*
X051469Y005900D01*
X051531Y005915D01*
X051593Y005925D01*
X051657Y005930D01*
X051721Y005928D01*
X051784Y005921D01*
X051846Y005908D01*
X051907Y005890D01*
X051966Y005866D01*
X052023Y005836D01*
X052077Y005802D01*
X052127Y005763D01*
X052174Y005719D01*
X052216Y005672D01*
X052254Y005621D01*
X052287Y005566D01*
X052315Y005509D01*
X052338Y005449D01*
X052355Y005388D01*
X052366Y005325D01*
X052372Y005262D01*
X052372Y005198D01*
X052366Y005135D01*
X052355Y005072D01*
X052338Y005011D01*
X052315Y004951D01*
X052287Y004894D01*
X052254Y004839D01*
X052216Y004788D01*
X052174Y004741D01*
X052127Y004697D01*
X052077Y004658D01*
X052023Y004624D01*
X051966Y004594D01*
X051907Y004570D01*
X051846Y004552D01*
X051784Y004539D01*
X051721Y004532D01*
X051657Y004530D01*
X051593Y004535D01*
X051531Y004545D01*
X051469Y004560D01*
X051409Y004582D01*
X051351Y004608D01*
X051296Y004640D01*
X051244Y004677D01*
X051195Y004718D01*
X051151Y004764D01*
X051110Y004813D01*
X051075Y004866D01*
X051044Y004922D01*
X051019Y004981D01*
X050999Y005041D01*
X050985Y005103D01*
X050976Y005166D01*
X050973Y005230D01*
X096973Y005230D02*
X096976Y005294D01*
X096985Y005357D01*
X096999Y005419D01*
X097019Y005479D01*
X097044Y005538D01*
X097075Y005594D01*
X097110Y005647D01*
X097151Y005696D01*
X097195Y005742D01*
X097244Y005783D01*
X097296Y005820D01*
X097351Y005852D01*
X097409Y005878D01*
X097469Y005900D01*
X097531Y005915D01*
X097593Y005925D01*
X097657Y005930D01*
X097721Y005928D01*
X097784Y005921D01*
X097846Y005908D01*
X097907Y005890D01*
X097966Y005866D01*
X098023Y005836D01*
X098077Y005802D01*
X098127Y005763D01*
X098174Y005719D01*
X098216Y005672D01*
X098254Y005621D01*
X098287Y005566D01*
X098315Y005509D01*
X098338Y005449D01*
X098355Y005388D01*
X098366Y005325D01*
X098372Y005262D01*
X098372Y005198D01*
X098366Y005135D01*
X098355Y005072D01*
X098338Y005011D01*
X098315Y004951D01*
X098287Y004894D01*
X098254Y004839D01*
X098216Y004788D01*
X098174Y004741D01*
X098127Y004697D01*
X098077Y004658D01*
X098023Y004624D01*
X097966Y004594D01*
X097907Y004570D01*
X097846Y004552D01*
X097784Y004539D01*
X097721Y004532D01*
X097657Y004530D01*
X097593Y004535D01*
X097531Y004545D01*
X097469Y004560D01*
X097409Y004582D01*
X097351Y004608D01*
X097296Y004640D01*
X097244Y004677D01*
X097195Y004718D01*
X097151Y004764D01*
X097110Y004813D01*
X097075Y004866D01*
X097044Y004922D01*
X097019Y004981D01*
X096999Y005041D01*
X096985Y005103D01*
X096976Y005166D01*
X096973Y005230D01*
X045785Y037580D02*
X045787Y037625D01*
X045793Y037671D01*
X045804Y037715D01*
X045818Y037758D01*
X045836Y037800D01*
X045858Y037840D01*
X045883Y037878D01*
X045912Y037913D01*
X045944Y037945D01*
X045978Y037975D01*
X046016Y038001D01*
X046055Y038024D01*
X046096Y038043D01*
X046139Y038058D01*
X046183Y038070D01*
X046228Y038077D01*
X046274Y038080D01*
X046319Y038079D01*
X046364Y038074D01*
X046409Y038064D01*
X046452Y038051D01*
X046495Y038034D01*
X046535Y038013D01*
X046573Y037988D01*
X046609Y037961D01*
X046643Y037930D01*
X046673Y037896D01*
X046700Y037859D01*
X046724Y037820D01*
X046744Y037779D01*
X046760Y037737D01*
X046772Y037693D01*
X046780Y037648D01*
X046784Y037603D01*
X046784Y037557D01*
X046780Y037512D01*
X046772Y037467D01*
X046760Y037423D01*
X046744Y037381D01*
X046724Y037340D01*
X046700Y037301D01*
X046673Y037264D01*
X046643Y037230D01*
X046609Y037199D01*
X046573Y037172D01*
X046535Y037147D01*
X046495Y037126D01*
X046452Y037109D01*
X046409Y037096D01*
X046364Y037086D01*
X046319Y037081D01*
X046274Y037080D01*
X046228Y037083D01*
X046183Y037090D01*
X046139Y037102D01*
X046096Y037117D01*
X046055Y037136D01*
X046016Y037159D01*
X045978Y037185D01*
X045944Y037215D01*
X045912Y037247D01*
X045883Y037282D01*
X045858Y037320D01*
X045836Y037360D01*
X045818Y037402D01*
X045804Y037445D01*
X045793Y037489D01*
X045787Y037535D01*
X045785Y037580D01*
X042321Y037580D02*
X042323Y037625D01*
X042329Y037671D01*
X042340Y037715D01*
X042354Y037758D01*
X042372Y037800D01*
X042394Y037840D01*
X042419Y037878D01*
X042448Y037913D01*
X042480Y037945D01*
X042514Y037975D01*
X042552Y038001D01*
X042591Y038024D01*
X042632Y038043D01*
X042675Y038058D01*
X042719Y038070D01*
X042764Y038077D01*
X042810Y038080D01*
X042855Y038079D01*
X042900Y038074D01*
X042945Y038064D01*
X042988Y038051D01*
X043031Y038034D01*
X043071Y038013D01*
X043109Y037988D01*
X043145Y037961D01*
X043179Y037930D01*
X043209Y037896D01*
X043236Y037859D01*
X043260Y037820D01*
X043280Y037779D01*
X043296Y037737D01*
X043308Y037693D01*
X043316Y037648D01*
X043320Y037603D01*
X043320Y037557D01*
X043316Y037512D01*
X043308Y037467D01*
X043296Y037423D01*
X043280Y037381D01*
X043260Y037340D01*
X043236Y037301D01*
X043209Y037264D01*
X043179Y037230D01*
X043145Y037199D01*
X043109Y037172D01*
X043071Y037147D01*
X043031Y037126D01*
X042988Y037109D01*
X042945Y037096D01*
X042900Y037086D01*
X042855Y037081D01*
X042810Y037080D01*
X042764Y037083D01*
X042719Y037090D01*
X042675Y037102D01*
X042632Y037117D01*
X042591Y037136D01*
X042552Y037159D01*
X042514Y037185D01*
X042480Y037215D01*
X042448Y037247D01*
X042419Y037282D01*
X042394Y037320D01*
X042372Y037360D01*
X042354Y037402D01*
X042340Y037445D01*
X042329Y037489D01*
X042323Y037535D01*
X042321Y037580D01*
X029855Y037580D02*
X029857Y037625D01*
X029863Y037671D01*
X029874Y037715D01*
X029888Y037758D01*
X029906Y037800D01*
X029928Y037840D01*
X029953Y037878D01*
X029982Y037913D01*
X030014Y037945D01*
X030048Y037975D01*
X030086Y038001D01*
X030125Y038024D01*
X030166Y038043D01*
X030209Y038058D01*
X030253Y038070D01*
X030298Y038077D01*
X030344Y038080D01*
X030389Y038079D01*
X030434Y038074D01*
X030479Y038064D01*
X030522Y038051D01*
X030565Y038034D01*
X030605Y038013D01*
X030643Y037988D01*
X030679Y037961D01*
X030713Y037930D01*
X030743Y037896D01*
X030770Y037859D01*
X030794Y037820D01*
X030814Y037779D01*
X030830Y037737D01*
X030842Y037693D01*
X030850Y037648D01*
X030854Y037603D01*
X030854Y037557D01*
X030850Y037512D01*
X030842Y037467D01*
X030830Y037423D01*
X030814Y037381D01*
X030794Y037340D01*
X030770Y037301D01*
X030743Y037264D01*
X030713Y037230D01*
X030679Y037199D01*
X030643Y037172D01*
X030605Y037147D01*
X030565Y037126D01*
X030522Y037109D01*
X030479Y037096D01*
X030434Y037086D01*
X030389Y037081D01*
X030344Y037080D01*
X030298Y037083D01*
X030253Y037090D01*
X030209Y037102D01*
X030166Y037117D01*
X030125Y037136D01*
X030086Y037159D01*
X030048Y037185D01*
X030014Y037215D01*
X029982Y037247D01*
X029953Y037282D01*
X029928Y037320D01*
X029906Y037360D01*
X029888Y037402D01*
X029874Y037445D01*
X029863Y037489D01*
X029857Y037535D01*
X029855Y037580D01*
X026391Y037580D02*
X026393Y037625D01*
X026399Y037671D01*
X026410Y037715D01*
X026424Y037758D01*
X026442Y037800D01*
X026464Y037840D01*
X026489Y037878D01*
X026518Y037913D01*
X026550Y037945D01*
X026584Y037975D01*
X026622Y038001D01*
X026661Y038024D01*
X026702Y038043D01*
X026745Y038058D01*
X026789Y038070D01*
X026834Y038077D01*
X026880Y038080D01*
X026925Y038079D01*
X026970Y038074D01*
X027015Y038064D01*
X027058Y038051D01*
X027101Y038034D01*
X027141Y038013D01*
X027179Y037988D01*
X027215Y037961D01*
X027249Y037930D01*
X027279Y037896D01*
X027306Y037859D01*
X027330Y037820D01*
X027350Y037779D01*
X027366Y037737D01*
X027378Y037693D01*
X027386Y037648D01*
X027390Y037603D01*
X027390Y037557D01*
X027386Y037512D01*
X027378Y037467D01*
X027366Y037423D01*
X027350Y037381D01*
X027330Y037340D01*
X027306Y037301D01*
X027279Y037264D01*
X027249Y037230D01*
X027215Y037199D01*
X027179Y037172D01*
X027141Y037147D01*
X027101Y037126D01*
X027058Y037109D01*
X027015Y037096D01*
X026970Y037086D01*
X026925Y037081D01*
X026880Y037080D01*
X026834Y037083D01*
X026789Y037090D01*
X026745Y037102D01*
X026702Y037117D01*
X026661Y037136D01*
X026622Y037159D01*
X026584Y037185D01*
X026550Y037215D01*
X026518Y037247D01*
X026489Y037282D01*
X026464Y037320D01*
X026442Y037360D01*
X026424Y037402D01*
X026410Y037445D01*
X026399Y037489D01*
X026393Y037535D01*
X026391Y037580D01*
X020713Y033480D02*
X020716Y033539D01*
X020724Y033598D01*
X020737Y033655D01*
X020756Y033712D01*
X020779Y033766D01*
X020808Y033818D01*
X020841Y033867D01*
X020878Y033913D01*
X020919Y033955D01*
X020964Y033993D01*
X021013Y034028D01*
X021064Y034057D01*
X021118Y034082D01*
X021173Y034102D01*
X021231Y034116D01*
X021289Y034126D01*
X021348Y034130D01*
X021407Y034128D01*
X021466Y034122D01*
X021524Y034110D01*
X021581Y034092D01*
X021635Y034070D01*
X021688Y034043D01*
X021738Y034011D01*
X021785Y033975D01*
X021828Y033934D01*
X021867Y033890D01*
X021902Y033843D01*
X021933Y033792D01*
X021959Y033739D01*
X021980Y033684D01*
X021996Y033627D01*
X022007Y033569D01*
X022012Y033510D01*
X022012Y033450D01*
X022007Y033391D01*
X021996Y033333D01*
X021980Y033276D01*
X021959Y033221D01*
X021933Y033168D01*
X021902Y033117D01*
X021867Y033070D01*
X021828Y033026D01*
X021785Y032985D01*
X021738Y032949D01*
X021688Y032917D01*
X021635Y032890D01*
X021581Y032868D01*
X021524Y032850D01*
X021466Y032838D01*
X021407Y032832D01*
X021348Y032830D01*
X021289Y032834D01*
X021231Y032844D01*
X021173Y032858D01*
X021118Y032878D01*
X021064Y032903D01*
X021013Y032932D01*
X020964Y032967D01*
X020919Y033005D01*
X020878Y033047D01*
X020841Y033093D01*
X020808Y033142D01*
X020779Y033194D01*
X020756Y033248D01*
X020737Y033305D01*
X020724Y033362D01*
X020716Y033421D01*
X020713Y033480D01*
X011333Y033480D02*
X011336Y033539D01*
X011344Y033598D01*
X011357Y033655D01*
X011376Y033712D01*
X011399Y033766D01*
X011428Y033818D01*
X011461Y033867D01*
X011498Y033913D01*
X011539Y033955D01*
X011584Y033993D01*
X011633Y034028D01*
X011684Y034057D01*
X011738Y034082D01*
X011793Y034102D01*
X011851Y034116D01*
X011909Y034126D01*
X011968Y034130D01*
X012027Y034128D01*
X012086Y034122D01*
X012144Y034110D01*
X012201Y034092D01*
X012255Y034070D01*
X012308Y034043D01*
X012358Y034011D01*
X012405Y033975D01*
X012448Y033934D01*
X012487Y033890D01*
X012522Y033843D01*
X012553Y033792D01*
X012579Y033739D01*
X012600Y033684D01*
X012616Y033627D01*
X012627Y033569D01*
X012632Y033510D01*
X012632Y033450D01*
X012627Y033391D01*
X012616Y033333D01*
X012600Y033276D01*
X012579Y033221D01*
X012553Y033168D01*
X012522Y033117D01*
X012487Y033070D01*
X012448Y033026D01*
X012405Y032985D01*
X012358Y032949D01*
X012308Y032917D01*
X012255Y032890D01*
X012201Y032868D01*
X012144Y032850D01*
X012086Y032838D01*
X012027Y032832D01*
X011968Y032830D01*
X011909Y032834D01*
X011851Y032844D01*
X011793Y032858D01*
X011738Y032878D01*
X011684Y032903D01*
X011633Y032932D01*
X011584Y032967D01*
X011539Y033005D01*
X011498Y033047D01*
X011461Y033093D01*
X011428Y033142D01*
X011399Y033194D01*
X011376Y033248D01*
X011357Y033305D01*
X011344Y033362D01*
X011336Y033421D01*
X011333Y033480D01*
X004153Y034270D02*
X004155Y034313D01*
X004161Y034356D01*
X004171Y034399D01*
X004185Y034440D01*
X004202Y034479D01*
X004223Y034517D01*
X004248Y034553D01*
X004276Y034587D01*
X004306Y034617D01*
X004340Y034645D01*
X004376Y034670D01*
X004414Y034691D01*
X004453Y034708D01*
X004494Y034722D01*
X004537Y034732D01*
X004580Y034738D01*
X004623Y034740D01*
X004666Y034738D01*
X004709Y034732D01*
X004752Y034722D01*
X004793Y034708D01*
X004832Y034691D01*
X004870Y034670D01*
X004906Y034645D01*
X004940Y034617D01*
X004970Y034587D01*
X004998Y034553D01*
X005023Y034517D01*
X005044Y034479D01*
X005061Y034440D01*
X005075Y034399D01*
X005085Y034356D01*
X005091Y034313D01*
X005093Y034270D01*
X005091Y034227D01*
X005085Y034184D01*
X005075Y034141D01*
X005061Y034100D01*
X005044Y034061D01*
X005023Y034023D01*
X004998Y033987D01*
X004970Y033953D01*
X004940Y033923D01*
X004906Y033895D01*
X004870Y033870D01*
X004832Y033849D01*
X004793Y033832D01*
X004752Y033818D01*
X004709Y033808D01*
X004666Y033802D01*
X004623Y033800D01*
X004580Y033802D01*
X004537Y033808D01*
X004494Y033818D01*
X004453Y033832D01*
X004414Y033849D01*
X004376Y033870D01*
X004340Y033895D01*
X004306Y033923D01*
X004276Y033953D01*
X004248Y033987D01*
X004223Y034023D01*
X004202Y034061D01*
X004185Y034100D01*
X004171Y034141D01*
X004161Y034184D01*
X004155Y034227D01*
X004153Y034270D01*
X004153Y040190D02*
X004155Y040233D01*
X004161Y040276D01*
X004171Y040319D01*
X004185Y040360D01*
X004202Y040399D01*
X004223Y040437D01*
X004248Y040473D01*
X004276Y040507D01*
X004306Y040537D01*
X004340Y040565D01*
X004376Y040590D01*
X004414Y040611D01*
X004453Y040628D01*
X004494Y040642D01*
X004537Y040652D01*
X004580Y040658D01*
X004623Y040660D01*
X004666Y040658D01*
X004709Y040652D01*
X004752Y040642D01*
X004793Y040628D01*
X004832Y040611D01*
X004870Y040590D01*
X004906Y040565D01*
X004940Y040537D01*
X004970Y040507D01*
X004998Y040473D01*
X005023Y040437D01*
X005044Y040399D01*
X005061Y040360D01*
X005075Y040319D01*
X005085Y040276D01*
X005091Y040233D01*
X005093Y040190D01*
X005091Y040147D01*
X005085Y040104D01*
X005075Y040061D01*
X005061Y040020D01*
X005044Y039981D01*
X005023Y039943D01*
X004998Y039907D01*
X004970Y039873D01*
X004940Y039843D01*
X004906Y039815D01*
X004870Y039790D01*
X004832Y039769D01*
X004793Y039752D01*
X004752Y039738D01*
X004709Y039728D01*
X004666Y039722D01*
X004623Y039720D01*
X004580Y039722D01*
X004537Y039728D01*
X004494Y039738D01*
X004453Y039752D01*
X004414Y039769D01*
X004376Y039790D01*
X004340Y039815D01*
X004306Y039843D01*
X004276Y039873D01*
X004248Y039907D01*
X004223Y039943D01*
X004202Y039981D01*
X004185Y040020D01*
X004171Y040061D01*
X004161Y040104D01*
X004155Y040147D01*
X004153Y040190D01*
X004153Y042170D02*
X004155Y042213D01*
X004161Y042256D01*
X004171Y042299D01*
X004185Y042340D01*
X004202Y042379D01*
X004223Y042417D01*
X004248Y042453D01*
X004276Y042487D01*
X004306Y042517D01*
X004340Y042545D01*
X004376Y042570D01*
X004414Y042591D01*
X004453Y042608D01*
X004494Y042622D01*
X004537Y042632D01*
X004580Y042638D01*
X004623Y042640D01*
X004666Y042638D01*
X004709Y042632D01*
X004752Y042622D01*
X004793Y042608D01*
X004832Y042591D01*
X004870Y042570D01*
X004906Y042545D01*
X004940Y042517D01*
X004970Y042487D01*
X004998Y042453D01*
X005023Y042417D01*
X005044Y042379D01*
X005061Y042340D01*
X005075Y042299D01*
X005085Y042256D01*
X005091Y042213D01*
X005093Y042170D01*
X005091Y042127D01*
X005085Y042084D01*
X005075Y042041D01*
X005061Y042000D01*
X005044Y041961D01*
X005023Y041923D01*
X004998Y041887D01*
X004970Y041853D01*
X004940Y041823D01*
X004906Y041795D01*
X004870Y041770D01*
X004832Y041749D01*
X004793Y041732D01*
X004752Y041718D01*
X004709Y041708D01*
X004666Y041702D01*
X004623Y041700D01*
X004580Y041702D01*
X004537Y041708D01*
X004494Y041718D01*
X004453Y041732D01*
X004414Y041749D01*
X004376Y041770D01*
X004340Y041795D01*
X004306Y041823D01*
X004276Y041853D01*
X004248Y041887D01*
X004223Y041923D01*
X004202Y041961D01*
X004185Y042000D01*
X004171Y042041D01*
X004161Y042084D01*
X004155Y042127D01*
X004153Y042170D01*
X011333Y042230D02*
X011336Y042289D01*
X011344Y042348D01*
X011357Y042405D01*
X011376Y042462D01*
X011399Y042516D01*
X011428Y042568D01*
X011461Y042617D01*
X011498Y042663D01*
X011539Y042705D01*
X011584Y042743D01*
X011633Y042778D01*
X011684Y042807D01*
X011738Y042832D01*
X011793Y042852D01*
X011851Y042866D01*
X011909Y042876D01*
X011968Y042880D01*
X012027Y042878D01*
X012086Y042872D01*
X012144Y042860D01*
X012201Y042842D01*
X012255Y042820D01*
X012308Y042793D01*
X012358Y042761D01*
X012405Y042725D01*
X012448Y042684D01*
X012487Y042640D01*
X012522Y042593D01*
X012553Y042542D01*
X012579Y042489D01*
X012600Y042434D01*
X012616Y042377D01*
X012627Y042319D01*
X012632Y042260D01*
X012632Y042200D01*
X012627Y042141D01*
X012616Y042083D01*
X012600Y042026D01*
X012579Y041971D01*
X012553Y041918D01*
X012522Y041867D01*
X012487Y041820D01*
X012448Y041776D01*
X012405Y041735D01*
X012358Y041699D01*
X012308Y041667D01*
X012255Y041640D01*
X012201Y041618D01*
X012144Y041600D01*
X012086Y041588D01*
X012027Y041582D01*
X011968Y041580D01*
X011909Y041584D01*
X011851Y041594D01*
X011793Y041608D01*
X011738Y041628D01*
X011684Y041653D01*
X011633Y041682D01*
X011584Y041717D01*
X011539Y041755D01*
X011498Y041797D01*
X011461Y041843D01*
X011428Y041892D01*
X011399Y041944D01*
X011376Y041998D01*
X011357Y042055D01*
X011344Y042112D01*
X011336Y042171D01*
X011333Y042230D01*
X020713Y042230D02*
X020716Y042289D01*
X020724Y042348D01*
X020737Y042405D01*
X020756Y042462D01*
X020779Y042516D01*
X020808Y042568D01*
X020841Y042617D01*
X020878Y042663D01*
X020919Y042705D01*
X020964Y042743D01*
X021013Y042778D01*
X021064Y042807D01*
X021118Y042832D01*
X021173Y042852D01*
X021231Y042866D01*
X021289Y042876D01*
X021348Y042880D01*
X021407Y042878D01*
X021466Y042872D01*
X021524Y042860D01*
X021581Y042842D01*
X021635Y042820D01*
X021688Y042793D01*
X021738Y042761D01*
X021785Y042725D01*
X021828Y042684D01*
X021867Y042640D01*
X021902Y042593D01*
X021933Y042542D01*
X021959Y042489D01*
X021980Y042434D01*
X021996Y042377D01*
X022007Y042319D01*
X022012Y042260D01*
X022012Y042200D01*
X022007Y042141D01*
X021996Y042083D01*
X021980Y042026D01*
X021959Y041971D01*
X021933Y041918D01*
X021902Y041867D01*
X021867Y041820D01*
X021828Y041776D01*
X021785Y041735D01*
X021738Y041699D01*
X021688Y041667D01*
X021635Y041640D01*
X021581Y041618D01*
X021524Y041600D01*
X021466Y041588D01*
X021407Y041582D01*
X021348Y041580D01*
X021289Y041584D01*
X021231Y041594D01*
X021173Y041608D01*
X021118Y041628D01*
X021064Y041653D01*
X021013Y041682D01*
X020964Y041717D01*
X020919Y041755D01*
X020878Y041797D01*
X020841Y041843D01*
X020808Y041892D01*
X020779Y041944D01*
X020756Y041998D01*
X020737Y042055D01*
X020724Y042112D01*
X020716Y042171D01*
X020713Y042230D01*
X015973Y050230D02*
X015976Y050294D01*
X015985Y050357D01*
X015999Y050419D01*
X016019Y050479D01*
X016044Y050538D01*
X016075Y050594D01*
X016110Y050647D01*
X016151Y050696D01*
X016195Y050742D01*
X016244Y050783D01*
X016296Y050820D01*
X016351Y050852D01*
X016409Y050878D01*
X016469Y050900D01*
X016531Y050915D01*
X016593Y050925D01*
X016657Y050930D01*
X016721Y050928D01*
X016784Y050921D01*
X016846Y050908D01*
X016907Y050890D01*
X016966Y050866D01*
X017023Y050836D01*
X017077Y050802D01*
X017127Y050763D01*
X017174Y050719D01*
X017216Y050672D01*
X017254Y050621D01*
X017287Y050566D01*
X017315Y050509D01*
X017338Y050449D01*
X017355Y050388D01*
X017366Y050325D01*
X017372Y050262D01*
X017372Y050198D01*
X017366Y050135D01*
X017355Y050072D01*
X017338Y050011D01*
X017315Y049951D01*
X017287Y049894D01*
X017254Y049839D01*
X017216Y049788D01*
X017174Y049741D01*
X017127Y049697D01*
X017077Y049658D01*
X017023Y049624D01*
X016966Y049594D01*
X016907Y049570D01*
X016846Y049552D01*
X016784Y049539D01*
X016721Y049532D01*
X016657Y049530D01*
X016593Y049535D01*
X016531Y049545D01*
X016469Y049560D01*
X016409Y049582D01*
X016351Y049608D01*
X016296Y049640D01*
X016244Y049677D01*
X016195Y049718D01*
X016151Y049764D01*
X016110Y049813D01*
X016075Y049866D01*
X016044Y049922D01*
X016019Y049981D01*
X015999Y050041D01*
X015985Y050103D01*
X015976Y050166D01*
X015973Y050230D01*
X004973Y052230D02*
X004976Y052294D01*
X004985Y052357D01*
X004999Y052419D01*
X005019Y052479D01*
X005044Y052538D01*
X005075Y052594D01*
X005110Y052647D01*
X005151Y052696D01*
X005195Y052742D01*
X005244Y052783D01*
X005296Y052820D01*
X005351Y052852D01*
X005409Y052878D01*
X005469Y052900D01*
X005531Y052915D01*
X005593Y052925D01*
X005657Y052930D01*
X005721Y052928D01*
X005784Y052921D01*
X005846Y052908D01*
X005907Y052890D01*
X005966Y052866D01*
X006023Y052836D01*
X006077Y052802D01*
X006127Y052763D01*
X006174Y052719D01*
X006216Y052672D01*
X006254Y052621D01*
X006287Y052566D01*
X006315Y052509D01*
X006338Y052449D01*
X006355Y052388D01*
X006366Y052325D01*
X006372Y052262D01*
X006372Y052198D01*
X006366Y052135D01*
X006355Y052072D01*
X006338Y052011D01*
X006315Y051951D01*
X006287Y051894D01*
X006254Y051839D01*
X006216Y051788D01*
X006174Y051741D01*
X006127Y051697D01*
X006077Y051658D01*
X006023Y051624D01*
X005966Y051594D01*
X005907Y051570D01*
X005846Y051552D01*
X005784Y051539D01*
X005721Y051532D01*
X005657Y051530D01*
X005593Y051535D01*
X005531Y051545D01*
X005469Y051560D01*
X005409Y051582D01*
X005351Y051608D01*
X005296Y051640D01*
X005244Y051677D01*
X005195Y051718D01*
X005151Y051764D01*
X005110Y051813D01*
X005075Y051866D01*
X005044Y051922D01*
X005019Y051981D01*
X004999Y052041D01*
X004985Y052103D01*
X004976Y052166D01*
X004973Y052230D01*
X004153Y048090D02*
X004155Y048133D01*
X004161Y048176D01*
X004171Y048219D01*
X004185Y048260D01*
X004202Y048299D01*
X004223Y048337D01*
X004248Y048373D01*
X004276Y048407D01*
X004306Y048437D01*
X004340Y048465D01*
X004376Y048490D01*
X004414Y048511D01*
X004453Y048528D01*
X004494Y048542D01*
X004537Y048552D01*
X004580Y048558D01*
X004623Y048560D01*
X004666Y048558D01*
X004709Y048552D01*
X004752Y048542D01*
X004793Y048528D01*
X004832Y048511D01*
X004870Y048490D01*
X004906Y048465D01*
X004940Y048437D01*
X004970Y048407D01*
X004998Y048373D01*
X005023Y048337D01*
X005044Y048299D01*
X005061Y048260D01*
X005075Y048219D01*
X005085Y048176D01*
X005091Y048133D01*
X005093Y048090D01*
X005091Y048047D01*
X005085Y048004D01*
X005075Y047961D01*
X005061Y047920D01*
X005044Y047881D01*
X005023Y047843D01*
X004998Y047807D01*
X004970Y047773D01*
X004940Y047743D01*
X004906Y047715D01*
X004870Y047690D01*
X004832Y047669D01*
X004793Y047652D01*
X004752Y047638D01*
X004709Y047628D01*
X004666Y047622D01*
X004623Y047620D01*
X004580Y047622D01*
X004537Y047628D01*
X004494Y047638D01*
X004453Y047652D01*
X004414Y047669D01*
X004376Y047690D01*
X004340Y047715D01*
X004306Y047743D01*
X004276Y047773D01*
X004248Y047807D01*
X004223Y047843D01*
X004202Y047881D01*
X004185Y047920D01*
X004171Y047961D01*
X004161Y048004D01*
X004155Y048047D01*
X004153Y048090D01*
X044021Y047130D02*
X044023Y047175D01*
X044029Y047221D01*
X044040Y047265D01*
X044054Y047308D01*
X044072Y047350D01*
X044094Y047390D01*
X044119Y047428D01*
X044148Y047463D01*
X044180Y047495D01*
X044214Y047525D01*
X044252Y047551D01*
X044291Y047574D01*
X044332Y047593D01*
X044375Y047608D01*
X044419Y047620D01*
X044464Y047627D01*
X044510Y047630D01*
X044555Y047629D01*
X044600Y047624D01*
X044645Y047614D01*
X044688Y047601D01*
X044731Y047584D01*
X044771Y047563D01*
X044809Y047538D01*
X044845Y047511D01*
X044879Y047480D01*
X044909Y047446D01*
X044936Y047409D01*
X044960Y047370D01*
X044980Y047329D01*
X044996Y047287D01*
X045008Y047243D01*
X045016Y047198D01*
X045020Y047153D01*
X045020Y047107D01*
X045016Y047062D01*
X045008Y047017D01*
X044996Y046973D01*
X044980Y046931D01*
X044960Y046890D01*
X044936Y046851D01*
X044909Y046814D01*
X044879Y046780D01*
X044845Y046749D01*
X044809Y046722D01*
X044771Y046697D01*
X044731Y046676D01*
X044688Y046659D01*
X044645Y046646D01*
X044600Y046636D01*
X044555Y046631D01*
X044510Y046630D01*
X044464Y046633D01*
X044419Y046640D01*
X044375Y046652D01*
X044332Y046667D01*
X044291Y046686D01*
X044252Y046709D01*
X044214Y046735D01*
X044180Y046765D01*
X044148Y046797D01*
X044119Y046832D01*
X044094Y046870D01*
X044072Y046910D01*
X044054Y046952D01*
X044040Y046995D01*
X044029Y047039D01*
X044023Y047085D01*
X044021Y047130D01*
X047485Y047130D02*
X047487Y047175D01*
X047493Y047221D01*
X047504Y047265D01*
X047518Y047308D01*
X047536Y047350D01*
X047558Y047390D01*
X047583Y047428D01*
X047612Y047463D01*
X047644Y047495D01*
X047678Y047525D01*
X047716Y047551D01*
X047755Y047574D01*
X047796Y047593D01*
X047839Y047608D01*
X047883Y047620D01*
X047928Y047627D01*
X047974Y047630D01*
X048019Y047629D01*
X048064Y047624D01*
X048109Y047614D01*
X048152Y047601D01*
X048195Y047584D01*
X048235Y047563D01*
X048273Y047538D01*
X048309Y047511D01*
X048343Y047480D01*
X048373Y047446D01*
X048400Y047409D01*
X048424Y047370D01*
X048444Y047329D01*
X048460Y047287D01*
X048472Y047243D01*
X048480Y047198D01*
X048484Y047153D01*
X048484Y047107D01*
X048480Y047062D01*
X048472Y047017D01*
X048460Y046973D01*
X048444Y046931D01*
X048424Y046890D01*
X048400Y046851D01*
X048373Y046814D01*
X048343Y046780D01*
X048309Y046749D01*
X048273Y046722D01*
X048235Y046697D01*
X048195Y046676D01*
X048152Y046659D01*
X048109Y046646D01*
X048064Y046636D01*
X048019Y046631D01*
X047974Y046630D01*
X047928Y046633D01*
X047883Y046640D01*
X047839Y046652D01*
X047796Y046667D01*
X047755Y046686D01*
X047716Y046709D01*
X047678Y046735D01*
X047644Y046765D01*
X047612Y046797D01*
X047583Y046832D01*
X047558Y046870D01*
X047536Y046910D01*
X047518Y046952D01*
X047504Y046995D01*
X047493Y047039D01*
X047487Y047085D01*
X047485Y047130D01*
X050973Y052230D02*
X050976Y052294D01*
X050985Y052357D01*
X050999Y052419D01*
X051019Y052479D01*
X051044Y052538D01*
X051075Y052594D01*
X051110Y052647D01*
X051151Y052696D01*
X051195Y052742D01*
X051244Y052783D01*
X051296Y052820D01*
X051351Y052852D01*
X051409Y052878D01*
X051469Y052900D01*
X051531Y052915D01*
X051593Y052925D01*
X051657Y052930D01*
X051721Y052928D01*
X051784Y052921D01*
X051846Y052908D01*
X051907Y052890D01*
X051966Y052866D01*
X052023Y052836D01*
X052077Y052802D01*
X052127Y052763D01*
X052174Y052719D01*
X052216Y052672D01*
X052254Y052621D01*
X052287Y052566D01*
X052315Y052509D01*
X052338Y052449D01*
X052355Y052388D01*
X052366Y052325D01*
X052372Y052262D01*
X052372Y052198D01*
X052366Y052135D01*
X052355Y052072D01*
X052338Y052011D01*
X052315Y051951D01*
X052287Y051894D01*
X052254Y051839D01*
X052216Y051788D01*
X052174Y051741D01*
X052127Y051697D01*
X052077Y051658D01*
X052023Y051624D01*
X051966Y051594D01*
X051907Y051570D01*
X051846Y051552D01*
X051784Y051539D01*
X051721Y051532D01*
X051657Y051530D01*
X051593Y051535D01*
X051531Y051545D01*
X051469Y051560D01*
X051409Y051582D01*
X051351Y051608D01*
X051296Y051640D01*
X051244Y051677D01*
X051195Y051718D01*
X051151Y051764D01*
X051110Y051813D01*
X051075Y051866D01*
X051044Y051922D01*
X051019Y051981D01*
X050999Y052041D01*
X050985Y052103D01*
X050976Y052166D01*
X050973Y052230D01*
X096973Y052230D02*
X096976Y052294D01*
X096985Y052357D01*
X096999Y052419D01*
X097019Y052479D01*
X097044Y052538D01*
X097075Y052594D01*
X097110Y052647D01*
X097151Y052696D01*
X097195Y052742D01*
X097244Y052783D01*
X097296Y052820D01*
X097351Y052852D01*
X097409Y052878D01*
X097469Y052900D01*
X097531Y052915D01*
X097593Y052925D01*
X097657Y052930D01*
X097721Y052928D01*
X097784Y052921D01*
X097846Y052908D01*
X097907Y052890D01*
X097966Y052866D01*
X098023Y052836D01*
X098077Y052802D01*
X098127Y052763D01*
X098174Y052719D01*
X098216Y052672D01*
X098254Y052621D01*
X098287Y052566D01*
X098315Y052509D01*
X098338Y052449D01*
X098355Y052388D01*
X098366Y052325D01*
X098372Y052262D01*
X098372Y052198D01*
X098366Y052135D01*
X098355Y052072D01*
X098338Y052011D01*
X098315Y051951D01*
X098287Y051894D01*
X098254Y051839D01*
X098216Y051788D01*
X098174Y051741D01*
X098127Y051697D01*
X098077Y051658D01*
X098023Y051624D01*
X097966Y051594D01*
X097907Y051570D01*
X097846Y051552D01*
X097784Y051539D01*
X097721Y051532D01*
X097657Y051530D01*
X097593Y051535D01*
X097531Y051545D01*
X097469Y051560D01*
X097409Y051582D01*
X097351Y051608D01*
X097296Y051640D01*
X097244Y051677D01*
X097195Y051718D01*
X097151Y051764D01*
X097110Y051813D01*
X097075Y051866D01*
X097044Y051922D01*
X097019Y051981D01*
X096999Y052041D01*
X096985Y052103D01*
X096976Y052166D01*
X096973Y052230D01*
M02*
