%
M48
M72
T01C0.0240
T02C0.0320
T03C0.0394
T04C0.0400
T05C0.0510
T06C0.0512
T07C0.0590
T08C0.0630
T09C0.0800
T10C0.0940
T11C0.1000
T12C0.1300
T13C0.1400
%
T01
X24543Y11860
X24543Y12860
X25543Y11860
X26543Y11860
X26543Y12860
X24573Y14030
X26473Y14630
X27573Y14630
X28173Y15730
X27673Y16830
X28073Y17430
X28173Y19330
X25573Y21030
X25573Y21630
X24773Y22330
X25273Y22730
X29673Y23130
X29673Y22130
X33273Y19830
X36273Y19630
X36573Y20030
X36873Y20430
X37173Y20830
X35073Y22130
X35073Y23130
X35973Y18430
X35573Y18030
X35173Y17630
X34773Y17230
X34373Y16830
X33973Y16430
X33573Y16030
X33173Y15630
X36773Y17430
X38773Y15430
X38073Y14130
X39073Y12830
X41173Y15530
X41373Y16730
X45673Y14430
X45673Y7930
X44473Y7930
X44573Y6530
X44373Y5030
X42073Y6330
X41273Y7030
X41173Y5730
X36973Y7330
X35473Y7330
X33673Y7330
X32373Y6630
X35873Y4930
X32773Y4330
X32473Y9230
X31673Y10830
X47473Y7330
X59173Y6630
X59173Y8230
X64273Y8230
X64273Y6830
X69373Y7030
X69373Y8230
X79473Y8230
X79473Y6630
X84573Y6830
X84573Y8230
X89573Y8230
X89573Y7030
X56173Y26730
X55773Y27130
X56173Y29130
X52873Y26330
X50773Y26330
X51173Y23130
X50773Y22730
X51973Y22330
X52373Y22730
X52773Y23130
X51173Y21930
X48473Y30330
X48873Y30730
X47173Y32430
X47973Y33130
X48473Y33530
X48973Y33930
X49473Y34330
X49973Y34730
X50473Y35130
X50973Y35530
X51473Y35930
X52173Y36230
X52673Y36030
X53173Y35830
X53673Y35630
X56173Y34230
X55773Y33730
X55773Y32630
X57573Y32530
X56973Y35530
X57973Y39530
X55573Y41130
X55973Y41630
X54273Y41630
X53773Y41230
X53273Y40830
X52773Y40430
X52773Y42830
X53273Y43330
X53773Y43830
X54273Y44330
X55973Y46330
X55573Y46830
X65073Y46430
X70173Y46130
X75173Y45830
X41373Y32630
X40973Y33030
X40573Y33430
X40173Y33830
X38773Y32430
X39173Y32030
X39573Y31630
X39973Y31230
X22973Y26330
X21373Y26330
X18223Y23080
X20873Y21430
X9973Y21430
X9073Y26330
X7223Y26880
X7223Y30580
X6573Y31530
X6173Y31930
X9573Y31830
X9673Y32530
X28273Y42630
X25973Y43530
X26263Y46540
X27263Y46540
X28263Y46540
X28263Y47540
X26263Y47540
X31173Y47730
X31173Y48730
X31173Y49730
X31173Y50730
X32173Y50730
X33173Y50730
X34173Y50730
X35173Y50730
X36173Y50730
X37173Y50730
X35173Y49730
X35173Y48730
X35173Y47730
X35173Y46730
X35173Y45730
X35173Y44730
X35173Y43730
X35173Y42730
X35173Y41730
X34173Y41730
X33173Y41730
X31173Y45730
X31173Y46730
T02
X36333Y47040
X37333Y47040
X60383Y47790
X61383Y47790
X65443Y47790
X66443Y47790
X70503Y47790
X71503Y47790
X75563Y47790
X76563Y47790
X80623Y47790
X81623Y47790
X85683Y47790
X86683Y47790
X90743Y47790
X91743Y47790
X95803Y47790
X96803Y47790
X46853Y29500
X45853Y29500
X39843Y29500
X38843Y29500
X32833Y29500
X31833Y29500
X25823Y29500
X24823Y29500
T03
X27623Y34820
X28623Y34820
X29623Y34820
X43553Y34820
X44553Y34820
X45553Y34820
X45253Y44370
X46253Y44370
X47253Y44370
X48193Y9600
X49193Y9600
X50193Y9600
X43293Y9600
X42293Y9600
X41293Y9600
X36393Y9600
X35393Y9600
X34393Y9600
T04
X22273Y11230
X20673Y11230
X19673Y11230
X18673Y11230
X17673Y11230
X16673Y11230
X15673Y11230
X14673Y11230
X13673Y11230
X12673Y11230
X11673Y11230
X10673Y11230
X9673Y11230
X9673Y10230
X10673Y10230
X11673Y10230
X12673Y10230
X13673Y10230
X14673Y10230
X15673Y10230
X16673Y10230
X17673Y10230
X18673Y10230
X19673Y10230
X20673Y10230
X20673Y9230
X19673Y9230
X18673Y9230
X17673Y9230
X16673Y9230
X15673Y9230
X14673Y9230
X13673Y9230
X12673Y9230
X11673Y9230
X10673Y9230
X9673Y9230
X9673Y8230
X10673Y8230
X11673Y8230
X12673Y8230
X13673Y8230
X14673Y8230
X15673Y8230
X16673Y8230
X17673Y8230
X18673Y8230
X19673Y8230
X20673Y8230
X20673Y12230
X19673Y12230
X18673Y12230
X17673Y12230
X16673Y12230
X15673Y12230
X14673Y12230
X13673Y12230
X12673Y12230
X11673Y12230
X10673Y12230
X9673Y12230
X9673Y13230
X10673Y13230
X11673Y13230
X12673Y13230
X13673Y13230
X14673Y13230
X15673Y13230
X16673Y13230
X17673Y13230
X18673Y13230
X19673Y13230
X20673Y13230
X20673Y14230
X20673Y15230
X19673Y15230
X18673Y15230
X17673Y15230
X16673Y15230
X15673Y15230
X14673Y15230
X13673Y15230
X12673Y15230
X11673Y15230
X10673Y15230
X9673Y15230
X9673Y14230
X10673Y14230
X11673Y14230
X12673Y14230
X13673Y14230
X14673Y14230
X15673Y14230
X16673Y14230
X17673Y14230
X18673Y14230
X19673Y14230
X19673Y16230
X18673Y16230
X17673Y16230
X16673Y16230
X15673Y16230
X14673Y16230
X13673Y16230
X12673Y16230
X11673Y16230
X10673Y16230
X9673Y16230
X9673Y17230
X10673Y17230
X11673Y17230
X12673Y17230
X13673Y17230
X14673Y17230
X15673Y17230
X16673Y17230
X17673Y17230
X18673Y17230
X19673Y17230
X20673Y17230
X20673Y18230
X19673Y18230
X18673Y18230
X17673Y18230
X16673Y18230
X15673Y18230
X14673Y18230
X13673Y18230
X12673Y18230
X11673Y18230
X10673Y18230
X9673Y18230
X9673Y19230
X10673Y19230
X11673Y19230
X12673Y19230
X13673Y19230
X14673Y19230
X15673Y19230
X16673Y19230
X17673Y19230
X18673Y19230
X19673Y19230
X20673Y19230
X20673Y16230
X22273Y16230
X5373Y19730
X5373Y20730
X5373Y21730
X5373Y22730
X5373Y23730
X5373Y24730
T05
X6623Y34230
X7623Y35230
X6623Y37230
X7623Y39230
X6623Y40230
X6623Y42130
X7623Y43130
X6623Y45130
X7623Y47130
X6623Y48130
X2623Y47130
X2623Y46130
X2623Y44130
X2623Y43130
X2623Y39230
X2623Y38230
X2623Y36230
X2623Y35230
T06
X4823Y12198
X2854Y10230
X4823Y8261
T07
X60145Y17284
X65205Y17284
X70265Y17284
X75325Y17284
X80385Y17284
X85445Y17284
X90505Y17284
X95565Y17284
X95565Y42875
X97041Y42875
X91981Y42875
X90505Y42875
X86921Y42875
X85445Y42875
X81861Y42875
X80385Y42875
X76801Y42875
X75325Y42875
X71741Y42875
X70265Y42875
X66681Y42875
X65205Y42875
X61621Y42875
X60145Y42875
T08
X2854Y12198
X4823Y10230
X2854Y8261
T09
X14173Y48230
X19173Y48230
T10
X4623Y48090
X4623Y42170
X4623Y40190
X4623Y34270
T11
X26891Y37580
X30355Y37580
X42821Y37580
X46285Y37580
X47985Y47130
X44521Y47130
X44025Y12360
X40561Y12360
X37125Y12360
X33661Y12360
X47461Y12360
X50925Y12360
T12
X21363Y33480
X11983Y33480
X11983Y42230
X21363Y42230
T13
X5673Y5230
X16673Y6230
X51673Y5230
X97673Y5230
X16673Y50230
X5673Y52230
X51673Y52230
X97673Y52230
M30
