G75*
G70*
%OFA0B0*%
%FSLAX24Y24*%
%IPPOS*%
%LPD*%
%AMOC8*
5,1,8,0,0,1.08239X$1,22.5*
%
%ADD10O,0.0885X0.1770*%
%ADD11O,0.0591X0.1181*%
%ADD12OC8,0.0400*%
%ADD13O,0.0480X0.0960*%
%ADD14R,0.0591X0.0197*%
%ADD15R,0.0197X0.0591*%
%ADD16R,0.0450X0.0300*%
%ADD17R,0.0360X0.0480*%
%ADD18R,0.0480X0.0360*%
%ADD19O,0.1200X0.0600*%
%ADD20R,0.0500X0.0250*%
%ADD21R,0.0250X0.0500*%
%ADD22R,0.0630X0.0512*%
%ADD23R,0.0866X0.0630*%
%ADD24R,0.0866X0.0236*%
%ADD25R,0.0630X0.0866*%
%ADD26R,0.0512X0.0630*%
%ADD27R,0.0315X0.0512*%
%ADD28O,0.0768X0.1535*%
%ADD29O,0.1535X0.0768*%
%ADD30R,0.0700X0.0850*%
%ADD31OC8,0.0630*%
%ADD32R,0.0866X0.0669*%
%ADD33R,0.0827X0.0551*%
%ADD34O,0.1200X0.2400*%
%ADD35R,0.0850X0.0700*%
%ADD36O,0.1530X0.0765*%
%ADD37OC8,0.0765*%
%ADD38C,0.0100*%
%ADD39C,0.0400*%
%ADD40C,0.0160*%
%ADD41C,0.0240*%
%ADD42C,0.0200*%
%ADD43C,0.0320*%
D10*
X060145Y017284D03*
X065205Y017284D03*
X070265Y017284D03*
X075325Y017284D03*
X080385Y017284D03*
X085445Y017284D03*
X090505Y017284D03*
X095565Y017284D03*
X095565Y042875D03*
X097041Y042875D03*
X091981Y042875D03*
X090505Y042875D03*
X086921Y042875D03*
X085445Y042875D03*
X081861Y042875D03*
X080385Y042875D03*
X076801Y042875D03*
X075325Y042875D03*
X071741Y042875D03*
X070265Y042875D03*
X066681Y042875D03*
X065205Y042875D03*
X061621Y042875D03*
X060145Y042875D03*
D11*
X047253Y044370D03*
X046253Y044370D03*
X045253Y044370D03*
X045553Y034820D03*
X044553Y034820D03*
X043553Y034820D03*
X029623Y034820D03*
X028623Y034820D03*
X027623Y034820D03*
X034393Y009600D03*
X035393Y009600D03*
X036393Y009600D03*
X041293Y009600D03*
X042293Y009600D03*
X043293Y009600D03*
X048193Y009600D03*
X049193Y009600D03*
X050193Y009600D03*
D12*
X026543Y011860D03*
X026543Y012860D03*
X025543Y011860D03*
X024543Y011860D03*
X024543Y012860D03*
X026263Y046540D03*
X027263Y046540D03*
X028263Y046540D03*
X028263Y047540D03*
X026263Y047540D03*
D13*
X036333Y047040D03*
X037333Y047040D03*
X060383Y047790D03*
X061383Y047790D03*
X065443Y047790D03*
X066443Y047790D03*
X070503Y047790D03*
X071503Y047790D03*
X075563Y047790D03*
X076563Y047790D03*
X080623Y047790D03*
X081623Y047790D03*
X085683Y047790D03*
X086683Y047790D03*
X090743Y047790D03*
X091743Y047790D03*
X095803Y047790D03*
X096803Y047790D03*
X046853Y029500D03*
X045853Y029500D03*
X039843Y029500D03*
X038843Y029500D03*
X032833Y029500D03*
X031833Y029500D03*
X025823Y029500D03*
X024823Y029500D03*
D14*
X050229Y030055D03*
X050229Y030370D03*
X050229Y030685D03*
X050229Y031000D03*
X050229Y031315D03*
X050229Y031630D03*
X050229Y031945D03*
X050229Y032260D03*
X050229Y032574D03*
X050229Y032889D03*
X050229Y033204D03*
X054717Y033204D03*
X054717Y032889D03*
X054717Y032574D03*
X054717Y032260D03*
X054717Y031945D03*
X054717Y031630D03*
X054717Y031315D03*
X054717Y031000D03*
X054717Y030685D03*
X054717Y030370D03*
X054717Y030055D03*
D15*
X054048Y029386D03*
X053733Y029386D03*
X053418Y029386D03*
X053103Y029386D03*
X052788Y029386D03*
X052473Y029386D03*
X052158Y029386D03*
X051843Y029386D03*
X051528Y029386D03*
X051213Y029386D03*
X050898Y029386D03*
X050898Y033874D03*
X051213Y033874D03*
X051528Y033874D03*
X051843Y033874D03*
X052158Y033874D03*
X052473Y033874D03*
X052788Y033874D03*
X053103Y033874D03*
X053418Y033874D03*
X053733Y033874D03*
X054048Y033874D03*
D16*
X032593Y020330D03*
X032593Y019830D03*
X032593Y019330D03*
X032593Y018830D03*
X032593Y018330D03*
X032593Y017830D03*
X032593Y017330D03*
X032593Y016830D03*
X032593Y016330D03*
X032593Y015830D03*
X028843Y015830D03*
X028843Y016330D03*
X028843Y016830D03*
X028843Y017330D03*
X028843Y017830D03*
X028843Y018330D03*
X028843Y018830D03*
X028843Y019330D03*
X028843Y019830D03*
X028853Y020330D03*
D17*
X060028Y008230D03*
X061318Y008230D03*
X065088Y008230D03*
X066378Y008230D03*
X070148Y008230D03*
X071438Y008230D03*
X075208Y008230D03*
X076498Y008230D03*
X080268Y008230D03*
X081558Y008230D03*
X085328Y008230D03*
X086618Y008230D03*
X090388Y008230D03*
X091678Y008230D03*
X095448Y008230D03*
X096738Y008230D03*
D18*
X049903Y023585D03*
X049903Y024875D03*
X042893Y024875D03*
X042893Y023585D03*
X035883Y023585D03*
X035883Y024875D03*
X028873Y024875D03*
X028873Y023585D03*
X011523Y023685D03*
X011523Y024975D03*
D19*
X005373Y024730D03*
X005373Y023730D03*
X005373Y022730D03*
X005373Y021730D03*
X005373Y020730D03*
X005373Y019730D03*
X022273Y016230D03*
X022273Y011230D03*
D20*
X039799Y014856D03*
X039799Y015230D03*
X039799Y015604D03*
X040547Y015604D03*
X040547Y014856D03*
X043199Y006504D03*
X043199Y006130D03*
X043199Y005756D03*
X043947Y005756D03*
X043947Y006504D03*
D21*
X033147Y006004D03*
X032399Y006004D03*
X032399Y005256D03*
X032773Y005256D03*
X033147Y005256D03*
D22*
X035473Y005736D03*
X035473Y006523D03*
X036973Y006523D03*
X036973Y005736D03*
X038473Y005736D03*
X038473Y006523D03*
X039973Y006523D03*
X039973Y005736D03*
X045673Y005736D03*
X045673Y006523D03*
X047473Y006523D03*
X047473Y005736D03*
X048973Y005736D03*
X048973Y006523D03*
X045773Y010636D03*
X045773Y011423D03*
X045673Y015336D03*
X045673Y016123D03*
X043773Y016123D03*
X043773Y015336D03*
X042273Y015336D03*
X042273Y016123D03*
X039073Y011423D03*
X039073Y010636D03*
X024273Y014836D03*
X024273Y015623D03*
X020473Y024036D03*
X020473Y024823D03*
X018223Y024823D03*
X018223Y024036D03*
X047973Y031436D03*
X047973Y032223D03*
X056773Y032223D03*
X056773Y031436D03*
X056973Y033936D03*
X056973Y034723D03*
X039673Y046336D03*
X039673Y047123D03*
X026973Y043523D03*
X026973Y042736D03*
D23*
X033083Y040230D03*
X034264Y040230D03*
D24*
X031497Y042680D03*
X031497Y043180D03*
X031497Y043680D03*
X031497Y044180D03*
X029449Y044180D03*
X029449Y043680D03*
X029449Y043180D03*
X029449Y042680D03*
D25*
X057973Y041820D03*
X057973Y040639D03*
X026473Y016820D03*
X026473Y015639D03*
D26*
X026579Y019230D03*
X027367Y019230D03*
X036779Y016530D03*
X037567Y016530D03*
X037567Y015230D03*
X036779Y015230D03*
X027867Y004530D03*
X027079Y004530D03*
D27*
X007623Y028300D03*
X007123Y028300D03*
X006623Y028300D03*
X006123Y028300D03*
X006123Y029560D03*
X006623Y029560D03*
X007123Y029560D03*
X007623Y029560D03*
X052823Y037800D03*
X053323Y037800D03*
X053823Y037800D03*
X054323Y037800D03*
X054323Y039060D03*
X053823Y039060D03*
X053323Y039060D03*
X052823Y039060D03*
D28*
X002854Y010230D03*
D29*
X004823Y012198D03*
X004823Y008261D03*
D30*
X024873Y041030D03*
X026473Y041030D03*
D31*
X020673Y019230D03*
X019673Y019230D03*
X018673Y019230D03*
X017673Y019230D03*
X016673Y019230D03*
X015673Y019230D03*
X014673Y019230D03*
X013673Y019230D03*
X012673Y019230D03*
X011673Y019230D03*
X010673Y019230D03*
X009673Y019230D03*
X009673Y018230D03*
X010673Y018230D03*
X011673Y018230D03*
X012673Y018230D03*
X013673Y018230D03*
X014673Y018230D03*
X015673Y018230D03*
X016673Y018230D03*
X017673Y018230D03*
X018673Y018230D03*
X019673Y018230D03*
X020673Y018230D03*
X020673Y017230D03*
X019673Y017230D03*
X018673Y017230D03*
X017673Y017230D03*
X016673Y017230D03*
X015673Y017230D03*
X014673Y017230D03*
X013673Y017230D03*
X012673Y017230D03*
X011673Y017230D03*
X010673Y017230D03*
X009673Y017230D03*
X009673Y016230D03*
X010673Y016230D03*
X011673Y016230D03*
X012673Y016230D03*
X013673Y016230D03*
X014673Y016230D03*
X015673Y016230D03*
X016673Y016230D03*
X017673Y016230D03*
X018673Y016230D03*
X019673Y016230D03*
X020673Y016230D03*
X020673Y015230D03*
X019673Y015230D03*
X018673Y015230D03*
X017673Y015230D03*
X016673Y015230D03*
X015673Y015230D03*
X014673Y015230D03*
X013673Y015230D03*
X012673Y015230D03*
X011673Y015230D03*
X010673Y015230D03*
X009673Y015230D03*
X009673Y014230D03*
X010673Y014230D03*
X011673Y014230D03*
X012673Y014230D03*
X013673Y014230D03*
X014673Y014230D03*
X015673Y014230D03*
X016673Y014230D03*
X017673Y014230D03*
X018673Y014230D03*
X019673Y014230D03*
X020673Y014230D03*
X020673Y013230D03*
X019673Y013230D03*
X018673Y013230D03*
X017673Y013230D03*
X016673Y013230D03*
X015673Y013230D03*
X014673Y013230D03*
X013673Y013230D03*
X012673Y013230D03*
X011673Y013230D03*
X010673Y013230D03*
X009673Y013230D03*
X009673Y012230D03*
X010673Y012230D03*
X011673Y012230D03*
X012673Y012230D03*
X013673Y012230D03*
X014673Y012230D03*
X015673Y012230D03*
X016673Y012230D03*
X017673Y012230D03*
X018673Y012230D03*
X019673Y012230D03*
X020673Y012230D03*
X020673Y011230D03*
X019673Y011230D03*
X018673Y011230D03*
X017673Y011230D03*
X016673Y011230D03*
X015673Y011230D03*
X014673Y011230D03*
X013673Y011230D03*
X012673Y011230D03*
X011673Y011230D03*
X010673Y011230D03*
X009673Y011230D03*
X009673Y010230D03*
X010673Y010230D03*
X011673Y010230D03*
X012673Y010230D03*
X013673Y010230D03*
X014673Y010230D03*
X015673Y010230D03*
X016673Y010230D03*
X017673Y010230D03*
X018673Y010230D03*
X019673Y010230D03*
X020673Y010230D03*
X020673Y009230D03*
X019673Y009230D03*
X018673Y009230D03*
X017673Y009230D03*
X016673Y009230D03*
X015673Y009230D03*
X014673Y009230D03*
X013673Y009230D03*
X012673Y009230D03*
X011673Y009230D03*
X010673Y009230D03*
X009673Y009230D03*
X009673Y008230D03*
X010673Y008230D03*
X011673Y008230D03*
X012673Y008230D03*
X013673Y008230D03*
X014673Y008230D03*
X015673Y008230D03*
X016673Y008230D03*
X017673Y008230D03*
X018673Y008230D03*
X019673Y008230D03*
X020673Y008230D03*
D32*
X016996Y022930D03*
X016996Y023930D03*
X016996Y024930D03*
X013650Y024930D03*
X013650Y023930D03*
X013650Y022930D03*
D33*
X023532Y023514D03*
X023532Y025285D03*
X027114Y025285D03*
X027114Y023514D03*
X030542Y023514D03*
X030542Y025285D03*
X034124Y025285D03*
X034124Y023514D03*
X037552Y023514D03*
X037552Y025285D03*
X041134Y025285D03*
X041134Y023514D03*
X044562Y023514D03*
X044562Y025285D03*
X048144Y025285D03*
X048144Y023514D03*
X059092Y012145D03*
X059092Y010374D03*
X062674Y010374D03*
X064152Y010374D03*
X064152Y012145D03*
X062674Y012145D03*
X067734Y012145D03*
X069212Y012145D03*
X069212Y010374D03*
X067734Y010374D03*
X072794Y010374D03*
X074272Y010374D03*
X074272Y012145D03*
X072794Y012145D03*
X077854Y012145D03*
X079332Y012145D03*
X079332Y010374D03*
X077854Y010374D03*
X082914Y010374D03*
X084392Y010374D03*
X084392Y012145D03*
X082914Y012145D03*
X087974Y012145D03*
X089452Y012145D03*
X089452Y010374D03*
X087974Y010374D03*
X093034Y010374D03*
X094512Y010374D03*
X094512Y012145D03*
X093034Y012145D03*
X098094Y012145D03*
X098094Y010374D03*
D34*
X019173Y048230D03*
X014173Y048230D03*
D35*
X047873Y018030D03*
X047873Y016430D03*
X050373Y016430D03*
X050373Y018030D03*
D36*
X006623Y037230D03*
X006623Y045130D03*
D37*
X007623Y043130D03*
X006623Y042130D03*
X006623Y040230D03*
X007623Y039230D03*
X002623Y039230D03*
X002623Y038230D03*
X002623Y036230D03*
X002623Y035230D03*
X006623Y034230D03*
X007623Y035230D03*
X002623Y043130D03*
X002623Y044130D03*
X002623Y046130D03*
X002623Y047130D03*
X006623Y048130D03*
X007623Y047130D03*
D38*
X007673Y047130D01*
X009673Y045130D01*
X009673Y032530D01*
X009273Y032130D02*
X009273Y041430D01*
X007573Y043130D01*
X007623Y043130D01*
X007673Y039230D02*
X007623Y039230D01*
X007673Y039230D02*
X008573Y038330D01*
X008573Y031130D01*
X007623Y030180D01*
X007623Y029560D01*
X006623Y029560D02*
X006623Y031530D01*
X006573Y031530D01*
X006173Y031930D02*
X006123Y031930D01*
X006123Y029560D01*
X006623Y028300D02*
X006623Y026430D01*
X009973Y023080D01*
X009973Y021430D01*
X010923Y023180D02*
X007223Y026880D01*
X007623Y027180D02*
X007623Y028280D01*
X007603Y028300D01*
X007623Y028300D01*
X007603Y028300D02*
X007573Y028330D01*
X007623Y027180D02*
X009173Y025630D01*
X011323Y025630D01*
X011523Y025430D01*
X011523Y024975D01*
X011523Y023685D02*
X011523Y023330D01*
X011373Y023180D01*
X010923Y023180D01*
X009073Y026330D02*
X021373Y026330D01*
X022973Y026330D02*
X050773Y026330D01*
X050973Y025830D02*
X051273Y026130D01*
X051273Y026630D01*
X049673Y028230D01*
X049673Y027630D01*
X049273Y027230D01*
X046373Y027230D01*
X045853Y027750D01*
X045853Y029500D01*
X046853Y029500D02*
X046853Y030050D01*
X046673Y030230D01*
X040973Y030230D01*
X039973Y031230D01*
X039573Y031630D02*
X039573Y030430D01*
X039843Y030160D01*
X039843Y029500D01*
X038843Y029500D02*
X038843Y027760D01*
X039373Y027230D01*
X032373Y027230D01*
X031833Y027770D01*
X031833Y029500D01*
X032833Y029500D02*
X032833Y030590D01*
X033573Y031330D01*
X038473Y031330D01*
X039173Y032030D01*
X038773Y032430D02*
X038073Y031730D01*
X026673Y031730D01*
X025823Y030880D01*
X025823Y029500D01*
X024823Y029500D02*
X024823Y027680D01*
X025273Y027230D01*
X032373Y027230D01*
X034729Y025285D02*
X035273Y025830D01*
X042273Y025830D01*
X041729Y025285D01*
X041134Y025285D01*
X041873Y024630D02*
X042118Y024875D01*
X042893Y024875D01*
X041873Y024630D02*
X041873Y023630D01*
X041757Y023514D01*
X041134Y023514D01*
X042893Y023585D02*
X042893Y023210D01*
X043373Y022730D01*
X025273Y022730D01*
X025673Y022530D02*
X025473Y022330D01*
X024773Y022330D01*
X025673Y022530D02*
X050373Y022530D01*
X050573Y022330D01*
X050973Y022330D01*
X051173Y022530D01*
X051173Y023130D01*
X050073Y023130D01*
X049903Y023300D01*
X049903Y023585D01*
X048873Y023630D02*
X048873Y024630D01*
X049118Y024875D01*
X049903Y024875D01*
X049273Y025830D02*
X050973Y025830D01*
X051528Y024974D02*
X051573Y024930D01*
X051573Y021930D01*
X054173Y019330D01*
X054173Y010430D01*
X057773Y006830D01*
X058673Y006830D01*
X058873Y006630D01*
X059173Y006630D01*
X059473Y006630D01*
X059673Y006830D01*
X063673Y006830D01*
X064073Y006430D01*
X064473Y006430D01*
X064873Y006830D01*
X068673Y006830D01*
X069073Y006430D01*
X069673Y006430D01*
X070073Y006830D01*
X079273Y006830D01*
X079473Y006630D01*
X079473Y008230D02*
X080268Y008230D01*
X081558Y008230D02*
X081973Y008230D01*
X082914Y009171D01*
X082914Y010374D01*
X084392Y012145D02*
X084392Y013011D01*
X084173Y013230D01*
X078673Y013230D01*
X079332Y012571D01*
X079332Y012145D01*
X078673Y013230D02*
X078273Y013630D01*
X057373Y013630D01*
X056173Y014830D01*
X056173Y026730D01*
X055773Y027130D02*
X055773Y014630D01*
X057173Y013230D01*
X058673Y013230D01*
X059092Y012811D01*
X059092Y012145D01*
X058673Y013230D02*
X063673Y013230D01*
X064152Y012751D01*
X064152Y012145D01*
X063673Y013230D02*
X068673Y013230D01*
X069212Y012691D01*
X069212Y012145D01*
X068673Y013230D02*
X073673Y013230D01*
X074272Y012631D01*
X074272Y012145D01*
X072794Y010374D02*
X072794Y009251D01*
X071773Y008230D01*
X071438Y008230D01*
X070148Y008230D02*
X069373Y008230D01*
X068873Y007230D02*
X069073Y007030D01*
X069373Y007030D01*
X069673Y007030D01*
X069873Y007230D01*
X089373Y007230D01*
X089573Y007030D01*
X089573Y008230D02*
X090388Y008230D01*
X091678Y008230D02*
X092073Y008230D01*
X093034Y009191D01*
X093034Y010374D01*
X094512Y012145D02*
X094512Y012891D01*
X094173Y013230D01*
X089173Y013230D01*
X089452Y012951D01*
X089452Y012145D01*
X089173Y013230D02*
X084173Y013230D01*
X087974Y010374D02*
X087974Y009231D01*
X086973Y008230D01*
X086618Y008230D01*
X085328Y008230D02*
X084573Y008230D01*
X084373Y007030D02*
X069973Y007030D01*
X069573Y006630D01*
X069173Y006630D01*
X068773Y007030D01*
X064773Y007030D01*
X064573Y006830D01*
X064273Y006830D01*
X063973Y006830D01*
X063773Y007030D01*
X057973Y007030D01*
X054573Y010430D01*
X054573Y019730D01*
X051973Y022330D01*
X051973Y025030D01*
X051843Y025160D01*
X051843Y029386D01*
X051528Y029386D02*
X051528Y024974D01*
X052158Y025345D02*
X052373Y025130D01*
X052373Y022730D01*
X054973Y020130D01*
X054973Y010430D01*
X058173Y007230D01*
X068873Y007230D01*
X067734Y009191D02*
X066773Y008230D01*
X066378Y008230D01*
X065088Y008230D02*
X064273Y008230D01*
X062674Y009231D02*
X061673Y008230D01*
X061318Y008230D01*
X060028Y008230D02*
X059173Y008230D01*
X058373Y007430D02*
X055373Y010430D01*
X055373Y020530D01*
X052773Y023130D01*
X052773Y025230D01*
X052473Y025530D01*
X052473Y029386D01*
X052158Y029386D02*
X052158Y025345D01*
X052873Y026330D02*
X052788Y026415D01*
X052788Y029386D01*
X053103Y029386D02*
X053103Y028300D01*
X053673Y027730D01*
X056973Y027730D01*
X057673Y028430D01*
X095973Y028430D01*
X097041Y029498D01*
X097041Y042761D01*
X096973Y042830D01*
X097018Y042875D01*
X097041Y042875D01*
X092073Y042930D02*
X092018Y042875D01*
X091981Y042838D01*
X091981Y029738D01*
X090973Y028730D01*
X057573Y028730D01*
X056873Y028030D01*
X053873Y028030D01*
X053418Y028485D01*
X053418Y029386D01*
X053733Y029386D02*
X053733Y028670D01*
X054073Y028330D01*
X056773Y028330D01*
X057473Y029030D01*
X085873Y029030D01*
X086921Y030078D01*
X086921Y042778D01*
X086973Y042830D01*
X086928Y042875D01*
X086921Y042875D01*
X081873Y042830D02*
X081861Y042818D01*
X081861Y030218D01*
X080973Y029330D01*
X057373Y029330D01*
X056673Y028630D01*
X054273Y028630D01*
X054048Y028855D01*
X054048Y029386D01*
X054717Y030055D02*
X055248Y030055D01*
X056173Y029130D01*
X056073Y029630D02*
X055333Y030370D01*
X054717Y030370D01*
X054717Y030685D02*
X055418Y030685D01*
X056173Y029930D01*
X070973Y029930D01*
X071741Y030698D01*
X071741Y042861D01*
X071728Y042875D01*
X071741Y042875D01*
X071728Y042875D02*
X071673Y042930D01*
X070473Y045730D02*
X069873Y045730D01*
X069673Y045930D01*
X065473Y045930D01*
X065373Y045830D01*
X064773Y045830D01*
X064673Y045930D01*
X057973Y045930D01*
X054873Y042830D01*
X052773Y042830D01*
X053273Y043330D02*
X054873Y043330D01*
X057773Y046230D01*
X064673Y046230D01*
X064873Y046030D01*
X065273Y046030D01*
X065473Y046230D01*
X069773Y046230D01*
X069873Y046130D01*
X070173Y046130D01*
X070473Y046130D01*
X070573Y046230D01*
X090973Y046230D01*
X091743Y047000D01*
X091743Y047790D01*
X090743Y047790D02*
X090743Y048360D01*
X090573Y048530D01*
X085473Y048530D01*
X080473Y048530D01*
X080623Y048380D01*
X080623Y047790D01*
X080473Y048530D02*
X078473Y048530D01*
X078273Y048730D01*
X056773Y048730D01*
X055073Y047030D01*
X055073Y046630D01*
X055373Y046330D01*
X055973Y046330D01*
X055573Y046830D02*
X055573Y047230D01*
X056873Y048530D01*
X060173Y048530D01*
X060383Y048320D01*
X060383Y047790D01*
X060173Y048530D02*
X065173Y048530D01*
X065443Y048260D01*
X065443Y047790D01*
X065173Y048530D02*
X070273Y048530D01*
X070503Y048300D01*
X070503Y047790D01*
X070273Y048530D02*
X075173Y048530D01*
X075563Y048140D01*
X075563Y047790D01*
X075573Y045930D02*
X095973Y045930D01*
X096803Y046760D01*
X096803Y047790D01*
X095803Y047790D02*
X095803Y048200D01*
X095473Y048530D01*
X090573Y048530D01*
X086683Y047790D02*
X086683Y047040D01*
X086173Y046530D01*
X065473Y046530D01*
X065373Y046430D01*
X065073Y046430D01*
X064773Y046430D01*
X064673Y046530D01*
X057573Y046530D01*
X054873Y043830D01*
X053773Y043830D01*
X054273Y044330D02*
X054873Y044330D01*
X057373Y046830D01*
X061073Y046830D01*
X061383Y047140D01*
X061383Y047790D01*
X061073Y046830D02*
X081373Y046830D01*
X081623Y047080D01*
X081623Y047790D01*
X085473Y048530D02*
X085683Y048320D01*
X085683Y047790D01*
X081861Y042875D02*
X081861Y042841D01*
X081873Y042830D01*
X076801Y042858D02*
X076801Y042875D01*
X076801Y042858D02*
X076773Y042830D01*
X076801Y042801D01*
X076801Y030458D01*
X075973Y029630D01*
X056073Y029630D01*
X056273Y030230D02*
X055503Y031000D01*
X054717Y031000D01*
X054717Y031315D02*
X055588Y031315D01*
X056373Y030530D01*
X060873Y030530D01*
X061621Y031278D01*
X061621Y042881D01*
X061573Y042930D01*
X061621Y042881D02*
X061621Y042875D01*
X066673Y042830D02*
X066681Y042821D01*
X066681Y030938D01*
X065973Y030230D01*
X056273Y030230D01*
X055403Y032260D02*
X055773Y032630D01*
X055673Y033030D02*
X056773Y033030D01*
X056973Y033230D01*
X056973Y033936D01*
X056173Y034230D02*
X055973Y034430D01*
X055973Y041630D01*
X055573Y041130D02*
X055573Y033930D01*
X055773Y033730D01*
X055273Y033530D02*
X055273Y033030D01*
X055133Y032889D01*
X054717Y032889D01*
X054717Y032574D02*
X055218Y032574D01*
X055673Y033030D01*
X055273Y033530D02*
X054773Y034030D01*
X054773Y036230D01*
X054323Y036680D01*
X054323Y037800D01*
X053823Y037800D02*
X053823Y036880D01*
X054573Y036130D01*
X054573Y035130D01*
X053733Y034289D01*
X053733Y033874D01*
X053418Y033874D02*
X053418Y034274D01*
X054373Y035230D01*
X054373Y036030D01*
X053323Y037080D01*
X053323Y037800D01*
X052823Y037800D02*
X052823Y037280D01*
X054173Y035930D01*
X054173Y035330D01*
X053103Y034260D01*
X053103Y033874D01*
X052788Y033874D02*
X052788Y034745D01*
X053673Y035630D01*
X053173Y035830D02*
X052473Y035130D01*
X052473Y033874D01*
X052158Y033874D02*
X052158Y035515D01*
X052673Y036030D01*
X052173Y036230D02*
X051843Y035900D01*
X051843Y033874D01*
X051528Y033874D02*
X051528Y035874D01*
X051473Y035930D01*
X050973Y035530D02*
X051213Y035289D01*
X051213Y033874D01*
X050898Y033874D02*
X050898Y034704D01*
X050473Y035130D01*
X049973Y034730D02*
X049973Y034130D01*
X049673Y033830D01*
X049673Y033330D01*
X049798Y033204D01*
X050229Y033204D01*
X050229Y032889D02*
X049813Y032889D01*
X049473Y033230D01*
X049473Y034330D01*
X048973Y033930D02*
X048973Y033430D01*
X049828Y032574D01*
X050229Y032574D01*
X050229Y032260D02*
X049843Y032260D01*
X048573Y033530D01*
X048473Y033530D01*
X048673Y033130D02*
X047973Y033130D01*
X048673Y033130D02*
X049858Y031945D01*
X050229Y031945D01*
X050229Y031000D02*
X049443Y031000D01*
X049173Y030730D01*
X048873Y030730D01*
X049073Y030330D02*
X048473Y030330D01*
X048173Y029930D02*
X049073Y029930D01*
X049513Y030370D01*
X050229Y030370D01*
X050229Y030685D02*
X049428Y030685D01*
X049073Y030330D01*
X049673Y029930D02*
X049673Y028230D01*
X049673Y029930D02*
X049798Y030055D01*
X050229Y030055D01*
X048173Y029930D02*
X047273Y030830D01*
X041373Y030830D01*
X038573Y033630D01*
X029073Y033630D01*
X028623Y034080D01*
X028623Y034820D01*
X040173Y033830D02*
X040173Y040830D01*
X040973Y041630D01*
X054273Y041630D01*
X054323Y041580D01*
X054323Y039060D01*
X053823Y039060D02*
X053823Y041180D01*
X053773Y041230D01*
X041173Y041230D01*
X040573Y040630D01*
X040573Y033430D01*
X040973Y033030D02*
X040973Y040430D01*
X041373Y040830D01*
X053273Y040830D01*
X053323Y040780D01*
X053323Y039060D01*
X052823Y039060D02*
X052823Y040380D01*
X052773Y040430D01*
X041573Y040430D01*
X041373Y040230D01*
X041373Y032630D01*
X039373Y027230D02*
X046373Y027230D01*
X048729Y025285D02*
X049273Y025830D01*
X042273Y025830D01*
X043373Y022730D02*
X050773Y022730D01*
X050273Y022330D02*
X050673Y021930D01*
X051173Y021930D01*
X051573Y021930D02*
X051573Y021730D01*
X051373Y021530D01*
X050773Y021530D01*
X050173Y022130D01*
X035673Y022130D01*
X035273Y021730D01*
X034873Y021730D01*
X034473Y022130D01*
X029673Y022130D01*
X029673Y023130D02*
X028973Y023130D01*
X028873Y023230D01*
X028873Y023585D01*
X027873Y023630D02*
X027873Y024630D01*
X028118Y024875D01*
X028873Y024875D01*
X028273Y025830D02*
X035273Y025830D01*
X034729Y025285D02*
X034124Y025285D01*
X034873Y024630D02*
X035118Y024875D01*
X035883Y024875D01*
X034873Y024630D02*
X034873Y023630D01*
X034757Y023514D01*
X034124Y023514D01*
X035073Y023130D02*
X035173Y023030D01*
X035773Y023030D01*
X035883Y023140D01*
X035883Y023585D01*
X035273Y022330D02*
X050273Y022330D01*
X048873Y023630D02*
X048757Y023514D01*
X048144Y023514D01*
X048144Y025285D02*
X048729Y025285D01*
X037173Y020830D02*
X036573Y020830D01*
X036273Y021130D01*
X026073Y021130D01*
X025573Y021630D01*
X025573Y021030D02*
X025673Y020930D01*
X035973Y020930D01*
X036473Y020430D01*
X036873Y020430D01*
X036573Y020030D02*
X036373Y020030D01*
X035673Y020730D01*
X028373Y020730D01*
X028273Y020630D01*
X028273Y020430D01*
X028373Y020330D01*
X028853Y020330D01*
X028843Y019830D02*
X028373Y019830D01*
X028273Y019930D01*
X026173Y019930D01*
X025673Y019430D01*
X025673Y017930D01*
X028073Y018230D02*
X028473Y017830D01*
X028843Y017830D01*
X028073Y018230D02*
X028073Y018330D01*
X028073Y018430D01*
X028473Y018830D01*
X028843Y018830D01*
X032593Y018830D02*
X034773Y018830D01*
X035573Y018030D01*
X035973Y018430D02*
X035073Y019330D01*
X032593Y019330D01*
X032593Y019830D02*
X033273Y019830D01*
X032593Y020330D02*
X035573Y020330D01*
X036273Y019630D01*
X034473Y018330D02*
X035173Y017630D01*
X034773Y017230D02*
X034173Y017830D01*
X032593Y017830D01*
X032593Y018330D02*
X034473Y018330D01*
X033873Y017330D02*
X032593Y017330D01*
X032593Y016830D02*
X033573Y016830D01*
X033973Y016430D01*
X034373Y016830D02*
X033873Y017330D01*
X033273Y016330D02*
X032593Y016330D01*
X032593Y015830D02*
X032973Y015830D01*
X033173Y015630D01*
X033573Y016030D02*
X033273Y016330D01*
X035073Y022130D02*
X035273Y022330D01*
X027873Y023630D02*
X027757Y023514D01*
X027114Y023514D01*
X027114Y025285D02*
X027729Y025285D01*
X028273Y025830D01*
X020473Y024036D02*
X020473Y021830D01*
X020873Y021430D01*
X020473Y021830D02*
X019773Y022530D01*
X018073Y022530D01*
X017673Y022930D01*
X016996Y022930D01*
X007673Y031030D02*
X007673Y035280D01*
X007623Y035230D01*
X007673Y035280D02*
X007673Y035330D01*
X009273Y032130D02*
X009573Y031830D01*
X007673Y031030D02*
X007223Y030580D01*
X027263Y044440D02*
X027523Y044180D01*
X029449Y044180D01*
X027263Y044440D02*
X027263Y046540D01*
X037333Y047040D02*
X037333Y047690D01*
X037473Y047830D01*
X039473Y047830D01*
X039673Y047630D01*
X039673Y047123D01*
X054717Y032260D02*
X055403Y032260D01*
X066673Y042830D02*
X066681Y042838D01*
X066681Y042875D01*
X070473Y045730D02*
X070673Y045930D01*
X074773Y045930D01*
X074873Y045830D01*
X075173Y045830D01*
X075473Y045830D01*
X075573Y045930D01*
X091981Y042875D02*
X092018Y042875D01*
X098094Y010374D02*
X098094Y009251D01*
X097073Y008230D01*
X096738Y008230D01*
X095448Y008230D02*
X094973Y008230D01*
X094173Y007430D01*
X074073Y007430D01*
X074873Y008230D01*
X075208Y008230D01*
X076498Y008230D02*
X076873Y008230D01*
X077854Y009211D01*
X077854Y010374D01*
X074073Y007430D02*
X058373Y007430D01*
X062674Y009231D02*
X062674Y010374D01*
X067734Y010374D02*
X067734Y009191D01*
X084373Y007030D02*
X084573Y006830D01*
D39*
X084573Y006830D03*
X084573Y008230D03*
X089573Y008230D03*
X089573Y007030D03*
X079473Y006630D03*
X079473Y008230D03*
X069373Y008230D03*
X069373Y007030D03*
X064273Y006830D03*
X064273Y008230D03*
X059173Y008230D03*
X059173Y006630D03*
X047473Y007330D03*
X045673Y007930D03*
X044473Y007930D03*
X044573Y006530D03*
X044373Y005030D03*
X042073Y006330D03*
X041273Y007030D03*
X041173Y005730D03*
X036973Y007330D03*
X035473Y007330D03*
X033673Y007330D03*
X032373Y006630D03*
X035873Y004930D03*
X032773Y004330D03*
X032473Y009230D03*
X031673Y010830D03*
X027573Y014630D03*
X026473Y014630D03*
X024573Y014030D03*
X028173Y015730D03*
X027673Y016830D03*
X028073Y017430D03*
X028173Y019330D03*
X025573Y021030D03*
X025573Y021630D03*
X024773Y022330D03*
X025273Y022730D03*
X029673Y023130D03*
X029673Y022130D03*
X033273Y019830D03*
X036273Y019630D03*
X036573Y020030D03*
X036873Y020430D03*
X037173Y020830D03*
X035073Y022130D03*
X035073Y023130D03*
X035973Y018430D03*
X035573Y018030D03*
X035173Y017630D03*
X034773Y017230D03*
X034373Y016830D03*
X033973Y016430D03*
X033573Y016030D03*
X033173Y015630D03*
X036773Y017430D03*
X038773Y015430D03*
X038073Y014130D03*
X039073Y012830D03*
X041173Y015530D03*
X041373Y016730D03*
X045673Y014430D03*
X051173Y021930D03*
X051973Y022330D03*
X052373Y022730D03*
X052773Y023130D03*
X051173Y023130D03*
X050773Y022730D03*
X050773Y026330D03*
X052873Y026330D03*
X055773Y027130D03*
X056173Y026730D03*
X056173Y029130D03*
X055773Y032630D03*
X057573Y032530D03*
X055773Y033730D03*
X056173Y034230D03*
X056973Y035530D03*
X053673Y035630D03*
X053173Y035830D03*
X052673Y036030D03*
X052173Y036230D03*
X051473Y035930D03*
X050973Y035530D03*
X050473Y035130D03*
X049973Y034730D03*
X049473Y034330D03*
X048973Y033930D03*
X048473Y033530D03*
X047973Y033130D03*
X047173Y032430D03*
X048873Y030730D03*
X048473Y030330D03*
X041373Y032630D03*
X040973Y033030D03*
X040573Y033430D03*
X040173Y033830D03*
X038773Y032430D03*
X039173Y032030D03*
X039573Y031630D03*
X039973Y031230D03*
X052773Y040430D03*
X053273Y040830D03*
X053773Y041230D03*
X054273Y041630D03*
X055573Y041130D03*
X055973Y041630D03*
X057973Y039530D03*
X052773Y042830D03*
X053273Y043330D03*
X053773Y043830D03*
X054273Y044330D03*
X055973Y046330D03*
X055573Y046830D03*
X065073Y046430D03*
X070173Y046130D03*
X075173Y045830D03*
X037173Y050730D03*
X036173Y050730D03*
X035173Y050730D03*
X034173Y050730D03*
X033173Y050730D03*
X032173Y050730D03*
X031173Y050730D03*
X031173Y049730D03*
X031173Y048730D03*
X031173Y047730D03*
X031173Y046730D03*
X031173Y045730D03*
X035173Y045730D03*
X035173Y046730D03*
X035173Y047730D03*
X035173Y048730D03*
X035173Y049730D03*
X035173Y044730D03*
X035173Y043730D03*
X035173Y042730D03*
X035173Y041730D03*
X034173Y041730D03*
X033173Y041730D03*
X028273Y042630D03*
X025973Y043530D03*
X009673Y032530D03*
X009573Y031830D03*
X007223Y030580D03*
X006573Y031530D03*
X006173Y031930D03*
X007223Y026880D03*
X009073Y026330D03*
X009973Y021430D03*
X018223Y023080D03*
X020873Y021430D03*
X021373Y026330D03*
X022973Y026330D03*
D40*
X007273Y005130D02*
X008773Y003630D01*
X025073Y003630D01*
X025973Y004530D01*
X027079Y004530D01*
X027173Y004530D01*
X043273Y009530D02*
X043293Y009550D01*
X043293Y009600D01*
X016996Y022930D02*
X016923Y022930D01*
X006605Y012198D02*
X004823Y012198D01*
X006605Y012198D02*
X007273Y011530D01*
X007273Y007530D01*
X006542Y008261D01*
X004823Y008261D01*
X007273Y007530D02*
X007273Y005130D01*
D41*
X009173Y009230D02*
X009673Y009230D01*
X009173Y009230D02*
X008673Y009730D01*
X008673Y014630D01*
X009073Y014230D01*
X009673Y014230D01*
X008673Y014630D02*
X008673Y019530D01*
X008973Y019230D01*
X009673Y019230D01*
X008673Y019530D02*
X007873Y020330D01*
X007573Y020630D01*
X007573Y022630D01*
X007573Y024830D01*
X006123Y026280D01*
X006123Y028300D01*
X011523Y024975D02*
X013628Y024975D01*
X013673Y024930D01*
X013650Y024930D01*
X013650Y023930D02*
X013650Y023853D01*
X013573Y023930D01*
X012973Y023930D01*
X012728Y023685D01*
X011523Y023685D01*
X013650Y023853D02*
X013673Y023830D01*
X018223Y024823D02*
X018767Y024823D01*
X019673Y025730D01*
X020873Y025730D01*
X020473Y025330D01*
X020473Y024823D01*
X020873Y025730D02*
X021873Y025730D01*
X022273Y026130D01*
X022273Y021030D01*
X022273Y018230D01*
X022773Y017730D01*
X025173Y017730D01*
X025473Y017730D01*
X025673Y017930D01*
X026073Y018330D01*
X026273Y018330D01*
X026579Y018636D01*
X026579Y019230D01*
X027367Y019230D02*
X028073Y019230D01*
X028173Y019330D01*
X028073Y018330D02*
X026273Y018330D01*
X026273Y017730D02*
X025473Y017730D01*
X025173Y017730D02*
X025173Y016930D01*
X024273Y016030D01*
X024273Y015623D01*
X024273Y014836D02*
X024273Y014330D01*
X024573Y014030D01*
X025173Y014430D02*
X025573Y014030D01*
X030473Y014030D01*
X032473Y012030D01*
X032473Y009230D01*
X033173Y008530D01*
X037473Y008530D01*
X043873Y008530D01*
X044473Y007930D01*
X044573Y006530D02*
X044547Y006504D01*
X043947Y006504D01*
X038073Y009130D02*
X037473Y008530D01*
X038073Y009130D02*
X038073Y014130D01*
X038973Y015230D02*
X038773Y015430D01*
X038973Y015230D02*
X039799Y015230D01*
X040547Y015604D02*
X041099Y015604D01*
X041173Y015530D01*
X045673Y015336D02*
X045673Y014430D01*
X028843Y015830D02*
X028273Y015830D01*
X028173Y015730D01*
X026473Y015639D02*
X026473Y014630D01*
X025173Y014430D02*
X025173Y016930D01*
X026473Y016820D02*
X026473Y017530D01*
X026273Y017730D01*
X028073Y017430D02*
X028173Y017330D01*
X028843Y017330D01*
X028843Y018330D02*
X028073Y018330D01*
X022273Y021030D02*
X021573Y020330D01*
X007873Y020330D01*
X007573Y022630D02*
X006473Y023730D01*
X005373Y023730D01*
X022273Y026130D02*
X022273Y030930D01*
X025073Y033730D01*
X025073Y038430D01*
X026473Y039830D01*
X031773Y039830D01*
X032273Y040330D01*
X032273Y039230D01*
X032273Y035930D01*
X031163Y034820D01*
X029623Y034820D01*
X032673Y038830D02*
X034273Y038830D01*
X041673Y031430D01*
X044973Y031430D01*
X045553Y032010D01*
X045553Y034820D01*
X047173Y032430D02*
X047379Y032223D01*
X047973Y032223D01*
X047973Y031436D02*
X047973Y031430D01*
X044973Y031430D01*
X056773Y031436D02*
X057379Y031436D01*
X058173Y032230D01*
X058173Y037930D01*
X056873Y039230D01*
X056873Y041730D01*
X056373Y042230D01*
X056273Y042230D01*
X056873Y042230D01*
X057973Y043330D01*
X057973Y043530D01*
X057973Y044730D01*
X058373Y045130D01*
X059873Y045130D01*
X060145Y044858D01*
X060145Y042875D01*
X057973Y043530D02*
X057973Y041820D01*
X056273Y042230D02*
X046873Y042230D01*
X047253Y042610D01*
X047253Y044370D01*
X046873Y042230D02*
X038973Y042230D01*
X039673Y042930D01*
X039673Y046336D01*
X037773Y048630D02*
X035773Y048630D01*
X035373Y048230D01*
X035373Y041330D01*
X032973Y041330D01*
X032973Y042730D01*
X032573Y043130D01*
X032573Y044530D01*
X031973Y045130D01*
X030773Y045130D01*
X030673Y045230D01*
X030673Y051230D01*
X037773Y051230D01*
X037773Y048630D01*
X037773Y048700D02*
X030673Y048700D01*
X030673Y048938D02*
X037773Y048938D01*
X037773Y049177D02*
X030673Y049177D01*
X030673Y049415D02*
X037773Y049415D01*
X037773Y049654D02*
X030673Y049654D01*
X030673Y049892D02*
X037773Y049892D01*
X037773Y050131D02*
X030673Y050131D01*
X030673Y050370D02*
X037773Y050370D01*
X037773Y050608D02*
X030673Y050608D01*
X030673Y050847D02*
X037773Y050847D01*
X037773Y051085D02*
X030673Y051085D01*
X030673Y048461D02*
X035605Y048461D01*
X035373Y048223D02*
X030673Y048223D01*
X030673Y047984D02*
X035373Y047984D01*
X035373Y047746D02*
X030673Y047746D01*
X030673Y047507D02*
X035373Y047507D01*
X035373Y047268D02*
X030673Y047268D01*
X030673Y047030D02*
X035373Y047030D01*
X035373Y046791D02*
X030673Y046791D01*
X030673Y046553D02*
X035373Y046553D01*
X035373Y046314D02*
X030673Y046314D01*
X030673Y046076D02*
X035373Y046076D01*
X035373Y045837D02*
X030673Y045837D01*
X030673Y045599D02*
X035373Y045599D01*
X035373Y045360D02*
X030673Y045360D01*
X031981Y045122D02*
X035373Y045122D01*
X035373Y044883D02*
X032220Y044883D01*
X032473Y044930D02*
X032573Y044830D01*
X032573Y043830D01*
X032423Y043680D01*
X031497Y043680D01*
X031497Y043180D02*
X032723Y043180D01*
X032873Y043330D01*
X032573Y043213D02*
X035373Y043213D01*
X035373Y042975D02*
X032728Y042975D01*
X032967Y042736D02*
X035373Y042736D01*
X035373Y042498D02*
X032973Y042498D01*
X032973Y042259D02*
X035373Y042259D01*
X035373Y042021D02*
X032973Y042021D01*
X032973Y041782D02*
X035373Y041782D01*
X035373Y041543D02*
X032973Y041543D01*
X032273Y042430D02*
X032273Y040430D01*
X032473Y040230D01*
X033083Y040230D01*
X032273Y040330D02*
X032273Y040430D01*
X032273Y039230D02*
X032673Y038830D01*
X034273Y038830D02*
X035573Y038830D01*
X038973Y042230D01*
X035373Y043452D02*
X032573Y043452D01*
X032573Y043690D02*
X035373Y043690D01*
X035373Y043929D02*
X032573Y043929D01*
X032573Y044167D02*
X035373Y044167D01*
X035373Y044406D02*
X032573Y044406D01*
X032458Y044644D02*
X035373Y044644D01*
X032273Y042430D02*
X032023Y042680D01*
X031497Y042680D01*
X029449Y042680D02*
X028323Y042680D01*
X028273Y042630D01*
X028173Y042730D01*
X028167Y042736D01*
X026973Y042736D01*
X026973Y041930D01*
X027173Y041730D01*
X027173Y041130D01*
X027073Y041030D01*
X026473Y041030D01*
X024873Y041030D02*
X024173Y041030D01*
X023573Y041630D01*
X023573Y043430D01*
X021873Y045130D01*
X015173Y045130D01*
X014173Y046130D01*
X014173Y048230D01*
X025973Y043530D02*
X026967Y043530D01*
X026973Y043523D01*
X027967Y043523D01*
X028123Y043680D01*
X028373Y043680D01*
X028373Y043630D01*
X028823Y043180D01*
X029449Y043180D01*
X029449Y043680D02*
X028373Y043680D01*
X034264Y040230D02*
X034873Y040230D01*
X035073Y040430D01*
X035073Y041330D01*
X056973Y035530D02*
X056973Y034723D01*
X057573Y032530D02*
X057273Y032230D01*
X056773Y032230D01*
X057973Y039530D02*
X057973Y040639D01*
X065205Y042875D02*
X065205Y044798D01*
X064873Y045130D01*
X069973Y045130D01*
X070265Y044838D01*
X070265Y042875D01*
X069973Y045130D02*
X075073Y045130D01*
X075325Y044878D01*
X075325Y042875D01*
X075073Y045130D02*
X080073Y045130D01*
X080385Y044818D01*
X080385Y042875D01*
X080073Y045130D02*
X085173Y045130D01*
X085445Y044858D01*
X085445Y042875D01*
X085173Y045130D02*
X090273Y045130D01*
X090505Y044898D01*
X090505Y042875D01*
X090273Y045130D02*
X095373Y045130D01*
X095565Y044938D01*
X095565Y042875D01*
X064873Y045130D02*
X059873Y045130D01*
D42*
X056773Y032230D02*
X056173Y032230D01*
X055888Y031945D01*
X054717Y031945D01*
X054717Y031630D02*
X055973Y031630D01*
X056173Y031430D01*
X056773Y031430D01*
X056773Y031436D01*
X056773Y032223D02*
X056773Y032230D01*
X050229Y031630D02*
X049173Y031630D01*
X048579Y032223D01*
X047973Y032223D01*
X047973Y031430D02*
X048088Y031315D01*
X050229Y031315D01*
X028843Y019330D02*
X028173Y019330D01*
X027673Y016830D02*
X028843Y016830D01*
X028843Y016330D02*
X027873Y016330D01*
X027573Y016030D01*
X027573Y015230D01*
X027573Y014630D01*
X028073Y014730D02*
X027573Y015230D01*
X028073Y014730D02*
X035373Y014730D01*
X035873Y015230D01*
X036779Y015230D01*
X037567Y015230D02*
X037973Y015230D01*
X038173Y015030D01*
X038173Y016330D01*
X037973Y016530D01*
X037567Y016530D01*
X036779Y016530D02*
X036779Y017423D01*
X036773Y017430D01*
X039273Y016630D02*
X039273Y015730D01*
X039399Y015604D01*
X039799Y015604D01*
X039799Y014856D02*
X038347Y014856D01*
X038173Y015030D01*
X040547Y014856D02*
X041147Y014856D01*
X041273Y014730D01*
X042073Y014730D01*
X042273Y014930D01*
X042273Y015336D01*
X042073Y014730D02*
X043573Y014730D01*
X044473Y014730D01*
X045373Y013830D01*
X045973Y013830D01*
X047673Y015530D01*
X050173Y015530D01*
X050373Y015730D01*
X050373Y016430D01*
X050373Y018030D02*
X050373Y018530D01*
X050073Y018830D01*
X047573Y018830D01*
X047073Y018830D01*
X045473Y017230D01*
X043373Y017230D01*
X042873Y016730D01*
X042073Y016730D01*
X041373Y016730D01*
X039373Y016730D01*
X039273Y016630D01*
X042073Y016730D02*
X042273Y016530D01*
X042273Y016123D01*
X043773Y016123D02*
X043773Y016530D01*
X044073Y016830D01*
X045373Y016830D01*
X045673Y016530D01*
X045673Y016123D01*
X043773Y015336D02*
X043773Y014930D01*
X043573Y014730D01*
X047673Y015530D02*
X047873Y015730D01*
X047873Y016430D01*
X047873Y018030D02*
X047873Y018530D01*
X047573Y018830D01*
X039073Y012830D02*
X039073Y011423D01*
X039073Y010636D02*
X042067Y010636D01*
X042273Y010430D01*
X042273Y009630D01*
X042293Y009610D01*
X042293Y009600D01*
X043273Y009530D02*
X045473Y009530D01*
X046573Y008430D01*
X046573Y006030D01*
X046279Y005736D01*
X045673Y005736D01*
X045673Y006523D02*
X045673Y007530D01*
X045373Y007230D01*
X041973Y007230D01*
X041573Y007630D01*
X039173Y007630D01*
X038473Y006930D01*
X038473Y007630D01*
X038173Y007930D01*
X025873Y007930D01*
X024543Y009260D01*
X024543Y011860D01*
X025543Y011860D02*
X025543Y011360D01*
X026073Y010830D01*
X031673Y010830D01*
X031973Y007330D02*
X031473Y006830D01*
X031473Y004830D01*
X031173Y004530D01*
X032173Y004530D01*
X032399Y004756D01*
X032399Y005256D01*
X032773Y005256D02*
X032773Y004330D01*
X033273Y004730D02*
X033147Y004856D01*
X033147Y005256D01*
X033273Y004730D02*
X033573Y004730D01*
X033673Y004830D01*
X033673Y007330D01*
X033147Y006856D02*
X032673Y007330D01*
X031973Y007330D01*
X032373Y006630D02*
X032399Y006604D01*
X032399Y006004D01*
X033147Y006004D02*
X033147Y006856D01*
X035473Y006523D02*
X035473Y007330D01*
X036973Y007330D02*
X036973Y006523D01*
X036973Y005736D02*
X036973Y005230D01*
X037173Y005030D01*
X038773Y005030D01*
X044373Y005030D01*
X044447Y005756D02*
X045173Y005030D01*
X047173Y005030D01*
X047473Y005330D01*
X047473Y005736D01*
X047473Y006523D02*
X047473Y007230D01*
X047573Y007330D01*
X048773Y007330D01*
X048973Y007130D01*
X048973Y006523D01*
X048973Y005736D02*
X049679Y005736D01*
X049973Y006030D01*
X049973Y007630D01*
X049193Y008410D01*
X049193Y009600D01*
X049193Y009610D01*
X049173Y009630D01*
X049173Y011130D01*
X048879Y011423D01*
X045773Y011423D01*
X045773Y010636D02*
X047967Y010636D01*
X048173Y010430D01*
X048173Y009530D01*
X048193Y009550D01*
X048193Y009600D01*
X045673Y007930D02*
X045673Y007530D01*
X047473Y007330D02*
X047473Y007230D01*
X044447Y005756D02*
X043947Y005756D01*
X043199Y005756D02*
X041199Y005756D01*
X041173Y005730D01*
X041167Y005736D01*
X039973Y005736D01*
X039973Y006523D02*
X039973Y007030D01*
X040173Y007230D01*
X041073Y007230D01*
X041273Y007030D01*
X041973Y007230D02*
X042699Y006504D01*
X043199Y006504D01*
X043199Y006130D02*
X042273Y006130D01*
X042073Y006330D01*
X038773Y005030D02*
X038473Y005330D01*
X038473Y005736D01*
X038473Y006523D02*
X038473Y006930D01*
X035473Y005736D02*
X035473Y005330D01*
X035873Y004930D01*
X031173Y004530D02*
X027867Y004530D01*
D43*
X018223Y023080D02*
X018223Y024036D01*
X016979Y024036D01*
X016873Y023930D01*
X016996Y023930D01*
X016981Y024037D02*
X016873Y023930D01*
X016923Y024823D02*
X016923Y024930D01*
X016996Y024930D01*
X016923Y024823D02*
X018223Y024823D01*
M02*
