G75*
G70*
%OFA0B0*%
%FSLAX24Y24*%
%IPPOS*%
%LPD*%
%AMOC8*
5,1,8,0,0,1.08239X$1,22.5*
%
%ADD10C,0.1460*%
%ADD11C,0.0240*%
%ADD12O,0.0945X0.1830*%
%ADD13O,0.0651X0.1241*%
%ADD14C,0.1060*%
%ADD15OC8,0.0460*%
%ADD16O,0.0540X0.1020*%
%ADD17R,0.0651X0.0257*%
%ADD18R,0.0257X0.0651*%
%ADD19R,0.0510X0.0360*%
%ADD20R,0.0420X0.0540*%
%ADD21R,0.0540X0.0420*%
%ADD22O,0.1260X0.0660*%
%ADD23R,0.0560X0.0310*%
%ADD24R,0.0310X0.0560*%
%ADD25R,0.0690X0.0572*%
%ADD26R,0.0926X0.0690*%
%ADD27R,0.0926X0.0296*%
%ADD28R,0.0690X0.0926*%
%ADD29R,0.0572X0.0690*%
%ADD30R,0.0375X0.0572*%
%ADD31O,0.0828X0.1595*%
%ADD32O,0.1595X0.0828*%
%ADD33C,0.0690*%
%ADD34R,0.0760X0.0910*%
%ADD35OC8,0.0690*%
%ADD36R,0.0926X0.0729*%
%ADD37R,0.0887X0.0611*%
%ADD38C,0.1360*%
%ADD39O,0.1260X0.2460*%
%ADD40R,0.0910X0.0760*%
%ADD41O,0.1590X0.0825*%
%ADD42OC8,0.0825*%
%ADD43C,0.1000*%
%ADD44C,0.0460*%
D10*
X005673Y005230D03*
X016673Y006230D03*
X051673Y005230D03*
X097673Y005230D03*
X016673Y050230D03*
X005673Y052230D03*
X051673Y052230D03*
X097673Y052230D03*
D11*
X101673Y001230D02*
X001673Y001230D01*
X001673Y056230D01*
X101673Y056230D01*
X101673Y001230D01*
D12*
X095565Y017284D03*
X090505Y017284D03*
X085445Y017284D03*
X080385Y017284D03*
X075325Y017284D03*
X070265Y017284D03*
X065205Y017284D03*
X060145Y017284D03*
X060145Y042875D03*
X061621Y042875D03*
X065205Y042875D03*
X066681Y042875D03*
X070265Y042875D03*
X071741Y042875D03*
X075325Y042875D03*
X076801Y042875D03*
X080385Y042875D03*
X081861Y042875D03*
X085445Y042875D03*
X086921Y042875D03*
X090505Y042875D03*
X091981Y042875D03*
X095565Y042875D03*
X097041Y042875D03*
D13*
X047253Y044370D03*
X046253Y044370D03*
X045253Y044370D03*
X045553Y034820D03*
X044553Y034820D03*
X043553Y034820D03*
X029623Y034820D03*
X028623Y034820D03*
X027623Y034820D03*
X034393Y009600D03*
X035393Y009600D03*
X036393Y009600D03*
X041293Y009600D03*
X042293Y009600D03*
X043293Y009600D03*
X048193Y009600D03*
X049193Y009600D03*
X050193Y009600D03*
D14*
X050925Y012360D03*
X047461Y012360D03*
X044025Y012360D03*
X040561Y012360D03*
X037125Y012360D03*
X033661Y012360D03*
X030355Y037580D03*
X026891Y037580D03*
X042821Y037580D03*
X046285Y037580D03*
X047985Y047130D03*
X044521Y047130D03*
D15*
X028263Y047540D03*
X028263Y046540D03*
X027263Y046540D03*
X026263Y046540D03*
X026263Y047540D03*
X026543Y012860D03*
X026543Y011860D03*
X025543Y011860D03*
X024543Y011860D03*
X024543Y012860D03*
D16*
X024823Y029500D03*
X025823Y029500D03*
X031833Y029500D03*
X032833Y029500D03*
X038843Y029500D03*
X039843Y029500D03*
X045853Y029500D03*
X046853Y029500D03*
X037333Y047040D03*
X036333Y047040D03*
X060383Y047790D03*
X061383Y047790D03*
X065443Y047790D03*
X066443Y047790D03*
X070503Y047790D03*
X071503Y047790D03*
X075563Y047790D03*
X076563Y047790D03*
X080623Y047790D03*
X081623Y047790D03*
X085683Y047790D03*
X086683Y047790D03*
X090743Y047790D03*
X091743Y047790D03*
X095803Y047790D03*
X096803Y047790D03*
D17*
X054717Y033204D03*
X054717Y032889D03*
X054717Y032574D03*
X054717Y032260D03*
X054717Y031945D03*
X054717Y031630D03*
X054717Y031315D03*
X054717Y031000D03*
X054717Y030685D03*
X054717Y030370D03*
X054717Y030055D03*
X050229Y030055D03*
X050229Y030370D03*
X050229Y030685D03*
X050229Y031000D03*
X050229Y031315D03*
X050229Y031630D03*
X050229Y031945D03*
X050229Y032260D03*
X050229Y032574D03*
X050229Y032889D03*
X050229Y033204D03*
D18*
X050898Y033874D03*
X051213Y033874D03*
X051528Y033874D03*
X051843Y033874D03*
X052158Y033874D03*
X052473Y033874D03*
X052788Y033874D03*
X053103Y033874D03*
X053418Y033874D03*
X053733Y033874D03*
X054048Y033874D03*
X054048Y029386D03*
X053733Y029386D03*
X053418Y029386D03*
X053103Y029386D03*
X052788Y029386D03*
X052473Y029386D03*
X052158Y029386D03*
X051843Y029386D03*
X051528Y029386D03*
X051213Y029386D03*
X050898Y029386D03*
D19*
X032593Y020330D03*
X032593Y019830D03*
X032593Y019330D03*
X032593Y018830D03*
X032593Y018330D03*
X032593Y017830D03*
X032593Y017330D03*
X032593Y016830D03*
X032593Y016330D03*
X032593Y015830D03*
X028843Y015830D03*
X028843Y016330D03*
X028843Y016830D03*
X028843Y017330D03*
X028843Y017830D03*
X028843Y018330D03*
X028843Y018830D03*
X028843Y019330D03*
X028843Y019830D03*
X028853Y020330D03*
D20*
X060028Y008230D03*
X061318Y008230D03*
X065088Y008230D03*
X066378Y008230D03*
X070148Y008230D03*
X071438Y008230D03*
X075208Y008230D03*
X076498Y008230D03*
X080268Y008230D03*
X081558Y008230D03*
X085328Y008230D03*
X086618Y008230D03*
X090388Y008230D03*
X091678Y008230D03*
X095448Y008230D03*
X096738Y008230D03*
D21*
X049903Y023585D03*
X049903Y024875D03*
X042893Y024875D03*
X042893Y023585D03*
X035883Y023585D03*
X035883Y024875D03*
X028873Y024875D03*
X028873Y023585D03*
X011523Y023685D03*
X011523Y024975D03*
D22*
X005373Y024730D03*
X005373Y023730D03*
X005373Y022730D03*
X005373Y021730D03*
X005373Y020730D03*
X005373Y019730D03*
X022273Y016230D03*
X022273Y011230D03*
D23*
X039799Y014856D03*
X039799Y015230D03*
X039799Y015604D03*
X040547Y015604D03*
X040547Y014856D03*
X043199Y006504D03*
X043199Y006130D03*
X043199Y005756D03*
X043947Y005756D03*
X043947Y006504D03*
D24*
X033147Y006004D03*
X032399Y006004D03*
X032399Y005256D03*
X032773Y005256D03*
X033147Y005256D03*
D25*
X035473Y005736D03*
X035473Y006523D03*
X036973Y006523D03*
X036973Y005736D03*
X038473Y005736D03*
X038473Y006523D03*
X039973Y006523D03*
X039973Y005736D03*
X045673Y005736D03*
X045673Y006523D03*
X047473Y006523D03*
X047473Y005736D03*
X048973Y005736D03*
X048973Y006523D03*
X045773Y010636D03*
X045773Y011423D03*
X045673Y015336D03*
X045673Y016123D03*
X043773Y016123D03*
X043773Y015336D03*
X042273Y015336D03*
X042273Y016123D03*
X039073Y011423D03*
X039073Y010636D03*
X024273Y014836D03*
X024273Y015623D03*
X020473Y024036D03*
X020473Y024823D03*
X018223Y024823D03*
X018223Y024036D03*
X047973Y031436D03*
X047973Y032223D03*
X056773Y032223D03*
X056773Y031436D03*
X056973Y033936D03*
X056973Y034723D03*
X039673Y046336D03*
X039673Y047123D03*
X026973Y043523D03*
X026973Y042736D03*
D26*
X033083Y040230D03*
X034264Y040230D03*
D27*
X031497Y042680D03*
X031497Y043180D03*
X031497Y043680D03*
X031497Y044180D03*
X029449Y044180D03*
X029449Y043680D03*
X029449Y043180D03*
X029449Y042680D03*
D28*
X057973Y041820D03*
X057973Y040639D03*
X026473Y016820D03*
X026473Y015639D03*
D29*
X026579Y019230D03*
X027367Y019230D03*
X036779Y016530D03*
X037567Y016530D03*
X037567Y015230D03*
X036779Y015230D03*
X027867Y004530D03*
X027079Y004530D03*
D30*
X007623Y028300D03*
X007123Y028300D03*
X006623Y028300D03*
X006123Y028300D03*
X006123Y029560D03*
X006623Y029560D03*
X007123Y029560D03*
X007623Y029560D03*
X052823Y037800D03*
X053323Y037800D03*
X053823Y037800D03*
X054323Y037800D03*
X054323Y039060D03*
X053823Y039060D03*
X053323Y039060D03*
X052823Y039060D03*
D31*
X002854Y010230D03*
D32*
X004823Y012198D03*
X004823Y008261D03*
D33*
X002854Y008261D03*
X004823Y010230D03*
X002854Y012198D03*
D34*
X024873Y041030D03*
X026473Y041030D03*
D35*
X020673Y019230D03*
X019673Y019230D03*
X018673Y019230D03*
X017673Y019230D03*
X016673Y019230D03*
X015673Y019230D03*
X014673Y019230D03*
X013673Y019230D03*
X012673Y019230D03*
X011673Y019230D03*
X010673Y019230D03*
X009673Y019230D03*
X009673Y018230D03*
X010673Y018230D03*
X011673Y018230D03*
X012673Y018230D03*
X013673Y018230D03*
X014673Y018230D03*
X015673Y018230D03*
X016673Y018230D03*
X017673Y018230D03*
X018673Y018230D03*
X019673Y018230D03*
X020673Y018230D03*
X020673Y017230D03*
X019673Y017230D03*
X018673Y017230D03*
X017673Y017230D03*
X016673Y017230D03*
X015673Y017230D03*
X014673Y017230D03*
X013673Y017230D03*
X012673Y017230D03*
X011673Y017230D03*
X010673Y017230D03*
X009673Y017230D03*
X009673Y016230D03*
X010673Y016230D03*
X011673Y016230D03*
X012673Y016230D03*
X013673Y016230D03*
X014673Y016230D03*
X015673Y016230D03*
X016673Y016230D03*
X017673Y016230D03*
X018673Y016230D03*
X019673Y016230D03*
X020673Y016230D03*
X020673Y015230D03*
X019673Y015230D03*
X018673Y015230D03*
X017673Y015230D03*
X016673Y015230D03*
X015673Y015230D03*
X014673Y015230D03*
X013673Y015230D03*
X012673Y015230D03*
X011673Y015230D03*
X010673Y015230D03*
X009673Y015230D03*
X009673Y014230D03*
X010673Y014230D03*
X011673Y014230D03*
X012673Y014230D03*
X013673Y014230D03*
X014673Y014230D03*
X015673Y014230D03*
X016673Y014230D03*
X017673Y014230D03*
X018673Y014230D03*
X019673Y014230D03*
X020673Y014230D03*
X020673Y013230D03*
X019673Y013230D03*
X018673Y013230D03*
X017673Y013230D03*
X016673Y013230D03*
X015673Y013230D03*
X014673Y013230D03*
X013673Y013230D03*
X012673Y013230D03*
X011673Y013230D03*
X010673Y013230D03*
X009673Y013230D03*
X009673Y012230D03*
X010673Y012230D03*
X011673Y012230D03*
X012673Y012230D03*
X013673Y012230D03*
X014673Y012230D03*
X015673Y012230D03*
X016673Y012230D03*
X017673Y012230D03*
X018673Y012230D03*
X019673Y012230D03*
X020673Y012230D03*
X020673Y011230D03*
X019673Y011230D03*
X018673Y011230D03*
X017673Y011230D03*
X016673Y011230D03*
X015673Y011230D03*
X014673Y011230D03*
X013673Y011230D03*
X012673Y011230D03*
X011673Y011230D03*
X010673Y011230D03*
X009673Y011230D03*
X009673Y010230D03*
X010673Y010230D03*
X011673Y010230D03*
X012673Y010230D03*
X013673Y010230D03*
X014673Y010230D03*
X015673Y010230D03*
X016673Y010230D03*
X017673Y010230D03*
X018673Y010230D03*
X019673Y010230D03*
X020673Y010230D03*
X020673Y009230D03*
X019673Y009230D03*
X018673Y009230D03*
X017673Y009230D03*
X016673Y009230D03*
X015673Y009230D03*
X014673Y009230D03*
X013673Y009230D03*
X012673Y009230D03*
X011673Y009230D03*
X010673Y009230D03*
X009673Y009230D03*
X009673Y008230D03*
X010673Y008230D03*
X011673Y008230D03*
X012673Y008230D03*
X013673Y008230D03*
X014673Y008230D03*
X015673Y008230D03*
X016673Y008230D03*
X017673Y008230D03*
X018673Y008230D03*
X019673Y008230D03*
X020673Y008230D03*
D36*
X016996Y022930D03*
X016996Y023930D03*
X016996Y024930D03*
X013650Y024930D03*
X013650Y023930D03*
X013650Y022930D03*
D37*
X023532Y023514D03*
X023532Y025285D03*
X027114Y025285D03*
X027114Y023514D03*
X030542Y023514D03*
X030542Y025285D03*
X034124Y025285D03*
X034124Y023514D03*
X037552Y023514D03*
X037552Y025285D03*
X041134Y025285D03*
X041134Y023514D03*
X044562Y023514D03*
X044562Y025285D03*
X048144Y025285D03*
X048144Y023514D03*
X059092Y012145D03*
X059092Y010374D03*
X062674Y010374D03*
X064152Y010374D03*
X064152Y012145D03*
X062674Y012145D03*
X067734Y012145D03*
X069212Y012145D03*
X069212Y010374D03*
X067734Y010374D03*
X072794Y010374D03*
X074272Y010374D03*
X074272Y012145D03*
X072794Y012145D03*
X077854Y012145D03*
X079332Y012145D03*
X079332Y010374D03*
X077854Y010374D03*
X082914Y010374D03*
X084392Y010374D03*
X084392Y012145D03*
X082914Y012145D03*
X087974Y012145D03*
X089452Y012145D03*
X089452Y010374D03*
X087974Y010374D03*
X093034Y010374D03*
X094512Y010374D03*
X094512Y012145D03*
X093034Y012145D03*
X098094Y012145D03*
X098094Y010374D03*
D38*
X021363Y033480D03*
X011983Y033480D03*
X011983Y042230D03*
X021363Y042230D03*
D39*
X019173Y048230D03*
X014173Y048230D03*
D40*
X047873Y018030D03*
X047873Y016430D03*
X050373Y016430D03*
X050373Y018030D03*
D41*
X006623Y037230D03*
X006623Y045130D03*
D42*
X007623Y043130D03*
X006623Y042130D03*
X006623Y040230D03*
X007623Y039230D03*
X002623Y039230D03*
X002623Y038230D03*
X002623Y036230D03*
X002623Y035230D03*
X006623Y034230D03*
X007623Y035230D03*
X002623Y043130D03*
X002623Y044130D03*
X002623Y046130D03*
X002623Y047130D03*
X006623Y048130D03*
X007623Y047130D03*
D43*
X004623Y048090D03*
X004623Y042170D03*
X004623Y040190D03*
X004623Y034270D03*
D44*
X006173Y031930D03*
X006573Y031530D03*
X007223Y030580D03*
X009573Y031830D03*
X009673Y032530D03*
X007223Y026880D03*
X009073Y026330D03*
X009973Y021430D03*
X018223Y023080D03*
X020873Y021430D03*
X024773Y022330D03*
X025273Y022730D03*
X025573Y021630D03*
X025573Y021030D03*
X028173Y019330D03*
X028073Y017430D03*
X027673Y016830D03*
X028173Y015730D03*
X027573Y014630D03*
X026473Y014630D03*
X024573Y014030D03*
X031673Y010830D03*
X032473Y009230D03*
X033673Y007330D03*
X032373Y006630D03*
X035473Y007330D03*
X036973Y007330D03*
X035873Y004930D03*
X032773Y004330D03*
X041173Y005730D03*
X042073Y006330D03*
X041273Y007030D03*
X044473Y007930D03*
X045673Y007930D03*
X047473Y007330D03*
X044573Y006530D03*
X044373Y005030D03*
X039073Y012830D03*
X038073Y014130D03*
X038773Y015430D03*
X041173Y015530D03*
X041373Y016730D03*
X045673Y014430D03*
X036773Y017430D03*
X035573Y018030D03*
X035973Y018430D03*
X035173Y017630D03*
X034773Y017230D03*
X034373Y016830D03*
X033973Y016430D03*
X033573Y016030D03*
X033173Y015630D03*
X036273Y019630D03*
X036573Y020030D03*
X036873Y020430D03*
X037173Y020830D03*
X035073Y022130D03*
X035073Y023130D03*
X033273Y019830D03*
X029673Y022130D03*
X029673Y023130D03*
X022973Y026330D03*
X021373Y026330D03*
X038773Y032430D03*
X039173Y032030D03*
X039573Y031630D03*
X039973Y031230D03*
X041373Y032630D03*
X040973Y033030D03*
X040573Y033430D03*
X040173Y033830D03*
X047173Y032430D03*
X047973Y033130D03*
X048473Y033530D03*
X048973Y033930D03*
X049473Y034330D03*
X049973Y034730D03*
X050473Y035130D03*
X050973Y035530D03*
X051473Y035930D03*
X052173Y036230D03*
X052673Y036030D03*
X053173Y035830D03*
X053673Y035630D03*
X056173Y034230D03*
X055773Y033730D03*
X055773Y032630D03*
X057573Y032530D03*
X056973Y035530D03*
X057973Y039530D03*
X055573Y041130D03*
X055973Y041630D03*
X054273Y041630D03*
X053773Y041230D03*
X053273Y040830D03*
X052773Y040430D03*
X052773Y042830D03*
X053273Y043330D03*
X053773Y043830D03*
X054273Y044330D03*
X055973Y046330D03*
X055573Y046830D03*
X065073Y046430D03*
X070173Y046130D03*
X075173Y045830D03*
X048873Y030730D03*
X048473Y030330D03*
X050773Y026330D03*
X052873Y026330D03*
X055773Y027130D03*
X056173Y026730D03*
X056173Y029130D03*
X052773Y023130D03*
X052373Y022730D03*
X051973Y022330D03*
X051173Y021930D03*
X050773Y022730D03*
X051173Y023130D03*
X059173Y008230D03*
X059173Y006630D03*
X064273Y006830D03*
X064273Y008230D03*
X069373Y008230D03*
X069373Y007030D03*
X079473Y006630D03*
X079473Y008230D03*
X084573Y008230D03*
X084573Y006830D03*
X089573Y007030D03*
X089573Y008230D03*
X035173Y041730D03*
X034173Y041730D03*
X033173Y041730D03*
X035173Y042730D03*
X035173Y043730D03*
X035173Y044730D03*
X035173Y045730D03*
X035173Y046730D03*
X035173Y047730D03*
X035173Y048730D03*
X035173Y049730D03*
X035173Y050730D03*
X034173Y050730D03*
X033173Y050730D03*
X032173Y050730D03*
X031173Y050730D03*
X031173Y049730D03*
X031173Y048730D03*
X031173Y047730D03*
X031173Y046730D03*
X031173Y045730D03*
X025973Y043530D03*
X028273Y042630D03*
X036173Y050730D03*
X037173Y050730D03*
M02*
